<ttFont>
    <TTGlyph name=".notdef" xMin="80" yMin="0" xMax="468" yMax="683">
      <contour>
        <pt x="80" y="683" on="1"/>
        <pt x="468" y="683" on="1"/>
        <pt x="468" y="0" on="1"/>
        <pt x="80" y="0" on="1"/>
      </contour>
      <contour>
        <pt x="400" y="68" on="1"/>
        <pt x="400" y="615" on="1"/>
        <pt x="148" y="615" on="1"/>
        <pt x="148" y="68" on="1"/>
      </contour>
    </TTGlyph>
    <TTGlyph name="A" xMin="-21" yMin="0" xMax="485" yMax="655">
      <contour>
        <pt x="394" y="0" on="1"/>
        <pt x="372" y="152" on="1"/>
        <pt x="133" y="152" on="1"/>
        <pt x="117" y="114" on="0"/>
        <pt x="86" y="38" on="0"/>
        <pt x="69" y="0" on="1"/>
        <pt x="-21" y="0" on="1"/>
        <pt x="259" y="655" on="1"/>
        <pt x="364" y="655" on="1"/>
        <pt x="485" y="0" on="1"/>
      </contour>
      <contour>
        <pt x="301" y="576" on="1"/>
        <pt x="268" y="488" on="0"/>
        <pt x="200" y="315" on="0"/>
        <pt x="165" y="228" on="1"/>
        <pt x="360" y="228" on="1"/>
        <pt x="346" y="316" on="0"/>
        <pt x="317" y="489" on="0"/>
      </contour>
    </TTGlyph>
    <TTGlyph name="AE" xMin="-25" yMin="0" xMax="753" yMax="655">
      <contour>
        <pt x="328" y="0" on="1"/>
        <pt x="346" y="152" on="1"/>
        <pt x="159" y="152" on="1"/>
        <pt x="67" y="0" on="1"/>
        <pt x="-25" y="0" on="1"/>
        <pt x="363" y="655" on="1"/>
        <pt x="753" y="655" on="1"/>
        <pt x="743" y="578" on="1"/>
        <pt x="483" y="578" on="1"/>
        <pt x="458" y="371" on="1"/>
        <pt x="698" y="371" on="1"/>
        <pt x="688" y="295" on="1"/>
        <pt x="448" y="295" on="1"/>
        <pt x="421" y="77" on="1"/>
        <pt x="681" y="77" on="1"/>
        <pt x="673" y="0" on="1"/>
      </contour>
      <contour>
        <pt x="398" y="573" on="1"/>
        <pt x="356" y="495" on="0"/>
        <pt x="260" y="323" on="0"/>
        <pt x="204" y="228" on="1"/>
        <pt x="356" y="228" on="1"/>
      </contour>
    </TTGlyph>
    <TTGlyph name="Aacute" xMin="-21" yMin="0" xMax="485" yMax="829">
      <component glyphName="A" x="0" y="0" flags="0x204"/>
      <component glyphName="acute.cap" x="90" y="0" flags="0x4"/>
    </TTGlyph>
    <TTGlyph name="Acircumflex" xMin="-21" yMin="0" xMax="485" yMax="840">
      <component glyphName="A" x="0" y="0" flags="0x204"/>
      <component glyphName="circumflex.cap" x="40" y="0" flags="0x4"/>
    </TTGlyph>
    <TTGlyph name="Adieresis" xMin="-21" yMin="0" xMax="485" yMax="828">
      <component glyphName="A" x="0" y="0" flags="0x204"/>
      <component glyphName="dieresis.cap" x="51" y="0" flags="0x4"/>
    </TTGlyph>
    <TTGlyph name="Agrave" xMin="-21" yMin="0" xMax="485" yMax="829">
      <component glyphName="A" x="0" y="0" flags="0x204"/>
      <component glyphName="grave.cap" x="51" y="0" flags="0x4"/>
    </TTGlyph>
    <TTGlyph name="Aring" xMin="-21" yMin="0" xMax="485" yMax="800">
      <contour>
        <pt x="394" y="0" on="1"/>
        <pt x="372" y="152" on="1"/>
        <pt x="133" y="152" on="1"/>
        <pt x="117" y="114" on="0"/>
        <pt x="86" y="38" on="0"/>
        <pt x="69" y="0" on="1"/>
        <pt x="-21" y="0" on="1"/>
        <pt x="242" y="615" on="1"/>
        <pt x="223" y="626" on="0"/>
        <pt x="201" y="662" on="0"/>
        <pt x="201" y="688" on="1"/>
        <pt x="200" y="746" on="0"/>
        <pt x="269" y="800" on="0"/>
        <pt x="326" y="800" on="1"/>
        <pt x="374" y="800" on="0"/>
        <pt x="432" y="757" on="0"/>
        <pt x="433" y="715" on="1"/>
        <pt x="433" y="636" on="0"/>
        <pt x="372" y="611" on="1"/>
        <pt x="485" y="0" on="1"/>
      </contour>
      <contour>
        <pt x="301" y="576" on="1"/>
        <pt x="268" y="488" on="0"/>
        <pt x="200" y="315" on="0"/>
        <pt x="165" y="228" on="1"/>
        <pt x="360" y="228" on="1"/>
        <pt x="346" y="316" on="0"/>
        <pt x="317" y="489" on="0"/>
      </contour>
      <contour>
        <pt x="322" y="745" on="1"/>
        <pt x="267" y="745" on="0"/>
        <pt x="267" y="695" on="1"/>
        <pt x="267" y="678" on="0"/>
        <pt x="288" y="655" on="0"/>
        <pt x="313" y="655" on="1"/>
        <pt x="344" y="655" on="0"/>
        <pt x="369" y="685" on="0"/>
        <pt x="368" y="708" on="1"/>
        <pt x="368" y="724" on="0"/>
        <pt x="346" y="745" on="0"/>
      </contour>
    </TTGlyph>
    <TTGlyph name="Atilde" xMin="-21" yMin="0" xMax="485" yMax="810">
      <component glyphName="A" x="0" y="0" flags="0x204"/>
      <component glyphName="tilde.cap" x="40" y="0" flags="0x4"/>
    </TTGlyph>
    <TTGlyph name="B" xMin="38" yMin="-12" xMax="495" yMax="667">
      <contour>
        <pt x="120" y="662" on="1"/>
        <pt x="136" y="663" on="0"/>
        <pt x="177" y="664" on="0"/>
        <pt x="220" y="666" on="0"/>
        <pt x="264" y="667" on="0"/>
        <pt x="284" y="667" on="1"/>
        <pt x="338" y="667" on="0"/>
        <pt x="419" y="642" on="0"/>
        <pt x="471" y="599" on="0"/>
        <pt x="495" y="539" on="0"/>
        <pt x="492" y="503" on="1"/>
        <pt x="491" y="492" on="1"/>
        <pt x="486" y="435" on="0"/>
        <pt x="429" y="358" on="0"/>
        <pt x="373" y="340" on="1"/>
        <pt x="421" y="327" on="0"/>
        <pt x="480" y="254" on="0"/>
        <pt x="480" y="202" on="1"/>
        <pt x="480" y="196" on="0"/>
        <pt x="479" y="184" on="0"/>
        <pt x="478" y="178" on="1"/>
        <pt x="476" y="163" on="1"/>
        <pt x="465" y="80" on="0"/>
        <pt x="347" y="-12" on="0"/>
        <pt x="232" y="-12" on="1"/>
        <pt x="211" y="-12" on="0"/>
        <pt x="171" y="-11" on="0"/>
        <pt x="126" y="-9" on="0"/>
        <pt x="72" y="-6" on="0"/>
        <pt x="38" y="-3" on="1"/>
      </contour>
      <contour>
        <pt x="131" y="68" on="1"/>
        <pt x="169" y="64" on="0"/>
        <pt x="210" y="62" on="0"/>
        <pt x="230" y="62" on="1"/>
        <pt x="310" y="62" on="0"/>
        <pt x="385" y="119" on="0"/>
        <pt x="393" y="173" on="1"/>
        <pt x="395" y="186" on="1"/>
        <pt x="396" y="191" on="0"/>
        <pt x="397" y="201" on="0"/>
        <pt x="397" y="206" on="1"/>
        <pt x="397" y="250" on="0"/>
        <pt x="331" y="298" on="0"/>
        <pt x="263" y="298" on="1"/>
        <pt x="159" y="298" on="1"/>
      </contour>
      <contour>
        <pt x="168" y="367" on="1"/>
        <pt x="271" y="367" on="1"/>
        <pt x="331" y="367" on="0"/>
        <pt x="398" y="427" on="0"/>
        <pt x="404" y="480" on="1"/>
        <pt x="405" y="489" on="1"/>
        <pt x="411" y="542" on="0"/>
        <pt x="350" y="594" on="0"/>
        <pt x="273" y="594" on="1"/>
        <pt x="239" y="594" on="0"/>
        <pt x="196" y="591" on="1"/>
      </contour>
    </TTGlyph>
    <TTGlyph name="C" xMin="54" yMin="-12" xMax="450" yMax="667">
      <contour>
        <pt x="301" y="667" on="1"/>
        <pt x="334" y="667" on="0"/>
        <pt x="415" y="654" on="0"/>
        <pt x="450" y="643" on="1"/>
        <pt x="439" y="563" on="1"/>
        <pt x="404" y="577" on="0"/>
        <pt x="329" y="593" on="0"/>
        <pt x="299" y="593" on="1"/>
        <pt x="245" y="593" on="0"/>
        <pt x="182" y="534" on="0"/>
        <pt x="174" y="469" on="1"/>
        <pt x="141" y="194" on="1"/>
        <pt x="140" y="185" on="0"/>
        <pt x="139" y="168" on="0"/>
        <pt x="139" y="160" on="1"/>
        <pt x="139" y="108" on="0"/>
        <pt x="188" y="66" on="0"/>
        <pt x="239" y="66" on="1"/>
        <pt x="274" y="66" on="0"/>
        <pt x="347" y="85" on="0"/>
        <pt x="389" y="104" on="1"/>
        <pt x="381" y="24" on="1"/>
        <pt x="365" y="16" on="0"/>
        <pt x="325" y="3" on="0"/>
        <pt x="283" y="-7" on="0"/>
        <pt x="243" y="-12" on="0"/>
        <pt x="226" y="-12" on="1"/>
        <pt x="140" y="-12" on="0"/>
        <pt x="54" y="70" on="0"/>
        <pt x="54" y="157" on="1"/>
        <pt x="54" y="180" on="0"/>
        <pt x="57" y="207" on="1"/>
        <pt x="88" y="463" on="1"/>
        <pt x="101" y="569" on="0"/>
        <pt x="208" y="667" on="0"/>
      </contour>
    </TTGlyph>
    <TTGlyph name="Ccedilla" xMin="54" yMin="-197" xMax="450" yMax="667">
      <contour>
        <pt x="301" y="667" on="1"/>
        <pt x="334" y="667" on="0"/>
        <pt x="415" y="654" on="0"/>
        <pt x="450" y="643" on="1"/>
        <pt x="439" y="563" on="1"/>
        <pt x="404" y="577" on="0"/>
        <pt x="329" y="593" on="0"/>
        <pt x="299" y="593" on="1"/>
        <pt x="245" y="593" on="0"/>
        <pt x="182" y="534" on="0"/>
        <pt x="174" y="469" on="1"/>
        <pt x="141" y="194" on="1"/>
        <pt x="140" y="185" on="0"/>
        <pt x="139" y="168" on="0"/>
        <pt x="139" y="160" on="1"/>
        <pt x="139" y="108" on="0"/>
        <pt x="188" y="66" on="0"/>
        <pt x="239" y="66" on="1"/>
        <pt x="274" y="66" on="0"/>
        <pt x="347" y="85" on="0"/>
        <pt x="389" y="104" on="1"/>
        <pt x="381" y="24" on="1"/>
        <pt x="353" y="10" on="0"/>
        <pt x="279" y="-8" on="0"/>
        <pt x="247" y="-11" on="1"/>
        <pt x="234" y="-41" on="1"/>
        <pt x="236" y="-41" on="1"/>
        <pt x="264" y="-41" on="0"/>
        <pt x="296" y="-80" on="0"/>
        <pt x="292" y="-112" on="1"/>
        <pt x="291" y="-121" on="1"/>
        <pt x="286" y="-157" on="0"/>
        <pt x="241" y="-197" on="0"/>
        <pt x="196" y="-197" on="1"/>
        <pt x="184" y="-197" on="0"/>
        <pt x="150" y="-192" on="0"/>
        <pt x="137" y="-188" on="1"/>
        <pt x="144" y="-133" on="1"/>
        <pt x="167" y="-143" on="0"/>
        <pt x="189" y="-143" on="1"/>
        <pt x="206" y="-143" on="0"/>
        <pt x="222" y="-130" on="0"/>
        <pt x="224" y="-120" on="1"/>
        <pt x="225" y="-113" on="1"/>
        <pt x="225" y="-107" on="1"/>
        <pt x="225" y="-80" on="0"/>
        <pt x="191" y="-80" on="1"/>
        <pt x="165" y="-80" on="1"/>
        <pt x="168" y="-60" on="1"/>
        <pt x="191" y="-10" on="1"/>
        <pt x="54" y="5" on="0"/>
        <pt x="54" y="156" on="1"/>
        <pt x="54" y="180" on="0"/>
        <pt x="57" y="207" on="1"/>
        <pt x="88" y="463" on="1"/>
        <pt x="101" y="569" on="0"/>
        <pt x="208" y="667" on="0"/>
      </contour>
    </TTGlyph>
    <TTGlyph name="D" xMin="38" yMin="-12" xMax="520" yMax="667">
      <contour>
        <pt x="131" y="68" on="1"/>
        <pt x="160" y="64" on="0"/>
        <pt x="204" y="61" on="0"/>
        <pt x="223" y="61" on="1"/>
        <pt x="300" y="61" on="0"/>
        <pt x="401" y="147" on="0"/>
        <pt x="411" y="227" on="1"/>
        <pt x="433" y="402" on="1"/>
        <pt x="436" y="423" on="0"/>
        <pt x="436" y="442" on="1"/>
        <pt x="436" y="519" on="0"/>
        <pt x="356" y="595" on="0"/>
        <pt x="284" y="595" on="1"/>
        <pt x="269" y="595" on="0"/>
        <pt x="216" y="594" on="0"/>
        <pt x="196" y="593" on="1"/>
      </contour>
      <contour>
        <pt x="120" y="662" on="1"/>
        <pt x="152" y="664" on="0"/>
        <pt x="241" y="667" on="0"/>
        <pt x="290" y="667" on="1"/>
        <pt x="403" y="667" on="0"/>
        <pt x="520" y="549" on="0"/>
        <pt x="520" y="445" on="1"/>
        <pt x="520" y="420" on="0"/>
        <pt x="517" y="395" on="1"/>
        <pt x="496" y="229" on="1"/>
        <pt x="481" y="112" on="0"/>
        <pt x="346" y="-12" on="0"/>
        <pt x="215" y="-12" on="1"/>
        <pt x="165" y="-12" on="0"/>
        <pt x="84" y="-8" on="0"/>
        <pt x="38" y="-3" on="1"/>
      </contour>
    </TTGlyph>
    <TTGlyph name="E" xMin="39" yMin="0" xMax="464" yMax="655">
      <contour>
        <pt x="39" y="0" on="1"/>
        <pt x="119" y="655" on="1"/>
        <pt x="464" y="655" on="1"/>
        <pt x="454" y="578" on="1"/>
        <pt x="194" y="578" on="1"/>
        <pt x="169" y="371" on="1"/>
        <pt x="409" y="371" on="1"/>
        <pt x="399" y="295" on="1"/>
        <pt x="159" y="295" on="1"/>
        <pt x="132" y="77" on="1"/>
        <pt x="392" y="77" on="1"/>
        <pt x="384" y="0" on="1"/>
      </contour>
    </TTGlyph>
    <TTGlyph name="Eacute" xMin="39" yMin="0" xMax="464" yMax="829">
      <component glyphName="E" x="0" y="0" flags="0x204"/>
      <component glyphName="acute.cap" x="80" y="0" flags="0x4"/>
    </TTGlyph>
    <TTGlyph name="Ecircumflex" xMin="39" yMin="0" xMax="464" yMax="840">
      <component glyphName="E" x="0" y="0" flags="0x204"/>
      <component glyphName="circumflex.cap" x="34" y="0" flags="0x4"/>
    </TTGlyph>
    <TTGlyph name="Edieresis" xMin="39" yMin="0" xMax="464" yMax="828">
      <component glyphName="E" x="0" y="0" flags="0x204"/>
      <component glyphName="dieresis.cap" x="28" y="0" flags="0x4"/>
    </TTGlyph>
    <TTGlyph name="Egrave" xMin="39" yMin="0" xMax="464" yMax="829">
      <component glyphName="E" x="0" y="0" flags="0x204"/>
      <component glyphName="grave.cap" x="45" y="0" flags="0x4"/>
    </TTGlyph>
    <TTGlyph name="Eth" xMin="5" yMin="-12" xMax="520" yMax="667">
      <contour>
        <pt x="76" y="303" on="1"/>
        <pt x="5" y="303" on="1"/>
        <pt x="15" y="373" on="1"/>
        <pt x="84" y="373" on="1"/>
        <pt x="120" y="662" on="1"/>
        <pt x="152" y="664" on="0"/>
        <pt x="241" y="667" on="0"/>
        <pt x="290" y="667" on="1"/>
        <pt x="403" y="667" on="0"/>
        <pt x="520" y="549" on="0"/>
        <pt x="520" y="445" on="1"/>
        <pt x="520" y="420" on="0"/>
        <pt x="517" y="395" on="1"/>
        <pt x="496" y="229" on="1"/>
        <pt x="481" y="112" on="0"/>
        <pt x="346" y="-12" on="0"/>
        <pt x="215" y="-12" on="1"/>
        <pt x="165" y="-12" on="0"/>
        <pt x="84" y="-8" on="0"/>
        <pt x="38" y="-3" on="1"/>
      </contour>
      <contour>
        <pt x="168" y="373" on="1"/>
        <pt x="305" y="373" on="1"/>
        <pt x="295" y="303" on="1"/>
        <pt x="160" y="303" on="1"/>
        <pt x="131" y="68" on="1"/>
        <pt x="160" y="64" on="0"/>
        <pt x="204" y="61" on="0"/>
        <pt x="223" y="61" on="1"/>
        <pt x="300" y="61" on="0"/>
        <pt x="401" y="147" on="0"/>
        <pt x="411" y="227" on="1"/>
        <pt x="433" y="402" on="1"/>
        <pt x="436" y="423" on="0"/>
        <pt x="436" y="442" on="1"/>
        <pt x="436" y="519" on="0"/>
        <pt x="356" y="595" on="0"/>
        <pt x="284" y="595" on="1"/>
        <pt x="269" y="595" on="0"/>
        <pt x="216" y="594" on="0"/>
        <pt x="196" y="593" on="1"/>
      </contour>
    </TTGlyph>
    <TTGlyph name="Euro" xMin="40" yMin="-12" xMax="498" yMax="613">
      <contour>
        <pt x="219" y="326" on="1"/>
        <pt x="210" y="264" on="1"/>
        <pt x="399" y="264" on="1"/>
        <pt x="369" y="194" on="1"/>
        <pt x="200" y="194" on="1"/>
        <pt x="200" y="191" on="1"/>
        <pt x="197" y="173" on="0"/>
        <pt x="197" y="157" on="1"/>
        <pt x="197" y="63" on="0"/>
        <pt x="297" y="63" on="1"/>
        <pt x="334" y="63" on="0"/>
        <pt x="407" y="80" on="0"/>
        <pt x="436" y="89" on="1"/>
        <pt x="427" y="12" on="1"/>
        <pt x="391" y="1" on="0"/>
        <pt x="321" y="-12" on="0"/>
        <pt x="287" y="-12" on="1"/>
        <pt x="240" y="-12" on="0"/>
        <pt x="174" y="10" on="0"/>
        <pt x="132" y="52" on="0"/>
        <pt x="113" y="111" on="0"/>
        <pt x="113" y="149" on="1"/>
        <pt x="113" y="170" on="0"/>
        <pt x="116" y="194" on="1"/>
        <pt x="40" y="194" on="1"/>
        <pt x="70" y="264" on="1"/>
        <pt x="125" y="264" on="1"/>
        <pt x="134" y="326" on="1"/>
        <pt x="58" y="326" on="1"/>
        <pt x="88" y="396" on="1"/>
        <pt x="144" y="396" on="1"/>
        <pt x="148" y="424" on="1"/>
        <pt x="162" y="523" on="0"/>
        <pt x="259" y="613" on="0"/>
        <pt x="357" y="613" on="1"/>
        <pt x="392" y="613" on="0"/>
        <pt x="465" y="602" on="0"/>
        <pt x="498" y="593" on="1"/>
        <pt x="486" y="519" on="1"/>
        <pt x="454" y="529" on="0"/>
        <pt x="389" y="540" on="0"/>
        <pt x="353" y="540" on="1"/>
        <pt x="299" y="540" on="0"/>
        <pt x="242" y="490" on="0"/>
        <pt x="233" y="427" on="1"/>
        <pt x="228" y="396" on="1"/>
        <pt x="417" y="396" on="1"/>
        <pt x="387" y="326" on="1"/>
      </contour>
    </TTGlyph>
    <TTGlyph name="F" xMin="39" yMin="0" xMax="464" yMax="655">
      <contour>
        <pt x="194" y="578" on="1"/>
        <pt x="169" y="371" on="1"/>
        <pt x="365" y="371" on="1"/>
        <pt x="355" y="295" on="1"/>
        <pt x="159" y="295" on="1"/>
        <pt x="124" y="0" on="1"/>
        <pt x="39" y="0" on="1"/>
        <pt x="119" y="655" on="1"/>
        <pt x="464" y="655" on="1"/>
        <pt x="454" y="578" on="1"/>
      </contour>
    </TTGlyph>
    <TTGlyph name="G" xMin="53" yMin="-12" xMax="494" yMax="667">
      <contour>
        <pt x="250" y="-12" on="1"/>
        <pt x="151" y="-12" on="0"/>
        <pt x="53" y="82" on="0"/>
        <pt x="53" y="167" on="1"/>
        <pt x="53" y="187" on="0"/>
        <pt x="56" y="208" on="1"/>
        <pt x="87" y="465" on="1"/>
        <pt x="99" y="566" on="0"/>
        <pt x="205" y="667" on="0"/>
        <pt x="313" y="667" on="1"/>
        <pt x="334" y="667" on="0"/>
        <pt x="382" y="662" on="0"/>
        <pt x="431" y="654" on="0"/>
        <pt x="476" y="644" on="0"/>
        <pt x="494" y="638" on="1"/>
        <pt x="484" y="560" on="1"/>
        <pt x="443" y="575" on="0"/>
        <pt x="349" y="594" on="0"/>
        <pt x="309" y="594" on="1"/>
        <pt x="246" y="594" on="0"/>
        <pt x="180" y="537" on="0"/>
        <pt x="172" y="471" on="1"/>
        <pt x="138" y="193" on="1"/>
        <pt x="137" y="186" on="0"/>
        <pt x="136" y="174" on="0"/>
        <pt x="136" y="168" on="1"/>
        <pt x="136" y="63" on="0"/>
        <pt x="253" y="63" on="1"/>
        <pt x="286" y="63" on="0"/>
        <pt x="345" y="74" on="0"/>
        <pt x="371" y="85" on="1"/>
        <pt x="397" y="298" on="1"/>
        <pt x="271" y="298" on="1"/>
        <pt x="282" y="378" on="1"/>
        <pt x="492" y="378" on="1"/>
        <pt x="451" y="45" on="1"/>
        <pt x="408" y="22" on="0"/>
        <pt x="299" y="-12" on="0"/>
      </contour>
    </TTGlyph>
    <TTGlyph name="H" xMin="39" yMin="0" xMax="549" yMax="655">
      <contour>
        <pt x="384" y="0" on="1"/>
        <pt x="420" y="300" on="1"/>
        <pt x="160" y="300" on="1"/>
        <pt x="124" y="0" on="1"/>
        <pt x="39" y="0" on="1"/>
        <pt x="119" y="655" on="1"/>
        <pt x="204" y="655" on="1"/>
        <pt x="169" y="376" on="1"/>
        <pt x="429" y="376" on="1"/>
        <pt x="464" y="655" on="1"/>
        <pt x="549" y="655" on="1"/>
        <pt x="469" y="0" on="1"/>
      </contour>
    </TTGlyph>
    <TTGlyph name="I" xMin="39" yMin="0" xMax="204" yMax="655">
      <contour>
        <pt x="39" y="0" on="1"/>
        <pt x="119" y="655" on="1"/>
        <pt x="204" y="655" on="1"/>
        <pt x="124" y="0" on="1"/>
      </contour>
    </TTGlyph>
    <TTGlyph name="IJ" xMin="39" yMin="-12" xMax="516" yMax="655">
      <component glyphName="I" x="0" y="0" flags="0x4"/>
      <component glyphName="J" x="235" y="0" flags="0x4"/>
    </TTGlyph>
    <TTGlyph name="Iacute" xMin="39" yMin="0" xMax="275" yMax="829">
      <component glyphName="I" x="0" y="0" flags="0x204"/>
      <component glyphName="acute.cap" x="-59" y="0" flags="0x4"/>
    </TTGlyph>
    <TTGlyph name="Icircumflex" xMin="27" yMin="0" xMax="315" yMax="840">
      <component glyphName="I" x="0" y="0" flags="0x204"/>
      <component glyphName="circumflex.cap" x="-113" y="0" flags="0x4"/>
    </TTGlyph>
    <TTGlyph name="Idieresis" xMin="28" yMin="0" xMax="317" yMax="828">
      <component glyphName="I" x="0" y="0" flags="0x204"/>
      <component glyphName="dieresis.cap" x="-100" y="0" flags="0x4"/>
    </TTGlyph>
    <TTGlyph name="Igrave" xMin="39" yMin="0" xMax="223" yMax="829">
      <component glyphName="I" x="0" y="0" flags="0x204"/>
      <component glyphName="grave.cap" x="-97" y="0" flags="0x4"/>
    </TTGlyph>
    <TTGlyph name="Itilde" xMin="26" yMin="0" xMax="318" yMax="810">
      <contour>
        <pt x="310" y="740" on="1"/>
        <pt x="298" y="731" on="0"/>
        <pt x="285" y="725" on="1"/>
        <pt x="274" y="719" on="0"/>
        <pt x="243" y="710" on="0"/>
        <pt x="226" y="710" on="1"/>
        <pt x="209" y="710" on="0"/>
        <pt x="180" y="718" on="0"/>
        <pt x="151" y="727" on="0"/>
        <pt x="122" y="735" on="0"/>
        <pt x="107" y="735" on="1"/>
        <pt x="94" y="735" on="0"/>
        <pt x="66" y="727" on="0"/>
        <pt x="54" y="722" on="1"/>
        <pt x="40" y="717" on="0"/>
        <pt x="26" y="710" on="1"/>
        <pt x="34" y="780" on="1"/>
        <pt x="46" y="788" on="0"/>
        <pt x="59" y="795" on="1"/>
        <pt x="70" y="800" on="0"/>
        <pt x="101" y="810" on="0"/>
        <pt x="118" y="810" on="1"/>
        <pt x="138" y="810" on="0"/>
        <pt x="170" y="802" on="0"/>
        <pt x="197" y="793" on="0"/>
        <pt x="223" y="785" on="0"/>
        <pt x="237" y="785" on="1"/>
        <pt x="249" y="785" on="0"/>
        <pt x="278" y="792" on="0"/>
        <pt x="290" y="797" on="1"/>
        <pt x="304" y="802" on="0"/>
        <pt x="318" y="810" on="1"/>
      </contour>
      <contour>
        <pt x="39" y="0" on="1"/>
        <pt x="119" y="655" on="1"/>
        <pt x="204" y="655" on="1"/>
        <pt x="124" y="0" on="1"/>
      </contour>
    </TTGlyph>
    <TTGlyph name="J" xMin="-17" yMin="-12" xMax="281" yMax="655">
      <contour>
        <pt x="281" y="655" on="1"/>
        <pt x="217" y="137" on="1"/>
        <pt x="207" y="56" on="0"/>
        <pt x="141" y="-12" on="0"/>
        <pt x="75" y="-12" on="1"/>
        <pt x="65" y="-12" on="0"/>
        <pt x="40" y="-9" on="0"/>
        <pt x="14" y="-5" on="0"/>
        <pt x="-10" y="0" on="0"/>
        <pt x="-17" y="2" on="1"/>
        <pt x="-8" y="75" on="1"/>
        <pt x="9" y="69" on="0"/>
        <pt x="51" y="61" on="0"/>
        <pt x="68" y="61" on="1"/>
        <pt x="97" y="61" on="0"/>
        <pt x="127" y="92" on="0"/>
        <pt x="132" y="134" on="1"/>
        <pt x="196" y="655" on="1"/>
      </contour>
    </TTGlyph>
    <TTGlyph name="Jcircumflex" xMin="-6" yMin="-12" xMax="397" yMax="840">
      <component glyphName="J" x="11" y="0" flags="0x4"/>
      <component glyphName="circumflex.cap" x="-31" y="0" flags="0x4"/>
    </TTGlyph>
    <TTGlyph name="K" xMin="39" yMin="0" xMax="543" yMax="655">
      <contour>
        <pt x="39" y="0" on="1"/>
        <pt x="119" y="655" on="1"/>
        <pt x="204" y="655" on="1"/>
        <pt x="167" y="352" on="1"/>
        <pt x="246" y="433" on="0"/>
        <pt x="382" y="583" on="0"/>
        <pt x="439" y="655" on="1"/>
        <pt x="543" y="655" on="1"/>
        <pt x="255" y="338" on="1"/>
        <pt x="489" y="0" on="1"/>
        <pt x="381" y="0" on="1"/>
        <pt x="352" y="47" on="0"/>
        <pt x="299" y="131" on="0"/>
        <pt x="247" y="209" on="0"/>
        <pt x="194" y="285" on="0"/>
        <pt x="164" y="325" on="1"/>
        <pt x="124" y="0" on="1"/>
      </contour>
    </TTGlyph>
    <TTGlyph name="L" xMin="39" yMin="0" xMax="392" yMax="655">
      <contour>
        <pt x="39" y="0" on="1"/>
        <pt x="119" y="655" on="1"/>
        <pt x="204" y="655" on="1"/>
        <pt x="132" y="75" on="1"/>
        <pt x="392" y="75" on="1"/>
        <pt x="384" y="0" on="1"/>
      </contour>
    </TTGlyph>
    <TTGlyph name="Ldotaccent" xMin="39" yMin="0" xMax="392" yMax="655">
      <contour>
        <pt x="337" y="445" on="1"/>
        <pt x="333" y="403" on="0"/>
        <pt x="280" y="403" on="1"/>
        <pt x="254" y="403" on="0"/>
        <pt x="224" y="429" on="0"/>
        <pt x="226" y="451" on="1"/>
        <pt x="230" y="480" on="1"/>
        <pt x="234" y="523" on="0"/>
        <pt x="287" y="523" on="1"/>
        <pt x="314" y="523" on="0"/>
        <pt x="344" y="497" on="0"/>
        <pt x="341" y="474" on="1"/>
      </contour>
      <contour>
        <pt x="39" y="0" on="1"/>
        <pt x="119" y="655" on="1"/>
        <pt x="204" y="655" on="1"/>
        <pt x="132" y="75" on="1"/>
        <pt x="392" y="75" on="1"/>
        <pt x="384" y="0" on="1"/>
      </contour>
    </TTGlyph>
    <TTGlyph name="Lslash" xMin="2" yMin="0" xMax="392" yMax="655">
      <contour>
        <pt x="13" y="344" on="1"/>
        <pt x="83" y="363" on="1"/>
        <pt x="119" y="655" on="1"/>
        <pt x="204" y="655" on="1"/>
        <pt x="171" y="386" on="1"/>
        <pt x="309" y="424" on="1"/>
        <pt x="298" y="348" on="1"/>
        <pt x="161" y="311" on="1"/>
        <pt x="132" y="75" on="1"/>
        <pt x="392" y="75" on="1"/>
        <pt x="384" y="0" on="1"/>
        <pt x="39" y="0" on="1"/>
        <pt x="74" y="287" on="1"/>
        <pt x="2" y="268" on="1"/>
      </contour>
    </TTGlyph>
    <TTGlyph name="M" xMin="34" yMin="0" xMax="667" yMax="655">
      <contour>
        <pt x="509" y="0" on="1"/>
        <pt x="568" y="535" on="1"/>
        <pt x="371" y="68" on="1"/>
        <pt x="267" y="68" on="1"/>
        <pt x="187" y="533" on="1"/>
        <pt x="118" y="0" on="1"/>
        <pt x="34" y="0" on="1"/>
        <pt x="120" y="655" on="1"/>
        <pt x="241" y="655" on="1"/>
        <pt x="267" y="527" on="0"/>
        <pt x="310" y="275" on="0"/>
        <pt x="325" y="146" on="1"/>
        <pt x="385" y="277" on="0"/>
        <pt x="487" y="529" on="0"/>
        <pt x="534" y="655" on="1"/>
        <pt x="667" y="655" on="1"/>
        <pt x="593" y="0" on="1"/>
      </contour>
    </TTGlyph>
    <TTGlyph name="N" xMin="39" yMin="0" xMax="551" yMax="655">
      <contour>
        <pt x="346" y="0" on="1"/>
        <pt x="190" y="556" on="1"/>
        <pt x="123" y="0" on="1"/>
        <pt x="39" y="0" on="1"/>
        <pt x="119" y="655" on="1"/>
        <pt x="244" y="655" on="1"/>
        <pt x="287" y="516" on="0"/>
        <pt x="364" y="243" on="0"/>
        <pt x="399" y="100" on="1"/>
        <pt x="467" y="655" on="1"/>
        <pt x="551" y="655" on="1"/>
        <pt x="471" y="0" on="1"/>
      </contour>
    </TTGlyph>
    <TTGlyph name="Nacute" xMin="39" yMin="0" xMax="551" yMax="829">
      <component glyphName="N" x="0" y="0" flags="0x4"/>
      <component glyphName="acute.cap" x="125" y="0" flags="0x4"/>
    </TTGlyph>
    <TTGlyph name="Ntilde" xMin="39" yMin="0" xMax="551" yMax="810">
      <component glyphName="N" x="0" y="0" flags="0x4"/>
      <component glyphName="tilde.cap" x="63" y="0" flags="0x4"/>
    </TTGlyph>
    <TTGlyph name="O" xMin="55" yMin="-12" xMax="527" yMax="667">
      <contour>
        <pt x="89" y="457" on="1"/>
        <pt x="103" y="565" on="0"/>
        <pt x="215" y="667" on="0"/>
        <pt x="327" y="667" on="1"/>
        <pt x="424" y="667" on="0"/>
        <pt x="527" y="571" on="0"/>
        <pt x="527" y="485" on="1"/>
        <pt x="527" y="466" on="1"/>
        <pt x="527" y="457" on="0"/>
        <pt x="525" y="447" on="1"/>
        <pt x="494" y="198" on="1"/>
        <pt x="481" y="94" on="0"/>
        <pt x="365" y="-12" on="0"/>
        <pt x="256" y="-12" on="1"/>
        <pt x="156" y="-12" on="0"/>
        <pt x="55" y="83" on="0"/>
        <pt x="55" y="168" on="1"/>
        <pt x="55" y="187" on="0"/>
        <pt x="58" y="208" on="1"/>
      </contour>
      <contour>
        <pt x="142" y="197" on="1"/>
        <pt x="141" y="190" on="0"/>
        <pt x="140" y="177" on="0"/>
        <pt x="140" y="171" on="1"/>
        <pt x="140" y="117" on="0"/>
        <pt x="202" y="63" on="0"/>
        <pt x="261" y="63" on="1"/>
        <pt x="392" y="63" on="0"/>
        <pt x="408" y="191" on="1"/>
        <pt x="441" y="458" on="1"/>
        <pt x="442" y="465" on="0"/>
        <pt x="443" y="478" on="0"/>
        <pt x="443" y="484" on="1"/>
        <pt x="443" y="540" on="0"/>
        <pt x="380" y="592" on="0"/>
        <pt x="321" y="592" on="1"/>
        <pt x="189" y="592" on="0"/>
        <pt x="174" y="465" on="1"/>
      </contour>
    </TTGlyph>
    <TTGlyph name="OE" xMin="54" yMin="-12" xMax="750" yMax="667">
      <contour>
        <pt x="325" y="0" on="1"/>
        <pt x="287" y="-12" on="0"/>
        <pt x="243" y="-12" on="1"/>
        <pt x="146" y="-12" on="0"/>
        <pt x="54" y="84" on="0"/>
        <pt x="54" y="164" on="1"/>
        <pt x="54" y="175" on="0"/>
        <pt x="56" y="199" on="0"/>
        <pt x="58" y="211" on="1"/>
        <pt x="93" y="460" on="1"/>
        <pt x="107" y="560" on="0"/>
        <pt x="217" y="667" on="0"/>
        <pt x="319" y="667" on="1"/>
        <pt x="344" y="667" on="0"/>
        <pt x="390" y="660" on="0"/>
        <pt x="411" y="655" on="1"/>
        <pt x="750" y="655" on="1"/>
        <pt x="740" y="578" on="1"/>
        <pt x="480" y="578" on="1"/>
        <pt x="455" y="371" on="1"/>
        <pt x="695" y="371" on="1"/>
        <pt x="685" y="295" on="1"/>
        <pt x="445" y="295" on="1"/>
        <pt x="418" y="77" on="1"/>
        <pt x="678" y="77" on="1"/>
        <pt x="670" y="0" on="1"/>
      </contour>
      <contour>
        <pt x="255" y="64" on="1"/>
        <pt x="280" y="64" on="0"/>
        <pt x="317" y="71" on="0"/>
        <pt x="334" y="79" on="1"/>
        <pt x="395" y="579" on="1"/>
        <pt x="378" y="585" on="0"/>
        <pt x="339" y="593" on="0"/>
        <pt x="319" y="593" on="1"/>
        <pt x="259" y="593" on="0"/>
        <pt x="188" y="533" on="0"/>
        <pt x="179" y="470" on="1"/>
        <pt x="142" y="202" on="1"/>
        <pt x="141" y="194" on="0"/>
        <pt x="140" y="181" on="0"/>
        <pt x="140" y="174" on="1"/>
        <pt x="140" y="123" on="0"/>
        <pt x="199" y="64" on="0"/>
      </contour>
    </TTGlyph>
    <TTGlyph name="Oacute" xMin="55" yMin="-12" xMax="527" yMax="829">
      <component glyphName="O" x="0" y="0" flags="0x204"/>
      <component glyphName="acute.cap" x="110" y="0" flags="0x4"/>
    </TTGlyph>
    <TTGlyph name="Ocircumflex" xMin="55" yMin="-12" xMax="527" yMax="840">
      <component glyphName="O" x="0" y="0" flags="0x204"/>
      <component glyphName="circumflex.cap" x="58" y="0" flags="0x4"/>
    </TTGlyph>
    <TTGlyph name="Odieresis" xMin="55" yMin="-12" xMax="527" yMax="828">
      <component glyphName="O" x="0" y="0" flags="0x204"/>
      <component glyphName="dieresis.cap" x="73" y="0" flags="0x4"/>
    </TTGlyph>
    <TTGlyph name="Ograve" xMin="55" yMin="-12" xMax="527" yMax="829">
      <component glyphName="O" x="0" y="0" flags="0x204"/>
      <component glyphName="grave.cap" x="71" y="0" flags="0x4"/>
    </TTGlyph>
    <TTGlyph name="Oslash" xMin="-20" yMin="-50" xMax="597" yMax="705">
      <contour>
        <pt x="89" y="457" on="1"/>
        <pt x="103" y="565" on="0"/>
        <pt x="215" y="667" on="0"/>
        <pt x="327" y="667" on="1"/>
        <pt x="406" y="667" on="0"/>
        <pt x="457" y="633" on="1"/>
        <pt x="508" y="705" on="1"/>
        <pt x="597" y="705" on="1"/>
        <pt x="506" y="579" on="1"/>
        <pt x="527" y="540" on="0"/>
        <pt x="527" y="484" on="1"/>
        <pt x="527" y="475" on="0"/>
        <pt x="526" y="457" on="0"/>
        <pt x="525" y="447" on="1"/>
        <pt x="494" y="198" on="1"/>
        <pt x="481" y="94" on="0"/>
        <pt x="365" y="-12" on="0"/>
        <pt x="256" y="-12" on="1"/>
        <pt x="172" y="-12" on="0"/>
        <pt x="123" y="22" on="1"/>
        <pt x="69" y="-50" on="1"/>
        <pt x="-20" y="-50" on="1"/>
        <pt x="73" y="79" on="1"/>
        <pt x="55" y="116" on="0"/>
        <pt x="55" y="167" on="1"/>
        <pt x="55" y="187" on="0"/>
        <pt x="58" y="208" on="1"/>
      </contour>
      <contour>
        <pt x="441" y="458" on="1"/>
        <pt x="442" y="465" on="0"/>
        <pt x="442" y="471" on="1"/>
        <pt x="442" y="494" on="1"/>
        <pt x="167" y="95" on="1"/>
        <pt x="197" y="63" on="0"/>
        <pt x="261" y="63" on="1"/>
        <pt x="392" y="63" on="0"/>
        <pt x="408" y="191" on="1"/>
      </contour>
      <contour>
        <pt x="142" y="197" on="1"/>
        <pt x="140" y="189" on="0"/>
        <pt x="140" y="181" on="1"/>
        <pt x="140" y="166" on="1"/>
        <pt x="414" y="562" on="1"/>
        <pt x="384" y="592" on="0"/>
        <pt x="321" y="592" on="1"/>
        <pt x="189" y="592" on="0"/>
        <pt x="174" y="465" on="1"/>
      </contour>
    </TTGlyph>
    <TTGlyph name="Otilde" xMin="55" yMin="-12" xMax="527" yMax="810">
      <component glyphName="O" x="0" y="0" flags="0x204"/>
      <component glyphName="tilde.cap" x="58" y="0" flags="0x4"/>
    </TTGlyph>
    <TTGlyph name="P" xMin="39" yMin="0" xMax="502" yMax="667">
      <contour>
        <pt x="39" y="0" on="1"/>
        <pt x="120" y="662" on="1"/>
        <pt x="133" y="663" on="0"/>
        <pt x="175" y="664" on="0"/>
        <pt x="221" y="666" on="0"/>
        <pt x="265" y="667" on="0"/>
        <pt x="282" y="667" on="1"/>
        <pt x="389" y="667" on="0"/>
        <pt x="502" y="577" on="0"/>
        <pt x="502" y="499" on="1"/>
        <pt x="502" y="483" on="0"/>
        <pt x="499" y="465" on="1"/>
        <pt x="497" y="451" on="1"/>
        <pt x="484" y="363" on="0"/>
        <pt x="365" y="267" on="0"/>
        <pt x="259" y="267" on="1"/>
        <pt x="245" y="267" on="0"/>
        <pt x="192" y="272" on="0"/>
        <pt x="157" y="279" on="1"/>
        <pt x="124" y="0" on="1"/>
      </contour>
      <contour>
        <pt x="165" y="347" on="1"/>
        <pt x="194" y="342" on="0"/>
        <pt x="239" y="337" on="0"/>
        <pt x="257" y="337" on="1"/>
        <pt x="328" y="337" on="0"/>
        <pt x="401" y="396" on="0"/>
        <pt x="412" y="456" on="1"/>
        <pt x="414" y="467" on="1"/>
        <pt x="417" y="480" on="0"/>
        <pt x="417" y="494" on="1"/>
        <pt x="417" y="542" on="0"/>
        <pt x="346" y="596" on="0"/>
        <pt x="279" y="596" on="1"/>
        <pt x="250" y="596" on="0"/>
        <pt x="212" y="595" on="0"/>
        <pt x="196" y="594" on="1"/>
      </contour>
    </TTGlyph>
    <TTGlyph name="Q" xMin="59" yMin="-85" xMax="531" yMax="655">
      <contour>
        <pt x="93" y="445" on="1"/>
        <pt x="107" y="553" on="0"/>
        <pt x="219" y="655" on="0"/>
        <pt x="331" y="655" on="1"/>
        <pt x="428" y="655" on="0"/>
        <pt x="531" y="559" on="0"/>
        <pt x="531" y="473" on="1"/>
        <pt x="531" y="454" on="1"/>
        <pt x="531" y="445" on="0"/>
        <pt x="529" y="435" on="1"/>
        <pt x="498" y="186" on="1"/>
        <pt x="483" y="61" on="0"/>
        <pt x="401" y="10" on="1"/>
        <pt x="430" y="2" on="0"/>
        <pt x="489" y="-6" on="1"/>
        <pt x="481" y="-85" on="1"/>
        <pt x="462" y="-85" on="1"/>
        <pt x="302" y="-22" on="1"/>
        <pt x="291" y="-23" on="0"/>
        <pt x="271" y="-24" on="0"/>
        <pt x="260" y="-24" on="1"/>
        <pt x="160" y="-24" on="0"/>
        <pt x="59" y="71" on="0"/>
        <pt x="59" y="156" on="1"/>
        <pt x="59" y="175" on="0"/>
        <pt x="62" y="196" on="1"/>
      </contour>
      <contour>
        <pt x="146" y="185" on="1"/>
        <pt x="145" y="178" on="0"/>
        <pt x="144" y="165" on="0"/>
        <pt x="144" y="159" on="1"/>
        <pt x="144" y="105" on="0"/>
        <pt x="206" y="51" on="0"/>
        <pt x="265" y="51" on="1"/>
        <pt x="396" y="51" on="0"/>
        <pt x="412" y="179" on="1"/>
        <pt x="445" y="446" on="1"/>
        <pt x="446" y="453" on="0"/>
        <pt x="447" y="466" on="0"/>
        <pt x="447" y="472" on="1"/>
        <pt x="447" y="528" on="0"/>
        <pt x="384" y="580" on="0"/>
        <pt x="325" y="580" on="1"/>
        <pt x="193" y="580" on="0"/>
        <pt x="178" y="453" on="1"/>
      </contour>
    </TTGlyph>
    <TTGlyph name="R" xMin="39" yMin="0" xMax="505" yMax="667">
      <contour>
        <pt x="289" y="667" on="1"/>
        <pt x="345" y="667" on="0"/>
        <pt x="429" y="638" on="0"/>
        <pt x="483" y="587" on="0"/>
        <pt x="505" y="517" on="0"/>
        <pt x="499" y="477" on="1"/>
        <pt x="496" y="457" on="1"/>
        <pt x="488" y="400" on="0"/>
        <pt x="412" y="315" on="0"/>
        <pt x="352" y="296" on="1"/>
        <pt x="489" y="0" on="1"/>
        <pt x="392" y="0" on="1"/>
        <pt x="369" y="57" on="0"/>
        <pt x="335" y="140" on="0"/>
        <pt x="306" y="205" on="0"/>
        <pt x="280" y="258" on="0"/>
        <pt x="265" y="285" on="1"/>
        <pt x="251" y="285" on="1"/>
        <pt x="234" y="285" on="0"/>
        <pt x="190" y="288" on="0"/>
        <pt x="159" y="293" on="1"/>
        <pt x="124" y="0" on="1"/>
        <pt x="39" y="0" on="1"/>
        <pt x="120" y="662" on="1"/>
        <pt x="162" y="664" on="0"/>
        <pt x="251" y="667" on="0"/>
      </contour>
      <contour>
        <pt x="282" y="596" on="1"/>
        <pt x="267" y="596" on="0"/>
        <pt x="216" y="595" on="0"/>
        <pt x="196" y="594" on="1"/>
        <pt x="167" y="358" on="1"/>
        <pt x="200" y="354" on="0"/>
        <pt x="238" y="352" on="0"/>
        <pt x="255" y="352" on="1"/>
        <pt x="327" y="352" on="0"/>
        <pt x="403" y="411" on="0"/>
        <pt x="412" y="465" on="1"/>
        <pt x="413" y="471" on="1"/>
        <pt x="414" y="478" on="0"/>
        <pt x="415" y="491" on="0"/>
        <pt x="415" y="497" on="1"/>
        <pt x="415" y="545" on="0"/>
        <pt x="349" y="596" on="0"/>
      </contour>
    </TTGlyph>
    <TTGlyph name="Racute" xMin="39" yMin="0" xMax="505" yMax="829">
      <component glyphName="R" x="0" y="0" flags="0x204"/>
      <component glyphName="acute.cap" x="83" y="0" flags="0x4"/>
    </TTGlyph>
    <TTGlyph name="Rcaron" xMin="39" yMin="0" xMax="505" yMax="841">
      <component glyphName="R" x="0" y="0" flags="0x204"/>
      <component glyphName="caron.cap" x="25" y="0" flags="0x4"/>
    </TTGlyph>
    <TTGlyph name="Rcommaaccent" xMin="39" yMin="-226" xMax="505" yMax="667">
      <contour>
        <pt x="262" y="-122" on="1"/>
        <pt x="260" y="-135" on="0"/>
        <pt x="253" y="-154" on="0"/>
        <pt x="247" y="-167" on="1"/>
        <pt x="219" y="-226" on="1"/>
        <pt x="167" y="-226" on="1"/>
        <pt x="193" y="-155" on="1"/>
        <pt x="168" y="-146" on="0"/>
        <pt x="168" y="-122" on="1"/>
        <pt x="168" y="-120" on="0"/>
        <pt x="169" y="-115" on="0"/>
        <pt x="169" y="-113" on="1"/>
        <pt x="172" y="-93" on="1"/>
        <pt x="175" y="-74" on="0"/>
        <pt x="195" y="-56" on="0"/>
        <pt x="218" y="-56" on="1"/>
        <pt x="266" y="-56" on="0"/>
        <pt x="266" y="-92" on="1"/>
        <pt x="266" y="-99" on="0"/>
        <pt x="265" y="-102" on="1"/>
      </contour>
      <contour>
        <pt x="289" y="667" on="1"/>
        <pt x="345" y="667" on="0"/>
        <pt x="429" y="638" on="0"/>
        <pt x="483" y="587" on="0"/>
        <pt x="505" y="517" on="0"/>
        <pt x="499" y="477" on="1"/>
        <pt x="496" y="457" on="1"/>
        <pt x="488" y="400" on="0"/>
        <pt x="412" y="315" on="0"/>
        <pt x="352" y="296" on="1"/>
        <pt x="489" y="0" on="1"/>
        <pt x="392" y="0" on="1"/>
        <pt x="369" y="57" on="0"/>
        <pt x="335" y="140" on="0"/>
        <pt x="306" y="205" on="0"/>
        <pt x="280" y="258" on="0"/>
        <pt x="265" y="285" on="1"/>
        <pt x="251" y="285" on="1"/>
        <pt x="234" y="285" on="0"/>
        <pt x="190" y="288" on="0"/>
        <pt x="159" y="293" on="1"/>
        <pt x="124" y="0" on="1"/>
        <pt x="39" y="0" on="1"/>
        <pt x="120" y="662" on="1"/>
        <pt x="162" y="664" on="0"/>
        <pt x="251" y="667" on="0"/>
      </contour>
      <contour>
        <pt x="282" y="596" on="1"/>
        <pt x="267" y="596" on="0"/>
        <pt x="216" y="595" on="0"/>
        <pt x="196" y="594" on="1"/>
        <pt x="167" y="358" on="1"/>
        <pt x="200" y="354" on="0"/>
        <pt x="238" y="352" on="0"/>
        <pt x="255" y="352" on="1"/>
        <pt x="327" y="352" on="0"/>
        <pt x="403" y="411" on="0"/>
        <pt x="412" y="465" on="1"/>
        <pt x="413" y="471" on="1"/>
        <pt x="414" y="478" on="0"/>
        <pt x="415" y="491" on="0"/>
        <pt x="415" y="497" on="1"/>
        <pt x="415" y="545" on="0"/>
        <pt x="349" y="596" on="0"/>
      </contour>
    </TTGlyph>
    <TTGlyph name="S" xMin="24" yMin="-12" xMax="415" yMax="667">
      <contour>
        <pt x="298" y="354" on="1"/>
        <pt x="354" y="331" on="0"/>
        <pt x="409" y="256" on="0"/>
        <pt x="409" y="199" on="1"/>
        <pt x="409" y="180" on="0"/>
        <pt x="406" y="158" on="1"/>
        <pt x="404" y="145" on="1"/>
        <pt x="392" y="67" on="0"/>
        <pt x="295" y="-12" on="0"/>
        <pt x="204" y="-12" on="1"/>
        <pt x="182" y="-12" on="0"/>
        <pt x="133" y="-5" on="0"/>
        <pt x="85" y="7" on="0"/>
        <pt x="41" y="22" on="0"/>
        <pt x="24" y="30" on="1"/>
        <pt x="34" y="115" on="1"/>
        <pt x="103" y="80" on="0"/>
        <pt x="161" y="66" on="1"/>
        <pt x="176" y="64" on="0"/>
        <pt x="185" y="64" on="1"/>
        <pt x="204" y="64" on="1"/>
        <pt x="257" y="64" on="0"/>
        <pt x="310" y="107" on="0"/>
        <pt x="318" y="152" on="1"/>
        <pt x="320" y="163" on="1"/>
        <pt x="323" y="179" on="0"/>
        <pt x="323" y="193" on="1"/>
        <pt x="323" y="225" on="0"/>
        <pt x="289" y="266" on="0"/>
        <pt x="253" y="281" on="1"/>
        <pt x="164" y="317" on="1"/>
        <pt x="110" y="338" on="0"/>
        <pt x="55" y="421" on="0"/>
        <pt x="55" y="475" on="1"/>
        <pt x="55" y="500" on="0"/>
        <pt x="61" y="527" on="1"/>
        <pt x="63" y="536" on="1"/>
        <pt x="77" y="600" on="0"/>
        <pt x="174" y="667" on="0"/>
        <pt x="264" y="667" on="1"/>
        <pt x="280" y="667" on="0"/>
        <pt x="319" y="663" on="0"/>
        <pt x="359" y="657" on="0"/>
        <pt x="398" y="649" on="0"/>
        <pt x="415" y="645" on="1"/>
        <pt x="404" y="564" on="1"/>
        <pt x="378" y="572" on="0"/>
        <pt x="323" y="585" on="0"/>
        <pt x="295" y="590" on="1"/>
        <pt x="284" y="591" on="0"/>
        <pt x="276" y="591" on="1"/>
        <pt x="260" y="591" on="1"/>
        <pt x="208" y="591" on="0"/>
        <pt x="154" y="553" on="0"/>
        <pt x="148" y="516" on="1"/>
        <pt x="146" y="504" on="1"/>
        <pt x="145" y="498" on="0"/>
        <pt x="144" y="486" on="0"/>
        <pt x="144" y="480" on="1"/>
        <pt x="144" y="417" on="0"/>
        <pt x="215" y="388" on="1"/>
      </contour>
    </TTGlyph>
    <TTGlyph name="T" xMin="59" yMin="0" xMax="534" yMax="655">
      <contour>
        <pt x="59" y="578" on="1"/>
        <pt x="69" y="655" on="1"/>
        <pt x="534" y="655" on="1"/>
        <pt x="524" y="578" on="1"/>
        <pt x="334" y="578" on="1"/>
        <pt x="264" y="0" on="1"/>
        <pt x="179" y="0" on="1"/>
        <pt x="249" y="578" on="1"/>
      </contour>
    </TTGlyph>
    <TTGlyph name="Thorn" xMin="35" yMin="0" xMax="489" yMax="655">
      <contour>
        <pt x="35" y="0" on="1"/>
        <pt x="127" y="655" on="1"/>
        <pt x="212" y="655" on="1"/>
        <pt x="195" y="535" on="1"/>
        <pt x="217" y="536" on="0"/>
        <pt x="259" y="537" on="0"/>
        <pt x="276" y="537" on="1"/>
        <pt x="383" y="537" on="0"/>
        <pt x="489" y="449" on="0"/>
        <pt x="489" y="371" on="1"/>
        <pt x="489" y="353" on="0"/>
        <pt x="486" y="335" on="1"/>
        <pt x="484" y="320" on="1"/>
        <pt x="469" y="232" on="0"/>
        <pt x="353" y="137" on="0"/>
        <pt x="242" y="137" on="1"/>
        <pt x="226" y="137" on="0"/>
        <pt x="174" y="142" on="0"/>
        <pt x="141" y="148" on="1"/>
        <pt x="120" y="0" on="1"/>
      </contour>
      <contour>
        <pt x="150" y="217" on="1"/>
        <pt x="182" y="212" on="0"/>
        <pt x="223" y="208" on="0"/>
        <pt x="241" y="208" on="1"/>
        <pt x="314" y="208" on="0"/>
        <pt x="389" y="270" on="0"/>
        <pt x="400" y="332" on="1"/>
        <pt x="402" y="344" on="1"/>
        <pt x="403" y="350" on="0"/>
        <pt x="404" y="362" on="0"/>
        <pt x="404" y="368" on="1"/>
        <pt x="404" y="414" on="0"/>
        <pt x="338" y="466" on="0"/>
        <pt x="268" y="466" on="1"/>
        <pt x="239" y="466" on="0"/>
        <pt x="201" y="465" on="0"/>
        <pt x="185" y="464" on="1"/>
      </contour>
    </TTGlyph>
    <TTGlyph name="U" xMin="60" yMin="-12" xMax="545" yMax="655">
      <contour>
        <pt x="545" y="655" on="1"/>
        <pt x="489" y="201" on="1"/>
        <pt x="475" y="92" on="0"/>
        <pt x="365" y="-12" on="0"/>
        <pt x="261" y="-12" on="1"/>
        <pt x="161" y="-12" on="0"/>
        <pt x="60" y="80" on="0"/>
        <pt x="60" y="165" on="1"/>
        <pt x="60" y="183" on="0"/>
        <pt x="63" y="204" on="1"/>
        <pt x="119" y="655" on="1"/>
        <pt x="204" y="655" on="1"/>
        <pt x="147" y="197" on="1"/>
        <pt x="139" y="133" on="0"/>
        <pt x="202" y="65" on="0"/>
        <pt x="267" y="65" on="1"/>
        <pt x="327" y="65" on="0"/>
        <pt x="395" y="126" on="0"/>
        <pt x="403" y="194" on="1"/>
        <pt x="460" y="655" on="1"/>
      </contour>
    </TTGlyph>
    <TTGlyph name="Uacute" xMin="60" yMin="-12" xMax="545" yMax="829">
      <component glyphName="U" x="0" y="0" flags="0x204"/>
      <component glyphName="acute.cap" x="125" y="0" flags="0x4"/>
    </TTGlyph>
    <TTGlyph name="Ucircumflex" xMin="60" yMin="-12" xMax="545" yMax="840">
      <component glyphName="U" x="0" y="0" flags="0x204"/>
      <component glyphName="circumflex.cap" x="68" y="0" flags="0x4"/>
    </TTGlyph>
    <TTGlyph name="Udieresis" xMin="60" yMin="-12" xMax="545" yMax="828">
      <component glyphName="U" x="0" y="0" flags="0x204"/>
      <component glyphName="dieresis.cap" x="81" y="0" flags="0x4"/>
    </TTGlyph>
    <TTGlyph name="Ugrave" xMin="60" yMin="-12" xMax="545" yMax="829">
      <component glyphName="U" x="0" y="0" flags="0x204"/>
      <component glyphName="grave.cap" x="79" y="0" flags="0x4"/>
    </TTGlyph>
    <TTGlyph name="V" xMin="59" yMin="0" xMax="559" yMax="655">
      <contour>
        <pt x="285" y="0" on="1"/>
        <pt x="173" y="0" on="1"/>
        <pt x="59" y="655" on="1"/>
        <pt x="144" y="655" on="1"/>
        <pt x="170" y="510" on="0"/>
        <pt x="216" y="225" on="0"/>
        <pt x="233" y="82" on="1"/>
        <pt x="362" y="368" on="0"/>
        <pt x="464" y="655" on="1"/>
        <pt x="559" y="655" on="1"/>
      </contour>
    </TTGlyph>
    <TTGlyph name="W" xMin="69" yMin="0" xMax="867" yMax="655">
      <contour>
        <pt x="638" y="0" on="1"/>
        <pt x="524" y="0" on="1"/>
        <pt x="456" y="558" on="1"/>
        <pt x="253" y="0" on="1"/>
        <pt x="139" y="0" on="1"/>
        <pt x="69" y="655" on="1"/>
        <pt x="156" y="655" on="1"/>
        <pt x="189" y="377" on="0"/>
        <pt x="207" y="93" on="1"/>
        <pt x="263" y="233" on="0"/>
        <pt x="362" y="513" on="0"/>
        <pt x="407" y="655" on="1"/>
        <pt x="521" y="655" on="1"/>
        <pt x="541" y="514" on="0"/>
        <pt x="575" y="234" on="0"/>
        <pt x="587" y="93" on="1"/>
        <pt x="640" y="234" on="0"/>
        <pt x="732" y="514" on="0"/>
        <pt x="774" y="655" on="1"/>
        <pt x="867" y="655" on="1"/>
      </contour>
    </TTGlyph>
    <TTGlyph name="X" xMin="-21" yMin="0" xMax="541" yMax="655">
      <contour>
        <pt x="258" y="268" on="1"/>
        <pt x="213" y="201" on="0"/>
        <pt x="125" y="67" on="0"/>
        <pt x="78" y="0" on="1"/>
        <pt x="-21" y="0" on="1"/>
        <pt x="212" y="341" on="1"/>
        <pt x="71" y="655" on="1"/>
        <pt x="167" y="655" on="1"/>
        <pt x="194" y="592" on="0"/>
        <pt x="246" y="468" on="0"/>
        <pt x="272" y="405" on="1"/>
        <pt x="320" y="471" on="0"/>
        <pt x="402" y="592" on="0"/>
        <pt x="441" y="655" on="1"/>
        <pt x="541" y="655" on="1"/>
        <pt x="321" y="335" on="1"/>
        <pt x="472" y="0" on="1"/>
        <pt x="372" y="0" on="1"/>
        <pt x="346" y="69" on="0"/>
        <pt x="292" y="195" on="0"/>
      </contour>
    </TTGlyph>
    <TTGlyph name="Y" xMin="59" yMin="0" xMax="524" yMax="655">
      <contour>
        <pt x="281" y="225" on="1"/>
        <pt x="254" y="0" on="1"/>
        <pt x="169" y="0" on="1"/>
        <pt x="196" y="225" on="1"/>
        <pt x="59" y="655" on="1"/>
        <pt x="152" y="655" on="1"/>
        <pt x="178" y="570" on="0"/>
        <pt x="225" y="400" on="0"/>
        <pt x="246" y="315" on="1"/>
        <pt x="296" y="400" on="0"/>
        <pt x="384" y="570" on="0"/>
        <pt x="425" y="655" on="1"/>
        <pt x="524" y="655" on="1"/>
      </contour>
    </TTGlyph>
    <TTGlyph name="Yacute" xMin="59" yMin="0" xMax="524" yMax="829">
      <component glyphName="Y" x="0" y="0" flags="0x204"/>
      <component glyphName="acute.cap" x="77" y="0" flags="0x4"/>
    </TTGlyph>
    <TTGlyph name="Z" xMin="9" yMin="0" xMax="484" yMax="655">
      <contour>
        <pt x="9" y="0" on="1"/>
        <pt x="16" y="67" on="1"/>
        <pt x="370" y="578" on="1"/>
        <pt x="85" y="578" on="1"/>
        <pt x="95" y="655" on="1"/>
        <pt x="484" y="655" on="1"/>
        <pt x="475" y="588" on="1"/>
        <pt x="381" y="463" on="0"/>
        <pt x="205" y="209" on="0"/>
        <pt x="120" y="77" on="1"/>
        <pt x="412" y="77" on="1"/>
        <pt x="404" y="0" on="1"/>
      </contour>
    </TTGlyph>
    <TTGlyph name="a" xMin="45" yMin="-12" xMax="444" yMax="500">
      <contour>
        <pt x="75" y="327" on="1"/>
        <pt x="89" y="415" on="0"/>
        <pt x="177" y="500" on="0"/>
        <pt x="237" y="500" on="1"/>
        <pt x="272" y="500" on="0"/>
        <pt x="333" y="467" on="0"/>
        <pt x="357" y="438" on="1"/>
        <pt x="364" y="488" on="1"/>
        <pt x="444" y="488" on="1"/>
        <pt x="376" y="0" on="1"/>
        <pt x="295" y="0" on="1"/>
        <pt x="304" y="65" on="1"/>
        <pt x="345" y="190" on="1"/>
        <pt x="343" y="192" on="1"/>
        <pt x="340" y="191" on="1"/>
        <pt x="304" y="83" on="0"/>
        <pt x="210" y="-12" on="0"/>
        <pt x="156" y="-12" on="1"/>
        <pt x="108" y="-12" on="0"/>
        <pt x="45" y="54" on="0"/>
        <pt x="45" y="118" on="1"/>
        <pt x="45" y="129" on="0"/>
        <pt x="47" y="152" on="0"/>
        <pt x="49" y="164" on="1"/>
      </contour>
      <contour>
        <pt x="180" y="64" on="1"/>
        <pt x="210" y="64" on="0"/>
        <pt x="261" y="108" on="0"/>
        <pt x="300" y="174" on="0"/>
        <pt x="327" y="252" on="0"/>
        <pt x="332" y="287" on="1"/>
        <pt x="344" y="373" on="1"/>
        <pt x="324" y="398" on="0"/>
        <pt x="274" y="427" on="0"/>
        <pt x="248" y="427" on="1"/>
        <pt x="215" y="427" on="0"/>
        <pt x="169" y="378" on="0"/>
        <pt x="160" y="322" on="1"/>
        <pt x="136" y="175" on="1"/>
        <pt x="134" y="161" on="0"/>
        <pt x="131" y="137" on="0"/>
        <pt x="131" y="127" on="1"/>
        <pt x="131" y="92" on="0"/>
        <pt x="157" y="64" on="0"/>
      </contour>
    </TTGlyph>
    <TTGlyph name="aacute" xMin="45" yMin="-12" xMax="444" yMax="685">
      <component glyphName="a" x="0" y="0" flags="0x204"/>
      <component glyphName="acute" x="109" y="0" flags="0x4"/>
    </TTGlyph>
    <TTGlyph name="acircumflex" xMin="45" yMin="-12" xMax="444" yMax="690">
      <component glyphName="a" x="0" y="0" flags="0x204"/>
      <component glyphName="circumflex" x="7" y="0" flags="0x4"/>
    </TTGlyph>
    <TTGlyph name="acute" xMin="111" yMin="546" xMax="291" yMax="685">
      <contour>
        <pt x="182" y="546" on="1"/>
        <pt x="111" y="546" on="1"/>
        <pt x="201" y="685" on="1"/>
        <pt x="291" y="685" on="1"/>
      </contour>
    </TTGlyph>
    <TTGlyph name="acute.cap" xMin="165" yMin="710" xMax="334" yMax="829">
      <contour>
        <pt x="235" y="710" on="1"/>
        <pt x="165" y="710" on="1"/>
        <pt x="245" y="829" on="1"/>
        <pt x="334" y="829" on="1"/>
      </contour>
    </TTGlyph>
    <TTGlyph name="adieresis" xMin="45" yMin="-12" xMax="444" yMax="695">
      <component glyphName="a" x="0" y="0" flags="0x204"/>
      <component glyphName="dieresis" x="23" y="0" flags="0x4"/>
    </TTGlyph>
    <TTGlyph name="ae" xMin="30" yMin="-12" xMax="662" yMax="500">
      <contour>
        <pt x="61" y="331" on="1"/>
        <pt x="75" y="416" on="0"/>
        <pt x="157" y="500" on="0"/>
        <pt x="219" y="500" on="1"/>
        <pt x="240" y="500" on="0"/>
        <pt x="284" y="485" on="0"/>
        <pt x="323" y="460" on="0"/>
        <pt x="356" y="427" on="0"/>
        <pt x="366" y="408" on="1"/>
        <pt x="393" y="451" on="0"/>
        <pt x="471" y="500" on="0"/>
        <pt x="525" y="500" on="1"/>
        <pt x="592" y="500" on="0"/>
        <pt x="662" y="433" on="0"/>
        <pt x="662" y="382" on="1"/>
        <pt x="662" y="344" on="0"/>
        <pt x="632" y="276" on="0"/>
        <pt x="566" y="222" on="0"/>
        <pt x="459" y="184" on="0"/>
        <pt x="382" y="175" on="1"/>
        <pt x="379" y="159" on="1"/>
        <pt x="377" y="152" on="0"/>
        <pt x="377" y="146" on="1"/>
        <pt x="377" y="134" on="1"/>
        <pt x="377" y="96" on="0"/>
        <pt x="426" y="63" on="0"/>
        <pt x="467" y="63" on="1"/>
        <pt x="483" y="63" on="0"/>
        <pt x="523" y="70" on="0"/>
        <pt x="563" y="81" on="0"/>
        <pt x="600" y="95" on="0"/>
        <pt x="614" y="101" on="1"/>
        <pt x="599" y="24" on="1"/>
        <pt x="565" y="8" on="0"/>
        <pt x="484" y="-12" on="0"/>
        <pt x="455" y="-12" on="1"/>
        <pt x="413" y="-12" on="0"/>
        <pt x="356" y="10" on="0"/>
        <pt x="320" y="50" on="0"/>
        <pt x="304" y="104" on="0"/>
        <pt x="305" y="137" on="1"/>
        <pt x="271" y="59" on="0"/>
        <pt x="189" y="-12" on="0"/>
        <pt x="141" y="-12" on="1"/>
        <pt x="90" y="-12" on="0"/>
        <pt x="30" y="56" on="0"/>
        <pt x="30" y="119" on="1"/>
        <pt x="30" y="130" on="0"/>
        <pt x="32" y="152" on="0"/>
        <pt x="34" y="164" on="1"/>
      </contour>
      <contour>
        <pt x="314" y="259" on="1"/>
        <pt x="324" y="315" on="0"/>
        <pt x="341" y="359" on="1"/>
        <pt x="325" y="387" on="0"/>
        <pt x="266" y="424" on="0"/>
        <pt x="239" y="424" on="1"/>
        <pt x="201" y="424" on="0"/>
        <pt x="154" y="379" on="0"/>
        <pt x="145" y="323" on="1"/>
        <pt x="121" y="175" on="1"/>
        <pt x="119" y="161" on="0"/>
        <pt x="116" y="137" on="0"/>
        <pt x="116" y="127" on="1"/>
        <pt x="116" y="92" on="0"/>
        <pt x="142" y="64" on="0"/>
        <pt x="165" y="64" on="1"/>
        <pt x="195" y="64" on="0"/>
        <pt x="245" y="108" on="0"/>
        <pt x="284" y="170" on="0"/>
        <pt x="309" y="237" on="0"/>
      </contour>
      <contour>
        <pt x="391" y="235" on="1"/>
        <pt x="477" y="249" on="0"/>
        <pt x="577" y="324" on="0"/>
        <pt x="577" y="370" on="1"/>
        <pt x="577" y="396" on="0"/>
        <pt x="543" y="429" on="0"/>
        <pt x="508" y="429" on="1"/>
        <pt x="470" y="429" on="0"/>
        <pt x="408" y="351" on="0"/>
        <pt x="397" y="276" on="1"/>
      </contour>
    </TTGlyph>
    <TTGlyph name="agrave" xMin="45" yMin="-12" xMax="444" yMax="685">
      <component glyphName="a" x="0" y="0" flags="0x204"/>
      <component glyphName="grave" x="47" y="0" flags="0x4"/>
    </TTGlyph>
    <TTGlyph name="ampersand" xMin="14" yMin="-12" xMax="536" yMax="667">
      <contour>
        <pt x="283" y="597" on="1"/>
        <pt x="232" y="597" on="0"/>
        <pt x="178" y="550" on="0"/>
        <pt x="173" y="505" on="1"/>
        <pt x="170" y="479" on="0"/>
        <pt x="170" y="471" on="1"/>
        <pt x="170" y="426" on="0"/>
        <pt x="231" y="367" on="0"/>
        <pt x="289" y="367" on="1"/>
        <pt x="380" y="367" on="1"/>
        <pt x="390" y="440" on="1"/>
        <pt x="472" y="440" on="1"/>
        <pt x="462" y="367" on="1"/>
        <pt x="536" y="367" on="1"/>
        <pt x="526" y="298" on="1"/>
        <pt x="452" y="298" on="1"/>
        <pt x="414" y="23" on="1"/>
        <pt x="381" y="14" on="0"/>
        <pt x="329" y="0" on="0"/>
        <pt x="283" y="-8" on="0"/>
        <pt x="240" y="-12" on="0"/>
        <pt x="216" y="-12" on="1"/>
        <pt x="114" y="-12" on="0"/>
        <pt x="14" y="75" on="0"/>
        <pt x="14" y="143" on="1"/>
        <pt x="14" y="152" on="0"/>
        <pt x="16" y="171" on="0"/>
        <pt x="18" y="181" on="1"/>
        <pt x="21" y="198" on="1"/>
        <pt x="30" y="249" on="0"/>
        <pt x="110" y="324" on="0"/>
        <pt x="182" y="340" on="1"/>
        <pt x="134" y="360" on="0"/>
        <pt x="87" y="433" on="0"/>
        <pt x="87" y="478" on="1"/>
        <pt x="87" y="489" on="1"/>
        <pt x="87" y="495" on="0"/>
        <pt x="88" y="500" on="1"/>
        <pt x="91" y="522" on="1"/>
        <pt x="100" y="586" on="0"/>
        <pt x="200" y="667" on="0"/>
        <pt x="289" y="667" on="1"/>
        <pt x="317" y="667" on="0"/>
        <pt x="383" y="658" on="0"/>
        <pt x="415" y="651" on="1"/>
        <pt x="403" y="577" on="1"/>
        <pt x="378" y="585" on="0"/>
        <pt x="315" y="597" on="0"/>
      </contour>
      <contour>
        <pt x="370" y="298" on="1"/>
        <pt x="273" y="298" on="1"/>
        <pt x="198" y="298" on="0"/>
        <pt x="113" y="237" on="0"/>
        <pt x="105" y="186" on="1"/>
        <pt x="103" y="172" on="1"/>
        <pt x="96" y="123" on="0"/>
        <pt x="161" y="61" on="0"/>
        <pt x="233" y="61" on="1"/>
        <pt x="285" y="61" on="0"/>
        <pt x="339" y="75" on="1"/>
      </contour>
    </TTGlyph>
    <TTGlyph name="aring" xMin="45" yMin="-12" xMax="444" yMax="723">
      <component glyphName="a" x="0" y="0" flags="0x204"/>
      <component glyphName="ring" x="51" y="0" flags="0x4"/>
    </TTGlyph>
    <TTGlyph name="asciicircum" xMin="81" yMin="403" xMax="446" yMax="683">
      <contour>
        <pt x="366" y="403" on="1"/>
        <pt x="294" y="604" on="1"/>
        <pt x="167" y="403" on="1"/>
        <pt x="81" y="403" on="1"/>
        <pt x="265" y="683" on="1"/>
        <pt x="340" y="683" on="1"/>
        <pt x="446" y="403" on="1"/>
      </contour>
    </TTGlyph>
    <TTGlyph name="asciitilde" xMin="78" yMin="251" xMax="446" yMax="352">
      <contour>
        <pt x="436" y="279" on="1"/>
        <pt x="423" y="271" on="0"/>
        <pt x="406" y="265" on="1"/>
        <pt x="392" y="260" on="0"/>
        <pt x="354" y="251" on="0"/>
        <pt x="332" y="251" on="1"/>
        <pt x="305" y="251" on="0"/>
        <pt x="270" y="260" on="0"/>
        <pt x="239" y="270" on="0"/>
        <pt x="205" y="279" on="0"/>
        <pt x="180" y="279" on="1"/>
        <pt x="166" y="279" on="0"/>
        <pt x="131" y="271" on="0"/>
        <pt x="115" y="266" on="1"/>
        <pt x="97" y="261" on="0"/>
        <pt x="78" y="254" on="1"/>
        <pt x="88" y="324" on="1"/>
        <pt x="101" y="332" on="0"/>
        <pt x="118" y="338" on="1"/>
        <pt x="132" y="343" on="0"/>
        <pt x="170" y="352" on="0"/>
        <pt x="192" y="352" on="1"/>
        <pt x="219" y="352" on="0"/>
        <pt x="254" y="343" on="0"/>
        <pt x="286" y="333" on="0"/>
        <pt x="319" y="324" on="0"/>
        <pt x="344" y="324" on="1"/>
        <pt x="358" y="324" on="0"/>
        <pt x="393" y="331" on="0"/>
        <pt x="409" y="336" on="1"/>
        <pt x="427" y="341" on="0"/>
        <pt x="446" y="349" on="1"/>
      </contour>
    </TTGlyph>
    <TTGlyph name="asterisk" xMin="92" yMin="410" xMax="392" yMax="695">
      <contour>
        <pt x="266" y="583" on="1"/>
        <pt x="369" y="627" on="1"/>
        <pt x="392" y="561" on="1"/>
        <pt x="281" y="536" on="1"/>
        <pt x="355" y="452" on="1"/>
        <pt x="298" y="411" on="1"/>
        <pt x="241" y="507" on="1"/>
        <pt x="184" y="410" on="1"/>
        <pt x="128" y="452" on="1"/>
        <pt x="202" y="537" on="1"/>
        <pt x="92" y="561" on="1"/>
        <pt x="115" y="627" on="1"/>
        <pt x="217" y="584" on="1"/>
        <pt x="207" y="695" on="1"/>
        <pt x="276" y="695" on="1"/>
      </contour>
    </TTGlyph>
    <TTGlyph name="at" xMin="75" yMin="-185" xMax="885" yMax="695">
      <contour>
        <pt x="299" y="320" on="1"/>
        <pt x="310" y="402" on="0"/>
        <pt x="395" y="488" on="0"/>
        <pt x="462" y="488" on="1"/>
        <pt x="478" y="488" on="0"/>
        <pt x="512" y="478" on="0"/>
        <pt x="542" y="462" on="0"/>
        <pt x="569" y="443" on="0"/>
        <pt x="579" y="434" on="1"/>
        <pt x="584" y="475" on="1"/>
        <pt x="664" y="475" on="1"/>
        <pt x="623" y="155" on="1"/>
        <pt x="622" y="150" on="0"/>
        <pt x="622" y="146" on="1"/>
        <pt x="622" y="138" on="1"/>
        <pt x="622" y="115" on="0"/>
        <pt x="644" y="90" on="0"/>
        <pt x="673" y="90" on="1"/>
        <pt x="699" y="90" on="0"/>
        <pt x="745" y="116" on="0"/>
        <pt x="780" y="164" on="0"/>
        <pt x="800" y="229" on="0"/>
        <pt x="800" y="268" on="1"/>
        <pt x="800" y="318" on="1"/>
        <pt x="800" y="467" on="0"/>
        <pt x="636" y="619" on="0"/>
        <pt x="470" y="619" on="1"/>
        <pt x="323" y="619" on="0"/>
        <pt x="160" y="449" on="0"/>
        <pt x="160" y="288" on="1"/>
        <pt x="160" y="188" on="1"/>
        <pt x="160" y="42" on="0"/>
        <pt x="315" y="-109" on="0"/>
        <pt x="470" y="-109" on="1"/>
        <pt x="605" y="-109" on="1"/>
        <pt x="605" y="-185" on="1"/>
        <pt x="470" y="-185" on="1"/>
        <pt x="267" y="-185" on="0"/>
        <pt x="75" y="6" on="0"/>
        <pt x="75" y="188" on="1"/>
        <pt x="75" y="288" on="1"/>
        <pt x="75" y="378" on="0"/>
        <pt x="122" y="527" on="0"/>
        <pt x="219" y="635" on="0"/>
        <pt x="368" y="695" on="0"/>
        <pt x="470" y="695" on="1"/>
        <pt x="682" y="695" on="0"/>
        <pt x="885" y="504" on="0"/>
        <pt x="885" y="318" on="1"/>
        <pt x="885" y="268" on="1"/>
        <pt x="885" y="213" on="0"/>
        <pt x="856" y="120" on="0"/>
        <pt x="801" y="53" on="0"/>
        <pt x="722" y="15" on="0"/>
        <pt x="672" y="15" on="1"/>
        <pt x="615" y="15" on="0"/>
        <pt x="552" y="64" on="0"/>
        <pt x="546" y="109" on="1"/>
        <pt x="511" y="66" on="0"/>
        <pt x="430" y="15" on="0"/>
        <pt x="392" y="15" on="1"/>
        <pt x="336" y="15" on="0"/>
        <pt x="278" y="81" on="0"/>
        <pt x="278" y="143" on="1"/>
        <pt x="278" y="161" on="0"/>
        <pt x="281" y="182" on="1"/>
      </contour>
      <contour>
        <pt x="418" y="91" on="1"/>
        <pt x="447" y="91" on="0"/>
        <pt x="513" y="137" on="0"/>
        <pt x="542" y="182" on="1"/>
        <pt x="564" y="363" on="1"/>
        <pt x="546" y="385" on="0"/>
        <pt x="493" y="412" on="0"/>
        <pt x="470" y="412" on="1"/>
        <pt x="436" y="412" on="0"/>
        <pt x="390" y="363" on="0"/>
        <pt x="382" y="308" on="1"/>
        <pt x="367" y="193" on="1"/>
        <pt x="365" y="184" on="0"/>
        <pt x="365" y="176" on="1"/>
        <pt x="365" y="161" on="1"/>
        <pt x="365" y="123" on="0"/>
        <pt x="393" y="91" on="0"/>
      </contour>
    </TTGlyph>
    <TTGlyph name="atilde" xMin="45" yMin="-12" xMax="444" yMax="685">
      <component glyphName="a" x="0" y="0" flags="0x204"/>
      <component glyphName="tilde" x="11" y="0" flags="0x4"/>
    </TTGlyph>
    <TTGlyph name="b" xMin="57" yMin="-12" xMax="435" yMax="683">
      <contour>
        <pt x="129" y="253" on="1"/>
        <pt x="131" y="251" on="1"/>
        <pt x="134" y="253" on="1"/>
        <pt x="169" y="373" on="0"/>
        <pt x="260" y="500" on="0"/>
        <pt x="322" y="500" on="1"/>
        <pt x="373" y="500" on="0"/>
        <pt x="435" y="433" on="0"/>
        <pt x="435" y="365" on="1"/>
        <pt x="435" y="350" on="0"/>
        <pt x="432" y="316" on="0"/>
        <pt x="428" y="297" on="1"/>
        <pt x="404" y="177" on="1"/>
        <pt x="393" y="126" on="0"/>
        <pt x="362" y="54" on="0"/>
        <pt x="317" y="9" on="0"/>
        <pt x="257" y="-12" on="0"/>
        <pt x="218" y="-12" on="1"/>
        <pt x="139" y="-12" on="0"/>
        <pt x="57" y="67" on="0"/>
        <pt x="57" y="141" on="1"/>
        <pt x="57" y="162" on="0"/>
        <pt x="60" y="185" on="1"/>
        <pt x="99" y="458" on="1"/>
        <pt x="109" y="528" on="0"/>
        <pt x="117" y="633" on="0"/>
        <pt x="119" y="683" on="1"/>
        <pt x="204" y="683" on="1"/>
        <pt x="203" y="645" on="0"/>
        <pt x="198" y="557" on="0"/>
        <pt x="192" y="514" on="1"/>
        <pt x="188" y="485" on="1"/>
      </contour>
      <contour>
        <pt x="302" y="424" on="1"/>
        <pt x="276" y="424" on="0"/>
        <pt x="225" y="374" on="0"/>
        <pt x="183" y="293" on="0"/>
        <pt x="151" y="192" on="0"/>
        <pt x="143" y="141" on="1"/>
        <pt x="142" y="101" on="0"/>
        <pt x="183" y="59" on="0"/>
        <pt x="218" y="59" on="1"/>
        <pt x="257" y="59" on="0"/>
        <pt x="305" y="105" on="0"/>
        <pt x="316" y="162" on="1"/>
        <pt x="343" y="292" on="1"/>
        <pt x="347" y="309" on="0"/>
        <pt x="350" y="339" on="0"/>
        <pt x="350" y="351" on="1"/>
        <pt x="350" y="390" on="0"/>
        <pt x="322" y="424" on="0"/>
      </contour>
    </TTGlyph>
    <TTGlyph name="backslash" xMin="115" yMin="0" xMax="405" yMax="683">
      <contour>
        <pt x="320" y="0" on="1"/>
        <pt x="115" y="683" on="1"/>
        <pt x="200" y="683" on="1"/>
        <pt x="405" y="0" on="1"/>
      </contour>
    </TTGlyph>
    <TTGlyph name="bar" xMin="161" yMin="-112" xMax="374" yMax="798">
      <contour>
        <pt x="161" y="-112" on="1"/>
        <pt x="289" y="798" on="1"/>
        <pt x="374" y="798" on="1"/>
        <pt x="246" y="-112" on="1"/>
      </contour>
    </TTGlyph>
    <TTGlyph name="braceleft" xMin="120" yMin="-119" xMax="449" yMax="786">
      <contour>
        <pt x="198" y="219" on="1"/>
        <pt x="201" y="235" on="0"/>
        <pt x="201" y="249" on="1"/>
        <pt x="201" y="277" on="0"/>
        <pt x="174" y="299" on="0"/>
        <pt x="145" y="299" on="1"/>
        <pt x="120" y="299" on="1"/>
        <pt x="129" y="369" on="1"/>
        <pt x="154" y="369" on="1"/>
        <pt x="190" y="369" on="0"/>
        <pt x="224" y="402" on="0"/>
        <pt x="231" y="449" on="1"/>
        <pt x="254" y="616" on="1"/>
        <pt x="261" y="664" on="0"/>
        <pt x="279" y="729" on="0"/>
        <pt x="308" y="769" on="0"/>
        <pt x="353" y="786" on="0"/>
        <pt x="387" y="786" on="1"/>
        <pt x="401" y="786" on="0"/>
        <pt x="431" y="783" on="0"/>
        <pt x="449" y="781" on="1"/>
        <pt x="439" y="709" on="1"/>
        <pt x="425" y="711" on="0"/>
        <pt x="404" y="713" on="0"/>
        <pt x="396" y="713" on="1"/>
        <pt x="383" y="713" on="0"/>
        <pt x="365" y="706" on="0"/>
        <pt x="353" y="688" on="0"/>
        <pt x="345" y="658" on="0"/>
        <pt x="342" y="635" on="1"/>
        <pt x="316" y="449" on="1"/>
        <pt x="308" y="398" on="0"/>
        <pt x="273" y="344" on="0"/>
        <pt x="241" y="334" on="1"/>
        <pt x="264" y="326" on="0"/>
        <pt x="286" y="290" on="0"/>
        <pt x="286" y="258" on="1"/>
        <pt x="286" y="241" on="0"/>
        <pt x="283" y="219" on="1"/>
        <pt x="258" y="40" on="1"/>
        <pt x="255" y="17" on="0"/>
        <pt x="255" y="1" on="1"/>
        <pt x="255" y="-30" on="0"/>
        <pt x="288" y="-49" on="0"/>
        <pt x="332" y="-49" on="1"/>
        <pt x="322" y="-119" on="1"/>
        <pt x="279" y="-119" on="0"/>
        <pt x="221" y="-110" on="0"/>
        <pt x="185" y="-86" on="0"/>
        <pt x="169" y="-46" on="0"/>
        <pt x="169" y="-14" on="1"/>
        <pt x="169" y="2" on="0"/>
        <pt x="173" y="39" on="0"/>
        <pt x="176" y="61" on="1"/>
      </contour>
    </TTGlyph>
    <TTGlyph name="braceright" xMin="83" yMin="-119" xMax="412" yMax="786">
      <contour>
        <pt x="334" y="448" on="1"/>
        <pt x="331" y="431" on="0"/>
        <pt x="331" y="418" on="1"/>
        <pt x="331" y="390" on="0"/>
        <pt x="358" y="368" on="0"/>
        <pt x="387" y="368" on="1"/>
        <pt x="412" y="368" on="1"/>
        <pt x="403" y="298" on="1"/>
        <pt x="378" y="298" on="1"/>
        <pt x="342" y="298" on="0"/>
        <pt x="308" y="265" on="0"/>
        <pt x="301" y="218" on="1"/>
        <pt x="278" y="51" on="1"/>
        <pt x="271" y="3" on="0"/>
        <pt x="253" y="-62" on="0"/>
        <pt x="224" y="-102" on="0"/>
        <pt x="179" y="-119" on="0"/>
        <pt x="145" y="-119" on="1"/>
        <pt x="131" y="-119" on="0"/>
        <pt x="101" y="-116" on="0"/>
        <pt x="83" y="-114" on="1"/>
        <pt x="93" y="-42" on="1"/>
        <pt x="107" y="-44" on="0"/>
        <pt x="128" y="-46" on="0"/>
        <pt x="136" y="-46" on="1"/>
        <pt x="149" y="-46" on="0"/>
        <pt x="167" y="-39" on="0"/>
        <pt x="179" y="-21" on="0"/>
        <pt x="187" y="9" on="0"/>
        <pt x="190" y="32" on="1"/>
        <pt x="216" y="218" on="1"/>
        <pt x="224" y="269" on="0"/>
        <pt x="259" y="323" on="0"/>
        <pt x="291" y="333" on="1"/>
        <pt x="268" y="341" on="0"/>
        <pt x="246" y="377" on="0"/>
        <pt x="246" y="409" on="1"/>
        <pt x="246" y="425" on="0"/>
        <pt x="249" y="448" on="1"/>
        <pt x="274" y="627" on="1"/>
        <pt x="277" y="649" on="0"/>
        <pt x="277" y="666" on="1"/>
        <pt x="277" y="697" on="0"/>
        <pt x="244" y="716" on="0"/>
        <pt x="200" y="716" on="1"/>
        <pt x="210" y="786" on="1"/>
        <pt x="253" y="786" on="0"/>
        <pt x="311" y="777" on="0"/>
        <pt x="347" y="753" on="0"/>
        <pt x="363" y="712" on="0"/>
        <pt x="363" y="681" on="1"/>
        <pt x="363" y="665" on="0"/>
        <pt x="359" y="628" on="0"/>
        <pt x="356" y="606" on="1"/>
      </contour>
    </TTGlyph>
    <TTGlyph name="bracketleft" xMin="100" yMin="-116" xMax="432" yMax="784">
      <contour>
        <pt x="100" y="-116" on="1"/>
        <pt x="227" y="784" on="1"/>
        <pt x="432" y="784" on="1"/>
        <pt x="422" y="714" on="1"/>
        <pt x="302" y="714" on="1"/>
        <pt x="195" y="-46" on="1"/>
        <pt x="315" y="-46" on="1"/>
        <pt x="305" y="-116" on="1"/>
      </contour>
    </TTGlyph>
    <TTGlyph name="bracketright" xMin="100" yMin="-116" xMax="432" yMax="784">
      <contour>
        <pt x="100" y="-116" on="1"/>
        <pt x="110" y="-46" on="1"/>
        <pt x="230" y="-46" on="1"/>
        <pt x="337" y="714" on="1"/>
        <pt x="217" y="714" on="1"/>
        <pt x="227" y="784" on="1"/>
        <pt x="432" y="784" on="1"/>
        <pt x="305" y="-116" on="1"/>
      </contour>
    </TTGlyph>
    <TTGlyph name="brokenbar" xMin="161" yMin="-112" xMax="374" yMax="798">
      <contour>
        <pt x="231" y="388" on="1"/>
        <pt x="289" y="798" on="1"/>
        <pt x="374" y="798" on="1"/>
        <pt x="316" y="388" on="1"/>
      </contour>
      <contour>
        <pt x="161" y="-112" on="1"/>
        <pt x="218" y="298" on="1"/>
        <pt x="303" y="298" on="1"/>
        <pt x="246" y="-112" on="1"/>
      </contour>
    </TTGlyph>
    <TTGlyph name="bullet" xMin="44" yMin="200" xMax="183" yMax="335">
      <contour>
        <pt x="174" y="249" on="1"/>
        <pt x="169" y="222" on="0"/>
        <pt x="141" y="200" on="0"/>
        <pt x="109" y="200" on="1"/>
        <pt x="80" y="200" on="0"/>
        <pt x="44" y="230" on="0"/>
        <pt x="49" y="256" on="1"/>
        <pt x="54" y="285" on="1"/>
        <pt x="58" y="311" on="0"/>
        <pt x="88" y="335" on="0"/>
        <pt x="118" y="335" on="1"/>
        <pt x="150" y="335" on="0"/>
        <pt x="183" y="304" on="0"/>
        <pt x="179" y="279" on="1"/>
      </contour>
    </TTGlyph>
    <TTGlyph name="c" xMin="50" yMin="-12" xMax="372" yMax="500">
      <contour>
        <pt x="196" y="-12" on="1"/>
        <pt x="126" y="-12" on="0"/>
        <pt x="50" y="62" on="0"/>
        <pt x="50" y="132" on="1"/>
        <pt x="50" y="152" on="0"/>
        <pt x="53" y="173" on="1"/>
        <pt x="74" y="321" on="1"/>
        <pt x="88" y="415" on="0"/>
        <pt x="180" y="500" on="0"/>
        <pt x="258" y="500" on="1"/>
        <pt x="284" y="500" on="0"/>
        <pt x="338" y="492" on="0"/>
        <pt x="372" y="482" on="1"/>
        <pt x="360" y="406" on="1"/>
        <pt x="301" y="428" on="0"/>
        <pt x="257" y="428" on="1"/>
        <pt x="218" y="428" on="0"/>
        <pt x="168" y="379" on="0"/>
        <pt x="160" y="328" on="1"/>
        <pt x="139" y="174" on="1"/>
        <pt x="137" y="165" on="0"/>
        <pt x="137" y="157" on="1"/>
        <pt x="137" y="142" on="1"/>
        <pt x="137" y="98" on="0"/>
        <pt x="175" y="63" on="0"/>
        <pt x="208" y="63" on="1"/>
        <pt x="236" y="63" on="0"/>
        <pt x="297" y="79" on="0"/>
        <pt x="326" y="96" on="1"/>
        <pt x="317" y="19" on="1"/>
        <pt x="285" y="4" on="0"/>
        <pt x="222" y="-12" on="0"/>
      </contour>
    </TTGlyph>
    <TTGlyph name="caron" xMin="147" yMin="546" xMax="416" yMax="690">
      <contour>
        <pt x="277" y="625" on="1"/>
        <pt x="416" y="690" on="1"/>
        <pt x="407" y="618" on="1"/>
        <pt x="266" y="546" on="1"/>
        <pt x="147" y="622" on="1"/>
        <pt x="156" y="690" on="1"/>
      </contour>
    </TTGlyph>
    <TTGlyph name="caron.cap" xMin="147" yMin="712" xMax="436" yMax="841">
      <contour>
        <pt x="290" y="792" on="1"/>
        <pt x="436" y="841" on="1"/>
        <pt x="427" y="773" on="1"/>
        <pt x="280" y="712" on="1"/>
        <pt x="147" y="773" on="1"/>
        <pt x="156" y="841" on="1"/>
      </contour>
    </TTGlyph>
    <TTGlyph name="ccedilla" xMin="50" yMin="-197" xMax="372" yMax="500">
      <contour>
        <pt x="317" y="19" on="1"/>
        <pt x="287" y="5" on="0"/>
        <pt x="228" y="-10" on="0"/>
        <pt x="202" y="-12" on="1"/>
        <pt x="190" y="-41" on="1"/>
        <pt x="192" y="-41" on="1"/>
        <pt x="220" y="-41" on="0"/>
        <pt x="252" y="-80" on="0"/>
        <pt x="248" y="-112" on="1"/>
        <pt x="247" y="-121" on="1"/>
        <pt x="242" y="-157" on="0"/>
        <pt x="197" y="-197" on="0"/>
        <pt x="152" y="-197" on="1"/>
        <pt x="140" y="-197" on="0"/>
        <pt x="106" y="-192" on="0"/>
        <pt x="93" y="-188" on="1"/>
        <pt x="100" y="-133" on="1"/>
        <pt x="123" y="-143" on="0"/>
        <pt x="145" y="-143" on="1"/>
        <pt x="162" y="-143" on="0"/>
        <pt x="178" y="-130" on="0"/>
        <pt x="180" y="-120" on="1"/>
        <pt x="181" y="-113" on="1"/>
        <pt x="181" y="-107" on="1"/>
        <pt x="181" y="-80" on="0"/>
        <pt x="147" y="-80" on="1"/>
        <pt x="121" y="-80" on="1"/>
        <pt x="124" y="-60" on="1"/>
        <pt x="148" y="-7" on="1"/>
        <pt x="100" y="4" on="0"/>
        <pt x="50" y="75" on="0"/>
        <pt x="50" y="132" on="1"/>
        <pt x="50" y="152" on="0"/>
        <pt x="53" y="173" on="1"/>
        <pt x="74" y="321" on="1"/>
        <pt x="88" y="415" on="0"/>
        <pt x="180" y="500" on="0"/>
        <pt x="258" y="500" on="1"/>
        <pt x="284" y="500" on="0"/>
        <pt x="338" y="492" on="0"/>
        <pt x="372" y="482" on="1"/>
        <pt x="360" y="406" on="1"/>
        <pt x="301" y="428" on="0"/>
        <pt x="257" y="428" on="1"/>
        <pt x="218" y="428" on="0"/>
        <pt x="168" y="379" on="0"/>
        <pt x="160" y="328" on="1"/>
        <pt x="139" y="174" on="1"/>
        <pt x="137" y="165" on="0"/>
        <pt x="137" y="157" on="1"/>
        <pt x="137" y="142" on="1"/>
        <pt x="137" y="98" on="0"/>
        <pt x="175" y="63" on="0"/>
        <pt x="208" y="63" on="1"/>
        <pt x="236" y="63" on="0"/>
        <pt x="297" y="79" on="0"/>
        <pt x="326" y="96" on="1"/>
      </contour>
    </TTGlyph>
    <TTGlyph name="cedilla" xMin="-21" yMin="-197" xMax="138" yMax="28">
      <contour>
        <pt x="76" y="-41" on="1"/>
        <pt x="78" y="-41" on="1"/>
        <pt x="106" y="-41" on="0"/>
        <pt x="138" y="-80" on="0"/>
        <pt x="134" y="-112" on="1"/>
        <pt x="133" y="-121" on="1"/>
        <pt x="128" y="-157" on="0"/>
        <pt x="83" y="-197" on="0"/>
        <pt x="38" y="-197" on="1"/>
        <pt x="26" y="-197" on="0"/>
        <pt x="-8" y="-192" on="0"/>
        <pt x="-21" y="-188" on="1"/>
        <pt x="-14" y="-133" on="1"/>
        <pt x="9" y="-143" on="0"/>
        <pt x="31" y="-143" on="1"/>
        <pt x="48" y="-143" on="0"/>
        <pt x="64" y="-130" on="0"/>
        <pt x="66" y="-120" on="1"/>
        <pt x="67" y="-113" on="1"/>
        <pt x="67" y="-107" on="1"/>
        <pt x="67" y="-80" on="0"/>
        <pt x="33" y="-80" on="1"/>
        <pt x="7" y="-80" on="1"/>
        <pt x="10" y="-60" on="1"/>
        <pt x="51" y="28" on="1"/>
        <pt x="106" y="28" on="1"/>
      </contour>
    </TTGlyph>
    <TTGlyph name="cent" xMin="50" yMin="-88" xMax="372" yMax="576">
      <contour>
        <pt x="146" y="-88" on="1"/>
        <pt x="157" y="-8" on="1"/>
        <pt x="105" y="1" on="0"/>
        <pt x="50" y="71" on="0"/>
        <pt x="50" y="131" on="1"/>
        <pt x="50" y="150" on="0"/>
        <pt x="53" y="173" on="1"/>
        <pt x="74" y="321" on="1"/>
        <pt x="86" y="405" on="0"/>
        <pt x="164" y="490" on="0"/>
        <pt x="228" y="498" on="1"/>
        <pt x="239" y="576" on="1"/>
        <pt x="314" y="576" on="1"/>
        <pt x="303" y="497" on="1"/>
        <pt x="319" y="495" on="0"/>
        <pt x="352" y="487" on="0"/>
        <pt x="372" y="482" on="1"/>
        <pt x="360" y="406" on="1"/>
        <pt x="301" y="428" on="0"/>
        <pt x="257" y="428" on="1"/>
        <pt x="218" y="428" on="0"/>
        <pt x="168" y="379" on="0"/>
        <pt x="160" y="328" on="1"/>
        <pt x="139" y="174" on="1"/>
        <pt x="137" y="165" on="0"/>
        <pt x="137" y="157" on="1"/>
        <pt x="137" y="142" on="1"/>
        <pt x="137" y="98" on="0"/>
        <pt x="175" y="63" on="0"/>
        <pt x="208" y="63" on="1"/>
        <pt x="236" y="63" on="0"/>
        <pt x="297" y="79" on="0"/>
        <pt x="326" y="96" on="1"/>
        <pt x="317" y="19" on="1"/>
        <pt x="274" y="-2" on="0"/>
        <pt x="232" y="-8" on="1"/>
        <pt x="221" y="-88" on="1"/>
      </contour>
    </TTGlyph>
    <TTGlyph name="circumflex" xMin="136" yMin="546" xMax="406" yMax="690">
      <contour>
        <pt x="136" y="546" on="1"/>
        <pt x="146" y="618" on="1"/>
        <pt x="286" y="690" on="1"/>
        <pt x="406" y="614" on="1"/>
        <pt x="396" y="546" on="1"/>
        <pt x="275" y="611" on="1"/>
      </contour>
    </TTGlyph>
    <TTGlyph name="circumflex.cap" xMin="140" yMin="711" xMax="428" yMax="840">
      <contour>
        <pt x="140" y="711" on="1"/>
        <pt x="148" y="779" on="1"/>
        <pt x="296" y="840" on="1"/>
        <pt x="428" y="779" on="1"/>
        <pt x="420" y="711" on="1"/>
        <pt x="286" y="760" on="1"/>
      </contour>
    </TTGlyph>
    <TTGlyph name="colon" xMin="16" yMin="-12" xMax="182" yMax="500">
      <component glyphName="period" x="0" y="0" flags="0x204"/>
      <component glyphName="period" x="45" y="392" flags="0x4"/>
    </TTGlyph>
    <TTGlyph name="comma" xMin="-8" yMin="-161" xMax="134" yMax="108">
      <contour>
        <pt x="130" y="30" on="1"/>
        <pt x="128" y="15" on="0"/>
        <pt x="121" y="-7" on="0"/>
        <pt x="116" y="-19" on="1"/>
        <pt x="52" y="-161" on="1"/>
        <pt x="-8" y="-161" on="1"/>
        <pt x="49" y="-9" on="1"/>
        <pt x="34" y="-6" on="0"/>
        <pt x="19" y="16" on="0"/>
        <pt x="19" y="30" on="1"/>
        <pt x="19" y="32" on="0"/>
        <pt x="20" y="43" on="0"/>
        <pt x="23" y="66" on="1"/>
        <pt x="29" y="108" on="0"/>
        <pt x="81" y="108" on="1"/>
        <pt x="106" y="108" on="0"/>
        <pt x="134" y="87" on="0"/>
        <pt x="134" y="68" on="1"/>
        <pt x="134" y="66" on="0"/>
        <pt x="133" y="55" on="0"/>
      </contour>
    </TTGlyph>
    <TTGlyph name="commaaccent" xMin="107" yMin="-83" xMax="206" yMax="87">
      <contour>
        <pt x="202" y="21" on="1"/>
        <pt x="200" y="8" on="0"/>
        <pt x="193" y="-11" on="0"/>
        <pt x="187" y="-24" on="1"/>
        <pt x="159" y="-83" on="1"/>
        <pt x="107" y="-83" on="1"/>
        <pt x="133" y="-12" on="1"/>
        <pt x="108" y="-3" on="0"/>
        <pt x="108" y="21" on="1"/>
        <pt x="108" y="23" on="0"/>
        <pt x="109" y="28" on="0"/>
        <pt x="109" y="30" on="1"/>
        <pt x="112" y="50" on="1"/>
        <pt x="115" y="69" on="0"/>
        <pt x="135" y="87" on="0"/>
        <pt x="158" y="87" on="1"/>
        <pt x="206" y="87" on="0"/>
        <pt x="206" y="51" on="1"/>
        <pt x="206" y="44" on="0"/>
        <pt x="205" y="41" on="1"/>
      </contour>
    </TTGlyph>
    <TTGlyph name="copyright" xMin="55" yMin="-15" xMax="593" yMax="616">
      <contour>
        <pt x="564" y="193" on="1"/>
        <pt x="550" y="90" on="0"/>
        <pt x="421" y="-15" on="0"/>
        <pt x="294" y="-15" on="1"/>
        <pt x="233" y="-15" on="0"/>
        <pt x="143" y="13" on="0"/>
        <pt x="84" y="63" on="0"/>
        <pt x="55" y="133" on="0"/>
        <pt x="55" y="174" on="1"/>
        <pt x="55" y="191" on="0"/>
        <pt x="58" y="211" on="1"/>
        <pt x="85" y="408" on="1"/>
        <pt x="99" y="514" on="0"/>
        <pt x="231" y="616" on="0"/>
        <pt x="356" y="616" on="1"/>
        <pt x="475" y="616" on="0"/>
        <pt x="593" y="510" on="0"/>
        <pt x="593" y="425" on="1"/>
        <pt x="593" y="408" on="1"/>
        <pt x="593" y="399" on="0"/>
        <pt x="591" y="390" on="1"/>
      </contour>
      <contour>
        <pt x="521" y="397" on="1"/>
        <pt x="522" y="404" on="0"/>
        <pt x="523" y="416" on="0"/>
        <pt x="523" y="422" on="1"/>
        <pt x="523" y="482" on="0"/>
        <pt x="437" y="550" on="0"/>
        <pt x="354" y="550" on="1"/>
        <pt x="266" y="550" on="0"/>
        <pt x="167" y="481" on="0"/>
        <pt x="158" y="416" on="1"/>
        <pt x="129" y="204" on="1"/>
        <pt x="128" y="198" on="0"/>
        <pt x="127" y="186" on="0"/>
        <pt x="127" y="180" on="1"/>
        <pt x="127" y="120" on="0"/>
        <pt x="214" y="51" on="0"/>
        <pt x="297" y="51" on="1"/>
        <pt x="385" y="51" on="0"/>
        <pt x="483" y="121" on="0"/>
        <pt x="492" y="185" on="1"/>
      </contour>
      <contour>
        <pt x="313" y="129" on="1"/>
        <pt x="256" y="129" on="0"/>
        <pt x="195" y="190" on="0"/>
        <pt x="195" y="249" on="1"/>
        <pt x="195" y="267" on="0"/>
        <pt x="198" y="287" on="1"/>
        <pt x="206" y="343" on="1"/>
        <pt x="217" y="417" on="0"/>
        <pt x="288" y="480" on="0"/>
        <pt x="355" y="480" on="1"/>
        <pt x="374" y="480" on="0"/>
        <pt x="416" y="473" on="0"/>
        <pt x="433" y="468" on="1"/>
        <pt x="422" y="400" on="1"/>
        <pt x="383" y="414" on="0"/>
        <pt x="354" y="414" on="1"/>
        <pt x="326" y="414" on="0"/>
        <pt x="291" y="380" on="0"/>
        <pt x="286" y="338" on="1"/>
        <pt x="279" y="283" on="1"/>
        <pt x="278" y="276" on="0"/>
        <pt x="277" y="264" on="0"/>
        <pt x="277" y="258" on="1"/>
        <pt x="277" y="226" on="0"/>
        <pt x="302" y="197" on="0"/>
        <pt x="322" y="197" on="1"/>
        <pt x="344" y="197" on="0"/>
        <pt x="381" y="204" on="0"/>
        <pt x="401" y="212" on="1"/>
        <pt x="394" y="146" on="1"/>
        <pt x="368" y="136" on="0"/>
        <pt x="332" y="129" on="0"/>
      </contour>
    </TTGlyph>
    <TTGlyph name="currency" xMin="25" yMin="93" xMax="500" yMax="523">
      <contour>
        <pt x="392" y="93" on="1"/>
        <pt x="338" y="156" on="1"/>
        <pt x="294" y="132" on="0"/>
        <pt x="236" y="132" on="1"/>
        <pt x="179" y="132" on="0"/>
        <pt x="142" y="154" on="1"/>
        <pt x="74" y="93" on="1"/>
        <pt x="25" y="149" on="1"/>
        <pt x="96" y="210" on="1"/>
        <pt x="84" y="238" on="0"/>
        <pt x="84" y="273" on="1"/>
        <pt x="84" y="280" on="0"/>
        <pt x="85" y="295" on="0"/>
        <pt x="86" y="303" on="1"/>
        <pt x="89" y="323" on="1"/>
        <pt x="93" y="349" on="0"/>
        <pt x="107" y="390" on="0"/>
        <pt x="120" y="410" on="1"/>
        <pt x="70" y="467" on="1"/>
        <pt x="134" y="523" on="1"/>
        <pt x="180" y="468" on="1"/>
        <pt x="227" y="494" on="0"/>
        <pt x="287" y="494" on="1"/>
        <pt x="349" y="494" on="0"/>
        <pt x="388" y="466" on="1"/>
        <pt x="452" y="523" on="1"/>
        <pt x="500" y="467" on="1"/>
        <pt x="431" y="407" on="1"/>
        <pt x="435" y="395" on="0"/>
        <pt x="439" y="371" on="0"/>
        <pt x="439" y="357" on="1"/>
        <pt x="439" y="341" on="0"/>
        <pt x="436" y="323" on="1"/>
        <pt x="433" y="303" on="1"/>
        <pt x="429" y="275" on="0"/>
        <pt x="413" y="233" on="0"/>
        <pt x="399" y="213" on="1"/>
        <pt x="455" y="149" on="1"/>
      </contour>
      <contour>
        <pt x="354" y="323" on="1"/>
        <pt x="355" y="329" on="0"/>
        <pt x="356" y="341" on="0"/>
        <pt x="356" y="346" on="1"/>
        <pt x="356" y="379" on="0"/>
        <pt x="320" y="421" on="0"/>
        <pt x="277" y="421" on="1"/>
        <pt x="227" y="421" on="0"/>
        <pt x="177" y="365" on="0"/>
        <pt x="171" y="323" on="1"/>
        <pt x="168" y="303" on="1"/>
        <pt x="167" y="297" on="0"/>
        <pt x="166" y="285" on="0"/>
        <pt x="166" y="280" on="1"/>
        <pt x="166" y="247" on="0"/>
        <pt x="202" y="204" on="0"/>
        <pt x="246" y="204" on="1"/>
        <pt x="296" y="204" on="0"/>
        <pt x="345" y="261" on="0"/>
        <pt x="351" y="303" on="1"/>
      </contour>
    </TTGlyph>
    <TTGlyph name="d" xMin="47" yMin="-12" xMax="473" yMax="683">
      <contour>
        <pt x="78" y="331" on="1"/>
        <pt x="92" y="418" on="0"/>
        <pt x="178" y="500" on="0"/>
        <pt x="237" y="500" on="1"/>
        <pt x="270" y="500" on="0"/>
        <pt x="331" y="469" on="0"/>
        <pt x="355" y="443" on="1"/>
        <pt x="388" y="683" on="1"/>
        <pt x="473" y="683" on="1"/>
        <pt x="378" y="0" on="1"/>
        <pt x="297" y="0" on="1"/>
        <pt x="306" y="65" on="1"/>
        <pt x="347" y="190" on="1"/>
        <pt x="345" y="192" on="1"/>
        <pt x="342" y="191" on="1"/>
        <pt x="306" y="83" on="0"/>
        <pt x="212" y="-12" on="0"/>
        <pt x="158" y="-12" on="1"/>
        <pt x="110" y="-12" on="0"/>
        <pt x="47" y="54" on="0"/>
        <pt x="47" y="118" on="1"/>
        <pt x="47" y="129" on="0"/>
        <pt x="49" y="152" on="0"/>
        <pt x="51" y="164" on="1"/>
      </contour>
      <contour>
        <pt x="182" y="64" on="1"/>
        <pt x="212" y="64" on="0"/>
        <pt x="263" y="107" on="0"/>
        <pt x="303" y="173" on="0"/>
        <pt x="328" y="250" on="0"/>
        <pt x="333" y="284" on="1"/>
        <pt x="345" y="374" on="1"/>
        <pt x="325" y="398" on="0"/>
        <pt x="276" y="424" on="0"/>
        <pt x="250" y="424" on="1"/>
        <pt x="216" y="424" on="0"/>
        <pt x="171" y="378" on="0"/>
        <pt x="162" y="322" on="1"/>
        <pt x="138" y="175" on="1"/>
        <pt x="136" y="161" on="0"/>
        <pt x="133" y="137" on="0"/>
        <pt x="133" y="127" on="1"/>
        <pt x="133" y="92" on="0"/>
        <pt x="159" y="64" on="0"/>
      </contour>
    </TTGlyph>
    <TTGlyph name="degree" xMin="104" yMin="327" xMax="444" yMax="695">
      <contour>
        <pt x="438" y="492" on="1"/>
        <pt x="426" y="407" on="0"/>
        <pt x="339" y="327" on="0"/>
        <pt x="256" y="327" on="1"/>
        <pt x="183" y="327" on="0"/>
        <pt x="104" y="403" on="0"/>
        <pt x="104" y="471" on="1"/>
        <pt x="104" y="488" on="0"/>
        <pt x="107" y="508" on="1"/>
        <pt x="110" y="530" on="1"/>
        <pt x="122" y="615" on="0"/>
        <pt x="209" y="695" on="0"/>
        <pt x="292" y="695" on="1"/>
        <pt x="365" y="695" on="0"/>
        <pt x="444" y="619" on="0"/>
        <pt x="444" y="551" on="1"/>
        <pt x="444" y="533" on="0"/>
        <pt x="441" y="514" on="1"/>
      </contour>
      <contour>
        <pt x="360" y="517" on="1"/>
        <pt x="361" y="524" on="0"/>
        <pt x="362" y="537" on="0"/>
        <pt x="362" y="543" on="1"/>
        <pt x="362" y="583" on="0"/>
        <pt x="322" y="624" on="0"/>
        <pt x="287" y="624" on="1"/>
        <pt x="245" y="624" on="0"/>
        <pt x="198" y="578" on="0"/>
        <pt x="191" y="527" on="1"/>
        <pt x="188" y="505" on="1"/>
        <pt x="187" y="498" on="0"/>
        <pt x="186" y="486" on="0"/>
        <pt x="186" y="480" on="1"/>
        <pt x="186" y="445" on="0"/>
        <pt x="220" y="398" on="0"/>
        <pt x="261" y="398" on="1"/>
        <pt x="308" y="398" on="0"/>
        <pt x="351" y="452" on="0"/>
        <pt x="357" y="495" on="1"/>
      </contour>
    </TTGlyph>
    <TTGlyph name="dieresis" xMin="119" yMin="577" xMax="410" yMax="695">
      <contour>
        <pt x="231" y="619" on="1"/>
        <pt x="228" y="598" on="0"/>
        <pt x="202" y="577" on="0"/>
        <pt x="175" y="577" on="1"/>
        <pt x="149" y="577" on="0"/>
        <pt x="119" y="603" on="0"/>
        <pt x="122" y="624" on="1"/>
        <pt x="126" y="652" on="1"/>
        <pt x="132" y="695" on="0"/>
        <pt x="183" y="695" on="1"/>
        <pt x="210" y="695" on="0"/>
        <pt x="238" y="671" on="0"/>
        <pt x="235" y="648" on="1"/>
      </contour>
      <contour>
        <pt x="403" y="619" on="1"/>
        <pt x="397" y="577" on="0"/>
        <pt x="347" y="577" on="1"/>
        <pt x="321" y="577" on="0"/>
        <pt x="291" y="603" on="0"/>
        <pt x="294" y="624" on="1"/>
        <pt x="298" y="652" on="1"/>
        <pt x="304" y="695" on="0"/>
        <pt x="355" y="695" on="1"/>
        <pt x="381" y="695" on="0"/>
        <pt x="410" y="671" on="0"/>
        <pt x="407" y="648" on="1"/>
      </contour>
    </TTGlyph>
    <TTGlyph name="dieresis.cap" xMin="128" yMin="710" xMax="417" yMax="828">
      <contour>
        <pt x="239" y="752" on="1"/>
        <pt x="237" y="731" on="0"/>
        <pt x="211" y="710" on="0"/>
        <pt x="184" y="710" on="1"/>
        <pt x="158" y="710" on="0"/>
        <pt x="128" y="736" on="0"/>
        <pt x="130" y="757" on="1"/>
        <pt x="134" y="785" on="1"/>
        <pt x="138" y="828" on="0"/>
        <pt x="190" y="828" on="1"/>
        <pt x="217" y="828" on="0"/>
        <pt x="245" y="804" on="0"/>
        <pt x="243" y="781" on="1"/>
      </contour>
      <contour>
        <pt x="411" y="752" on="1"/>
        <pt x="406" y="710" on="0"/>
        <pt x="356" y="710" on="1"/>
        <pt x="330" y="710" on="0"/>
        <pt x="300" y="736" on="0"/>
        <pt x="302" y="757" on="1"/>
        <pt x="306" y="785" on="1"/>
        <pt x="310" y="828" on="0"/>
        <pt x="362" y="828" on="1"/>
        <pt x="388" y="828" on="0"/>
        <pt x="417" y="804" on="0"/>
        <pt x="415" y="781" on="1"/>
      </contour>
    </TTGlyph>
    <TTGlyph name="divide" xMin="80" yMin="111" xMax="444" yMax="489">
      <contour>
        <pt x="80" y="265" on="1"/>
        <pt x="90" y="335" on="1"/>
        <pt x="444" y="335" on="1"/>
        <pt x="434" y="265" on="1"/>
      </contour>
      <contour>
        <pt x="328" y="421" on="1"/>
        <pt x="324" y="385" on="0"/>
        <pt x="277" y="385" on="1"/>
        <pt x="254" y="385" on="0"/>
        <pt x="229" y="407" on="0"/>
        <pt x="232" y="427" on="1"/>
        <pt x="235" y="452" on="1"/>
        <pt x="241" y="489" on="0"/>
        <pt x="286" y="489" on="1"/>
        <pt x="310" y="489" on="0"/>
        <pt x="334" y="467" on="0"/>
        <pt x="332" y="447" on="1"/>
      </contour>
      <contour>
        <pt x="289" y="147" on="1"/>
        <pt x="285" y="111" on="0"/>
        <pt x="238" y="111" on="1"/>
        <pt x="215" y="111" on="0"/>
        <pt x="190" y="133" on="0"/>
        <pt x="193" y="153" on="1"/>
        <pt x="196" y="178" on="1"/>
        <pt x="202" y="215" on="0"/>
        <pt x="247" y="215" on="1"/>
        <pt x="271" y="215" on="0"/>
        <pt x="295" y="193" on="0"/>
        <pt x="293" y="173" on="1"/>
      </contour>
    </TTGlyph>
    <TTGlyph name="dollar" xMin="60" yMin="-94" xMax="449" yMax="695">
      <contour>
        <pt x="172" y="-94" on="1"/>
        <pt x="183" y="-11" on="1"/>
        <pt x="153" y="-8" on="0"/>
        <pt x="86" y="8" on="0"/>
        <pt x="60" y="19" on="1"/>
        <pt x="71" y="97" on="1"/>
        <pt x="100" y="85" on="0"/>
        <pt x="165" y="67" on="0"/>
        <pt x="192" y="62" on="1"/>
        <pt x="198" y="61" on="0"/>
        <pt x="203" y="61" on="1"/>
        <pt x="214" y="61" on="1"/>
        <pt x="281" y="61" on="0"/>
        <pt x="339" y="100" on="0"/>
        <pt x="342" y="139" on="1"/>
        <pt x="343" y="152" on="0"/>
        <pt x="343" y="156" on="1"/>
        <pt x="343" y="162" on="1"/>
        <pt x="343" y="193" on="0"/>
        <pt x="309" y="235" on="0"/>
        <pt x="267" y="250" on="1"/>
        <pt x="211" y="270" on="1"/>
        <pt x="146" y="293" on="0"/>
        <pt x="91" y="367" on="0"/>
        <pt x="91" y="421" on="1"/>
        <pt x="91" y="445" on="0"/>
        <pt x="95" y="468" on="1"/>
        <pt x="96" y="474" on="1"/>
        <pt x="106" y="538" on="0"/>
        <pt x="187" y="607" on="0"/>
        <pt x="271" y="612" on="1"/>
        <pt x="283" y="695" on="1"/>
        <pt x="358" y="695" on="1"/>
        <pt x="346" y="609" on="1"/>
        <pt x="373" y="606" on="0"/>
        <pt x="426" y="593" on="0"/>
        <pt x="449" y="585" on="1"/>
        <pt x="436" y="509" on="1"/>
        <pt x="407" y="518" on="0"/>
        <pt x="350" y="534" on="0"/>
        <pt x="324" y="539" on="1"/>
        <pt x="317" y="540" on="0"/>
        <pt x="308" y="540" on="1"/>
        <pt x="294" y="540" on="1"/>
        <pt x="240" y="540" on="0"/>
        <pt x="187" y="499" on="0"/>
        <pt x="181" y="463" on="1"/>
        <pt x="180" y="457" on="1"/>
        <pt x="179" y="450" on="0"/>
        <pt x="178" y="439" on="0"/>
        <pt x="178" y="433" on="1"/>
        <pt x="178" y="370" on="0"/>
        <pt x="244" y="348" on="1"/>
        <pt x="304" y="327" on="1"/>
        <pt x="370" y="304" on="0"/>
        <pt x="431" y="227" on="0"/>
        <pt x="431" y="174" on="1"/>
        <pt x="431" y="158" on="0"/>
        <pt x="428" y="142" on="1"/>
        <pt x="427" y="135" on="1"/>
        <pt x="422" y="103" on="0"/>
        <pt x="400" y="53" on="0"/>
        <pt x="361" y="17" on="0"/>
        <pt x="301" y="-5" on="0"/>
        <pt x="258" y="-9" on="1"/>
        <pt x="247" y="-94" on="1"/>
      </contour>
    </TTGlyph>
    <TTGlyph name="dotaccentcmb" xMin="123" yMin="709" xMax="242" yMax="829">
      <contour>
        <pt x="236" y="751" on="1"/>
        <pt x="232" y="709" on="0"/>
        <pt x="179" y="709" on="1"/>
        <pt x="153" y="709" on="0"/>
        <pt x="123" y="735" on="0"/>
        <pt x="125" y="757" on="1"/>
        <pt x="129" y="786" on="1"/>
        <pt x="133" y="829" on="0"/>
        <pt x="186" y="829" on="1"/>
        <pt x="213" y="829" on="0"/>
        <pt x="242" y="803" on="0"/>
        <pt x="240" y="780" on="1"/>
      </contour>
    </TTGlyph>
    <TTGlyph name="dotaccentcmb.cap" xMin="123" yMin="709" xMax="242" yMax="829">
      <contour>
        <pt x="236" y="751" on="1"/>
        <pt x="232" y="709" on="0"/>
        <pt x="179" y="709" on="1"/>
        <pt x="153" y="709" on="0"/>
        <pt x="123" y="735" on="0"/>
        <pt x="125" y="757" on="1"/>
        <pt x="129" y="786" on="1"/>
        <pt x="133" y="829" on="0"/>
        <pt x="186" y="829" on="1"/>
        <pt x="213" y="829" on="0"/>
        <pt x="242" y="803" on="0"/>
        <pt x="240" y="780" on="1"/>
      </contour>
    </TTGlyph>
    <TTGlyph name="dotlessi" xMin="40" yMin="0" xMax="194" yMax="488">
      <contour>
        <pt x="40" y="0" on="1"/>
        <pt x="109" y="488" on="1"/>
        <pt x="194" y="488" on="1"/>
        <pt x="125" y="0" on="1"/>
      </contour>
    </TTGlyph>
    <TTGlyph name="dotlessj" xMin="-119" yMin="-197" xMax="188" yMax="488">
      <contour>
        <pt x="112" y="-51" on="1"/>
        <pt x="101" y="-128" on="0"/>
        <pt x="31" y="-197" on="0"/>
        <pt x="-38" y="-197" on="1"/>
        <pt x="-58" y="-197" on="0"/>
        <pt x="-105" y="-190" on="0"/>
        <pt x="-119" y="-185" on="1"/>
        <pt x="-109" y="-112" on="1"/>
        <pt x="-97" y="-117" on="0"/>
        <pt x="-56" y="-124" on="0"/>
        <pt x="-37" y="-124" on="1"/>
        <pt x="-11" y="-124" on="0"/>
        <pt x="18" y="-102" on="0"/>
        <pt x="24" y="-73" on="1"/>
        <pt x="26" y="-59" on="1"/>
        <pt x="103" y="488" on="1"/>
        <pt x="188" y="488" on="1"/>
      </contour>
    </TTGlyph>
    <TTGlyph name="e" xMin="50" yMin="-12" xMax="415" yMax="500">
      <contour>
        <pt x="414" y="375" on="1"/>
        <pt x="414" y="338" on="0"/>
        <pt x="383" y="271" on="0"/>
        <pt x="316" y="217" on="0"/>
        <pt x="211" y="179" on="0"/>
        <pt x="136" y="173" on="1"/>
        <pt x="134" y="159" on="1"/>
        <pt x="131" y="142" on="0"/>
        <pt x="131" y="130" on="1"/>
        <pt x="131" y="93" on="0"/>
        <pt x="171" y="63" on="0"/>
        <pt x="211" y="63" on="1"/>
        <pt x="240" y="63" on="0"/>
        <pt x="315" y="84" on="0"/>
        <pt x="349" y="101" on="1"/>
        <pt x="334" y="23" on="1"/>
        <pt x="300" y="7" on="0"/>
        <pt x="223" y="-12" on="0"/>
        <pt x="193" y="-12" on="1"/>
        <pt x="121" y="-12" on="0"/>
        <pt x="50" y="66" on="0"/>
        <pt x="50" y="135" on="1"/>
        <pt x="50" y="155" on="0"/>
        <pt x="53" y="179" on="1"/>
        <pt x="66" y="268" on="1"/>
        <pt x="75" y="326" on="0"/>
        <pt x="112" y="413" on="0"/>
        <pt x="166" y="471" on="0"/>
        <pt x="234" y="500" on="0"/>
        <pt x="272" y="500" on="1"/>
        <pt x="341" y="500" on="0"/>
        <pt x="415" y="433" on="0"/>
      </contour>
      <contour>
        <pt x="145" y="227" on="1"/>
        <pt x="211" y="237" on="0"/>
        <pt x="253" y="254" on="1"/>
        <pt x="294" y="282" on="0"/>
        <pt x="330" y="336" on="0"/>
        <pt x="330" y="367" on="1"/>
        <pt x="330" y="397" on="0"/>
        <pt x="296" y="429" on="0"/>
        <pt x="269" y="429" on="1"/>
        <pt x="231" y="429" on="0"/>
        <pt x="164" y="352" on="0"/>
        <pt x="152" y="272" on="1"/>
      </contour>
    </TTGlyph>
    <TTGlyph name="eacute" xMin="50" yMin="-12" xMax="415" yMax="685">
      <component glyphName="e" x="0" y="0" flags="0x204"/>
      <component glyphName="acute" x="89" y="0" flags="0x4"/>
    </TTGlyph>
    <TTGlyph name="ecircumflex" xMin="50" yMin="-12" xMax="417" yMax="690">
      <component glyphName="e" x="0" y="0" flags="0x204"/>
      <component glyphName="circumflex" x="11" y="0" flags="0x4"/>
    </TTGlyph>
    <TTGlyph name="edieresis" xMin="50" yMin="-12" xMax="437" yMax="695">
      <component glyphName="e" x="0" y="0" flags="0x204"/>
      <component glyphName="dieresis" x="27" y="0" flags="0x4"/>
    </TTGlyph>
    <TTGlyph name="egrave" xMin="50" yMin="-12" xMax="415" yMax="685">
      <component glyphName="e" x="0" y="0" flags="0x204"/>
      <component glyphName="grave" x="46" y="0" flags="0x4"/>
    </TTGlyph>
    <TTGlyph name="eight" xMin="45" yMin="-12" xMax="454" yMax="613">
      <contour>
        <pt x="365" y="319" on="1"/>
        <pt x="403" y="301" on="0"/>
        <pt x="441" y="236" on="0"/>
        <pt x="441" y="194" on="1"/>
        <pt x="441" y="182" on="1"/>
        <pt x="441" y="176" on="0"/>
        <pt x="440" y="170" on="1"/>
        <pt x="438" y="154" on="1"/>
        <pt x="428" y="76" on="0"/>
        <pt x="323" y="-12" on="0"/>
        <pt x="229" y="-12" on="1"/>
        <pt x="141" y="-12" on="0"/>
        <pt x="45" y="71" on="0"/>
        <pt x="45" y="140" on="1"/>
        <pt x="45" y="147" on="0"/>
        <pt x="46" y="160" on="0"/>
        <pt x="47" y="167" on="1"/>
        <pt x="49" y="182" on="1"/>
        <pt x="56" y="233" on="0"/>
        <pt x="112" y="304" on="0"/>
        <pt x="166" y="324" on="1"/>
        <pt x="139" y="340" on="0"/>
        <pt x="110" y="398" on="0"/>
        <pt x="110" y="433" on="1"/>
        <pt x="110" y="441" on="0"/>
        <pt x="112" y="457" on="0"/>
        <pt x="114" y="469" on="1"/>
        <pt x="126" y="542" on="0"/>
        <pt x="213" y="613" on="0"/>
        <pt x="293" y="613" on="1"/>
        <pt x="368" y="613" on="0"/>
        <pt x="454" y="535" on="0"/>
        <pt x="454" y="474" on="1"/>
        <pt x="454" y="467" on="0"/>
        <pt x="453" y="451" on="0"/>
        <pt x="451" y="439" on="1"/>
        <pt x="443" y="396" on="0"/>
        <pt x="403" y="338" on="0"/>
      </contour>
      <contour>
        <pt x="354" y="175" on="1"/>
        <pt x="355" y="181" on="0"/>
        <pt x="356" y="192" on="0"/>
        <pt x="356" y="197" on="1"/>
        <pt x="356" y="239" on="0"/>
        <pt x="305" y="287" on="0"/>
        <pt x="256" y="287" on="1"/>
        <pt x="201" y="287" on="0"/>
        <pt x="143" y="228" on="0"/>
        <pt x="135" y="180" on="1"/>
        <pt x="134" y="175" on="0"/>
        <pt x="132" y="163" on="0"/>
        <pt x="132" y="151" on="1"/>
        <pt x="132" y="109" on="0"/>
        <pt x="185" y="59" on="0"/>
        <pt x="232" y="59" on="1"/>
        <pt x="286" y="59" on="0"/>
        <pt x="344" y="109" on="0"/>
        <pt x="351" y="155" on="1"/>
      </contour>
      <contour>
        <pt x="370" y="458" on="1"/>
        <pt x="371" y="463" on="0"/>
        <pt x="372" y="473" on="0"/>
        <pt x="372" y="478" on="1"/>
        <pt x="372" y="511" on="0"/>
        <pt x="331" y="547" on="0"/>
        <pt x="290" y="547" on="1"/>
        <pt x="248" y="547" on="0"/>
        <pt x="205" y="507" on="0"/>
        <pt x="198" y="462" on="1"/>
        <pt x="196" y="448" on="1"/>
        <pt x="195" y="441" on="0"/>
        <pt x="194" y="429" on="0"/>
        <pt x="194" y="423" on="1"/>
        <pt x="194" y="353" on="0"/>
        <pt x="271" y="353" on="1"/>
        <pt x="295" y="353" on="0"/>
        <pt x="328" y="362" on="0"/>
        <pt x="350" y="382" on="0"/>
        <pt x="363" y="415" on="0"/>
        <pt x="367" y="439" on="1"/>
      </contour>
    </TTGlyph>
    <TTGlyph name="emdash" xMin="61" yMin="263" xMax="651" yMax="328">
      <contour>
        <pt x="61" y="263" on="1"/>
        <pt x="71" y="328" on="1"/>
        <pt x="651" y="328" on="1"/>
        <pt x="641" y="263" on="1"/>
      </contour>
    </TTGlyph>
    <TTGlyph name="endash" xMin="61" yMin="263" xMax="551" yMax="328">
      <contour>
        <pt x="61" y="263" on="1"/>
        <pt x="71" y="328" on="1"/>
        <pt x="551" y="328" on="1"/>
        <pt x="541" y="263" on="1"/>
      </contour>
    </TTGlyph>
    <TTGlyph name="equal" xMin="68" yMin="180" xMax="456" yMax="421">
      <contour>
        <pt x="68" y="180" on="1"/>
        <pt x="78" y="250" on="1"/>
        <pt x="432" y="250" on="1"/>
        <pt x="422" y="180" on="1"/>
      </contour>
      <contour>
        <pt x="92" y="351" on="1"/>
        <pt x="102" y="421" on="1"/>
        <pt x="456" y="421" on="1"/>
        <pt x="446" y="351" on="1"/>
      </contour>
    </TTGlyph>
    <TTGlyph name="eth" xMin="56" yMin="-12" xMax="482" yMax="695">
      <contour>
        <pt x="172" y="695" on="1"/>
        <pt x="311" y="695" on="0"/>
        <pt x="377" y="615" on="1"/>
        <pt x="482" y="645" on="1"/>
        <pt x="473" y="579" on="1"/>
        <pt x="410" y="561" on="1"/>
        <pt x="435" y="502" on="0"/>
        <pt x="435" y="424" on="1"/>
        <pt x="435" y="403" on="0"/>
        <pt x="431" y="359" on="0"/>
        <pt x="428" y="335" on="1"/>
        <pt x="404" y="165" on="1"/>
        <pt x="392" y="77" on="0"/>
        <pt x="304" y="-12" on="0"/>
        <pt x="218" y="-12" on="1"/>
        <pt x="137" y="-12" on="0"/>
        <pt x="56" y="59" on="0"/>
        <pt x="56" y="128" on="1"/>
        <pt x="56" y="146" on="0"/>
        <pt x="59" y="167" on="1"/>
        <pt x="75" y="282" on="1"/>
        <pt x="86" y="366" on="0"/>
        <pt x="160" y="439" on="0"/>
        <pt x="222" y="439" on="1"/>
        <pt x="256" y="439" on="0"/>
        <pt x="323" y="402" on="0"/>
        <pt x="346" y="361" on="1"/>
        <pt x="350" y="386" on="1"/>
        <pt x="352" y="400" on="0"/>
        <pt x="354" y="425" on="0"/>
        <pt x="354" y="437" on="1"/>
        <pt x="354" y="495" on="0"/>
        <pt x="332" y="539" on="1"/>
        <pt x="207" y="505" on="1"/>
        <pt x="217" y="571" on="1"/>
        <pt x="290" y="591" on="1"/>
        <pt x="241" y="631" on="0"/>
        <pt x="163" y="631" on="1"/>
      </contour>
      <contour>
        <pt x="233" y="363" on="1"/>
        <pt x="203" y="363" on="0"/>
        <pt x="164" y="318" on="0"/>
        <pt x="156" y="264" on="1"/>
        <pt x="140" y="152" on="1"/>
        <pt x="139" y="147" on="0"/>
        <pt x="139" y="143" on="1"/>
        <pt x="139" y="134" on="1"/>
        <pt x="139" y="97" on="0"/>
        <pt x="183" y="59" on="0"/>
        <pt x="221" y="59" on="1"/>
        <pt x="266" y="59" on="0"/>
        <pt x="310" y="104" on="0"/>
        <pt x="316" y="148" on="1"/>
        <pt x="335" y="281" on="1"/>
        <pt x="316" y="323" on="0"/>
        <pt x="260" y="363" on="0"/>
      </contour>
    </TTGlyph>
    <TTGlyph name="exclam" xMin="11" yMin="-12" xMax="210" yMax="695">
      <contour>
        <pt x="53" y="200" on="1"/>
        <pt x="115" y="695" on="1"/>
        <pt x="210" y="695" on="1"/>
        <pt x="134" y="200" on="1"/>
      </contour>
      <contour>
        <pt x="125" y="30" on="1"/>
        <pt x="122" y="10" on="0"/>
        <pt x="95" y="-12" on="0"/>
        <pt x="66" y="-12" on="1"/>
        <pt x="38" y="-12" on="0"/>
        <pt x="11" y="16" on="0"/>
        <pt x="14" y="36" on="1"/>
        <pt x="17" y="59" on="1"/>
        <pt x="20" y="85" on="0"/>
        <pt x="47" y="108" on="0"/>
        <pt x="76" y="108" on="1"/>
        <pt x="104" y="108" on="0"/>
        <pt x="132" y="81" on="0"/>
        <pt x="129" y="59" on="1"/>
      </contour>
    </TTGlyph>
    <TTGlyph name="exclamdown" xMin="10" yMin="-185" xMax="209" yMax="522">
      <component glyphName="exclam" x="220" y="510" scale="-0.999938964844" flags="0x4"/>
    </TTGlyph>
    <TTGlyph name="f" xMin="-88" yMin="-197" xMax="379" yMax="695">
      <contour>
        <pt x="123" y="418" on="1"/>
        <pt x="49" y="418" on="1"/>
        <pt x="56" y="468" on="1"/>
        <pt x="132" y="482" on="1"/>
        <pt x="140" y="539" on="1"/>
        <pt x="151" y="620" on="0"/>
        <pt x="233" y="695" on="0"/>
        <pt x="302" y="695" on="1"/>
        <pt x="319" y="695" on="0"/>
        <pt x="363" y="689" on="0"/>
        <pt x="379" y="684" on="1"/>
        <pt x="370" y="614" on="1"/>
        <pt x="351" y="619" on="0"/>
        <pt x="311" y="626" on="0"/>
        <pt x="297" y="626" on="1"/>
        <pt x="268" y="626" on="0"/>
        <pt x="233" y="591" on="0"/>
        <pt x="226" y="544" on="1"/>
        <pt x="218" y="488" on="1"/>
        <pt x="308" y="488" on="1"/>
        <pt x="298" y="418" on="1"/>
        <pt x="208" y="418" on="1"/>
        <pt x="146" y="-32" on="1"/>
        <pt x="134" y="-120" on="0"/>
        <pt x="65" y="-197" on="0"/>
        <pt x="0" y="-197" on="1"/>
        <pt x="-20" y="-197" on="0"/>
        <pt x="-71" y="-188" on="0"/>
        <pt x="-88" y="-183" on="1"/>
        <pt x="-78" y="-112" on="1"/>
        <pt x="-41" y="-125" on="0"/>
        <pt x="-6" y="-125" on="1"/>
        <pt x="22" y="-125" on="0"/>
        <pt x="53" y="-88" on="0"/>
        <pt x="60" y="-37" on="1"/>
      </contour>
    </TTGlyph>
    <TTGlyph name="five" xMin="53" yMin="-12" xMax="434" yMax="604">
      <contour>
        <pt x="422" y="175" on="1"/>
        <pt x="409" y="81" on="0"/>
        <pt x="306" y="-12" on="0"/>
        <pt x="209" y="-12" on="1"/>
        <pt x="171" y="-12" on="0"/>
        <pt x="85" y="5" on="0"/>
        <pt x="53" y="16" on="1"/>
        <pt x="63" y="90" on="1"/>
        <pt x="79" y="84" on="0"/>
        <pt x="121" y="74" on="0"/>
        <pt x="162" y="65" on="0"/>
        <pt x="199" y="60" on="0"/>
        <pt x="212" y="60" on="1"/>
        <pt x="269" y="60" on="0"/>
        <pt x="329" y="119" on="0"/>
        <pt x="337" y="175" on="1"/>
        <pt x="341" y="202" on="1"/>
        <pt x="344" y="220" on="0"/>
        <pt x="344" y="234" on="1"/>
        <pt x="344" y="275" on="0"/>
        <pt x="309" y="311" on="0"/>
        <pt x="278" y="311" on="1"/>
        <pt x="241" y="311" on="0"/>
        <pt x="177" y="281" on="0"/>
        <pt x="141" y="246" on="1"/>
        <pt x="76" y="246" on="1"/>
        <pt x="126" y="604" on="1"/>
        <pt x="434" y="604" on="1"/>
        <pt x="424" y="532" on="1"/>
        <pt x="201" y="532" on="1"/>
        <pt x="173" y="338" on="1"/>
        <pt x="205" y="360" on="0"/>
        <pt x="270" y="382" on="0"/>
        <pt x="300" y="382" on="1"/>
        <pt x="361" y="382" on="0"/>
        <pt x="428" y="318" on="0"/>
        <pt x="428" y="245" on="1"/>
        <pt x="428" y="224" on="0"/>
        <pt x="425" y="199" on="1"/>
      </contour>
    </TTGlyph>
    <TTGlyph name="foundryicon" xMin="144" yMin="0" xMax="720" yMax="576">
      <contour>
        <pt x="144" y="0" on="1"/>
        <pt x="144" y="576" on="1"/>
        <pt x="432" y="576" on="1"/>
        <pt x="432" y="288" on="1"/>
        <pt x="720" y="288" on="1"/>
        <pt x="720" y="0" on="1"/>
      </contour>
      <contour>
        <pt x="576" y="432" on="1"/>
        <pt x="576" y="576" on="1"/>
        <pt x="720" y="576" on="1"/>
        <pt x="720" y="432" on="1"/>
      </contour>
    </TTGlyph>
    <TTGlyph name="four" xMin="35" yMin="0" xMax="456" yMax="601">
      <contour>
        <pt x="314" y="601" on="1"/>
        <pt x="131" y="199" on="1"/>
        <pt x="300" y="199" on="1"/>
        <pt x="329" y="401" on="1"/>
        <pt x="411" y="401" on="1"/>
        <pt x="382" y="199" on="1"/>
        <pt x="456" y="199" on="1"/>
        <pt x="447" y="129" on="1"/>
        <pt x="373" y="129" on="1"/>
        <pt x="355" y="0" on="1"/>
        <pt x="272" y="0" on="1"/>
        <pt x="290" y="129" on="1"/>
        <pt x="51" y="129" on="1"/>
        <pt x="35" y="174" on="1"/>
        <pt x="231" y="601" on="1"/>
      </contour>
    </TTGlyph>
    <TTGlyph name="g" xMin="47" yMin="-197" xMax="449" yMax="500">
      <contour>
        <pt x="79" y="327" on="1"/>
        <pt x="93" y="415" on="0"/>
        <pt x="181" y="500" on="0"/>
        <pt x="241" y="500" on="1"/>
        <pt x="276" y="500" on="0"/>
        <pt x="338" y="467" on="0"/>
        <pt x="362" y="438" on="1"/>
        <pt x="369" y="488" on="1"/>
        <pt x="449" y="488" on="1"/>
        <pt x="375" y="-36" on="1"/>
        <pt x="363" y="-121" on="0"/>
        <pt x="277" y="-197" on="0"/>
        <pt x="190" y="-197" on="1"/>
        <pt x="159" y="-197" on="0"/>
        <pt x="80" y="-185" on="0"/>
        <pt x="47" y="-175" on="1"/>
        <pt x="57" y="-100" on="1"/>
        <pt x="90" y="-111" on="0"/>
        <pt x="164" y="-124" on="0"/>
        <pt x="193" y="-124" on="1"/>
        <pt x="240" y="-124" on="0"/>
        <pt x="282" y="-85" on="0"/>
        <pt x="289" y="-43" on="1"/>
        <pt x="300" y="28" on="1"/>
        <pt x="350" y="190" on="1"/>
        <pt x="348" y="192" on="1"/>
        <pt x="345" y="191" on="1"/>
        <pt x="308" y="83" on="0"/>
        <pt x="215" y="-12" on="0"/>
        <pt x="160" y="-12" on="1"/>
        <pt x="112" y="-12" on="0"/>
        <pt x="49" y="54" on="0"/>
        <pt x="49" y="118" on="1"/>
        <pt x="49" y="129" on="0"/>
        <pt x="51" y="152" on="0"/>
        <pt x="53" y="164" on="1"/>
      </contour>
      <contour>
        <pt x="184" y="64" on="1"/>
        <pt x="216" y="64" on="0"/>
        <pt x="269" y="113" on="0"/>
        <pt x="308" y="187" on="0"/>
        <pt x="334" y="270" on="0"/>
        <pt x="339" y="305" on="1"/>
        <pt x="349" y="372" on="1"/>
        <pt x="329" y="398" on="0"/>
        <pt x="278" y="427" on="0"/>
        <pt x="252" y="427" on="1"/>
        <pt x="219" y="427" on="0"/>
        <pt x="173" y="378" on="0"/>
        <pt x="164" y="322" on="1"/>
        <pt x="140" y="175" on="1"/>
        <pt x="138" y="161" on="0"/>
        <pt x="135" y="137" on="0"/>
        <pt x="135" y="127" on="1"/>
        <pt x="135" y="92" on="0"/>
        <pt x="161" y="64" on="0"/>
      </contour>
    </TTGlyph>
    <TTGlyph name="germandbls" xMin="20" yMin="-12" xMax="444" yMax="695">
      <contour>
        <pt x="35" y="0" on="1"/>
        <pt x="93" y="418" on="1"/>
        <pt x="20" y="418" on="1"/>
        <pt x="27" y="468" on="1"/>
        <pt x="102" y="482" on="1"/>
        <pt x="107" y="513" on="1"/>
        <pt x="115" y="561" on="0"/>
        <pt x="142" y="630" on="0"/>
        <pt x="183" y="674" on="0"/>
        <pt x="240" y="695" on="0"/>
        <pt x="279" y="695" on="1"/>
        <pt x="316" y="695" on="0"/>
        <pt x="374" y="674" on="0"/>
        <pt x="413" y="638" on="0"/>
        <pt x="431" y="587" on="0"/>
        <pt x="428" y="557" on="1"/>
        <pt x="427" y="548" on="1"/>
        <pt x="421" y="507" on="0"/>
        <pt x="388" y="462" on="0"/>
        <pt x="351" y="430" on="0"/>
        <pt x="320" y="402" on="0"/>
        <pt x="317" y="380" on="1"/>
        <pt x="316" y="373" on="1"/>
        <pt x="316" y="369" on="0"/>
        <pt x="315" y="363" on="0"/>
        <pt x="315" y="360" on="1"/>
        <pt x="315" y="345" on="0"/>
        <pt x="326" y="325" on="0"/>
        <pt x="338" y="317" on="1"/>
        <pt x="382" y="287" on="1"/>
        <pt x="414" y="264" on="0"/>
        <pt x="444" y="201" on="0"/>
        <pt x="444" y="163" on="1"/>
        <pt x="444" y="152" on="1"/>
        <pt x="444" y="147" on="0"/>
        <pt x="443" y="142" on="1"/>
        <pt x="442" y="133" on="1"/>
        <pt x="434" y="65" on="0"/>
        <pt x="364" y="-12" on="0"/>
        <pt x="298" y="-12" on="1"/>
        <pt x="271" y="-12" on="0"/>
        <pt x="214" y="-1" on="0"/>
        <pt x="189" y="10" on="1"/>
        <pt x="200" y="82" on="1"/>
        <pt x="220" y="74" on="0"/>
        <pt x="255" y="63" on="0"/>
        <pt x="272" y="59" on="1"/>
        <pt x="277" y="58" on="0"/>
        <pt x="282" y="58" on="1"/>
        <pt x="292" y="58" on="1"/>
        <pt x="315" y="58" on="0"/>
        <pt x="350" y="94" on="0"/>
        <pt x="355" y="129" on="1"/>
        <pt x="358" y="151" on="1"/>
        <pt x="359" y="155" on="0"/>
        <pt x="359" y="163" on="1"/>
        <pt x="359" y="203" on="0"/>
        <pt x="327" y="224" on="1"/>
        <pt x="282" y="254" on="1"/>
        <pt x="256" y="271" on="0"/>
        <pt x="232" y="317" on="0"/>
        <pt x="232" y="350" on="1"/>
        <pt x="232" y="354" on="0"/>
        <pt x="233" y="362" on="0"/>
        <pt x="233" y="367" on="1"/>
        <pt x="234" y="376" on="1"/>
        <pt x="238" y="410" on="0"/>
        <pt x="270" y="451" on="0"/>
        <pt x="306" y="483" on="0"/>
        <pt x="338" y="515" on="0"/>
        <pt x="342" y="541" on="1"/>
        <pt x="344" y="557" on="1"/>
        <pt x="348" y="585" on="0"/>
        <pt x="312" y="625" on="0"/>
        <pt x="274" y="625" on="1"/>
        <pt x="237" y="625" on="0"/>
        <pt x="202" y="588" on="0"/>
        <pt x="196" y="544" on="1"/>
        <pt x="120" y="0" on="1"/>
      </contour>
    </TTGlyph>
    <TTGlyph name="grave" xMin="125" yMin="546" xMax="305" yMax="685">
      <contour>
        <pt x="125" y="685" on="1"/>
        <pt x="215" y="685" on="1"/>
        <pt x="305" y="546" on="1"/>
        <pt x="234" y="546" on="1"/>
      </contour>
    </TTGlyph>
    <TTGlyph name="grave.cap" xMin="179" yMin="710" xMax="320" yMax="829">
      <contour>
        <pt x="179" y="829" on="1"/>
        <pt x="268" y="829" on="1"/>
        <pt x="320" y="710" on="1"/>
        <pt x="250" y="710" on="1"/>
      </contour>
    </TTGlyph>
    <TTGlyph name="greater" xMin="53" yMin="99" xMax="446" yMax="494">
      <contour>
        <pt x="53" y="99" on="1"/>
        <pt x="65" y="182" on="1"/>
        <pt x="357" y="297" on="1"/>
        <pt x="97" y="411" on="1"/>
        <pt x="109" y="494" on="1"/>
        <pt x="446" y="334" on="1"/>
        <pt x="436" y="259" on="1"/>
      </contour>
    </TTGlyph>
    <TTGlyph name="guillemotleft" xMin="69" yMin="148" xMax="451" yMax="488">
      <contour>
        <pt x="281" y="488" on="1"/>
        <pt x="164" y="318" on="1"/>
        <pt x="233" y="148" on="1"/>
        <pt x="149" y="148" on="1"/>
        <pt x="69" y="318" on="1"/>
        <pt x="192" y="488" on="1"/>
      </contour>
      <contour>
        <pt x="451" y="488" on="1"/>
        <pt x="334" y="318" on="1"/>
        <pt x="403" y="148" on="1"/>
        <pt x="318" y="148" on="1"/>
        <pt x="239" y="318" on="1"/>
        <pt x="361" y="488" on="1"/>
      </contour>
    </TTGlyph>
    <TTGlyph name="guillemotright" xMin="45" yMin="148" xMax="427" yMax="488">
      <contour>
        <pt x="45" y="148" on="1"/>
        <pt x="162" y="318" on="1"/>
        <pt x="93" y="488" on="1"/>
        <pt x="176" y="488" on="1"/>
        <pt x="257" y="318" on="1"/>
        <pt x="136" y="148" on="1"/>
      </contour>
      <contour>
        <pt x="215" y="148" on="1"/>
        <pt x="332" y="318" on="1"/>
        <pt x="263" y="488" on="1"/>
        <pt x="345" y="488" on="1"/>
        <pt x="427" y="318" on="1"/>
        <pt x="305" y="148" on="1"/>
      </contour>
    </TTGlyph>
    <TTGlyph name="guilsinglleft" xMin="69" yMin="148" xMax="281" yMax="488">
      <contour>
        <pt x="281" y="488" on="1"/>
        <pt x="164" y="318" on="1"/>
        <pt x="233" y="148" on="1"/>
        <pt x="147" y="148" on="1"/>
        <pt x="69" y="318" on="1"/>
        <pt x="191" y="488" on="1"/>
      </contour>
    </TTGlyph>
    <TTGlyph name="guilsinglright" xMin="46" yMin="148" xMax="258" yMax="488">
      <contour>
        <pt x="46" y="148" on="1"/>
        <pt x="163" y="318" on="1"/>
        <pt x="94" y="488" on="1"/>
        <pt x="176" y="488" on="1"/>
        <pt x="258" y="318" on="1"/>
        <pt x="137" y="148" on="1"/>
      </contour>
    </TTGlyph>
    <TTGlyph name="h" xMin="35" yMin="0" xMax="434" yMax="683">
      <contour>
        <pt x="99" y="458" on="1"/>
        <pt x="109" y="528" on="0"/>
        <pt x="117" y="633" on="0"/>
        <pt x="119" y="683" on="1"/>
        <pt x="204" y="683" on="1"/>
        <pt x="203" y="645" on="0"/>
        <pt x="198" y="557" on="0"/>
        <pt x="192" y="514" on="1"/>
        <pt x="188" y="485" on="1"/>
        <pt x="127" y="240" on="1"/>
        <pt x="130" y="238" on="1"/>
        <pt x="133" y="240" on="1"/>
        <pt x="168" y="370" on="0"/>
        <pt x="272" y="500" on="0"/>
        <pt x="332" y="500" on="1"/>
        <pt x="381" y="500" on="0"/>
        <pt x="434" y="445" on="0"/>
        <pt x="434" y="379" on="1"/>
        <pt x="434" y="365" on="0"/>
        <pt x="432" y="334" on="0"/>
        <pt x="429" y="316" on="1"/>
        <pt x="381" y="0" on="1"/>
        <pt x="296" y="0" on="1"/>
        <pt x="346" y="318" on="1"/>
        <pt x="348" y="332" on="0"/>
        <pt x="350" y="354" on="0"/>
        <pt x="350" y="364" on="1"/>
        <pt x="350" y="396" on="0"/>
        <pt x="328" y="421" on="0"/>
        <pt x="309" y="421" on="1"/>
        <pt x="283" y="421" on="0"/>
        <pt x="227" y="366" on="0"/>
        <pt x="177" y="265" on="0"/>
        <pt x="136" y="120" on="0"/>
        <pt x="124" y="30" on="1"/>
        <pt x="120" y="0" on="1"/>
        <pt x="35" y="0" on="1"/>
      </contour>
    </TTGlyph>
    <TTGlyph name="hbar" xMin="35" yMin="0" xMax="434" yMax="683">
      <contour>
        <pt x="99" y="458" on="1"/>
        <pt x="103" y="484" on="0"/>
        <pt x="108" y="531" on="0"/>
        <pt x="110" y="553" on="1"/>
        <pt x="42" y="553" on="1"/>
        <pt x="52" y="623" on="1"/>
        <pt x="116" y="623" on="1"/>
        <pt x="118" y="638" on="0"/>
        <pt x="118" y="668" on="0"/>
        <pt x="119" y="683" on="1"/>
        <pt x="204" y="683" on="1"/>
        <pt x="202" y="623" on="1"/>
        <pt x="327" y="623" on="1"/>
        <pt x="317" y="553" on="1"/>
        <pt x="196" y="553" on="1"/>
        <pt x="188" y="485" on="1"/>
        <pt x="127" y="240" on="1"/>
        <pt x="130" y="238" on="1"/>
        <pt x="133" y="240" on="1"/>
        <pt x="168" y="370" on="0"/>
        <pt x="272" y="500" on="0"/>
        <pt x="332" y="500" on="1"/>
        <pt x="381" y="500" on="0"/>
        <pt x="434" y="445" on="0"/>
        <pt x="434" y="379" on="1"/>
        <pt x="434" y="365" on="0"/>
        <pt x="432" y="334" on="0"/>
        <pt x="429" y="316" on="1"/>
        <pt x="381" y="0" on="1"/>
        <pt x="296" y="0" on="1"/>
        <pt x="346" y="318" on="1"/>
        <pt x="348" y="332" on="0"/>
        <pt x="350" y="354" on="0"/>
        <pt x="350" y="364" on="1"/>
        <pt x="350" y="396" on="0"/>
        <pt x="328" y="421" on="0"/>
        <pt x="309" y="421" on="1"/>
        <pt x="283" y="421" on="0"/>
        <pt x="227" y="366" on="0"/>
        <pt x="177" y="265" on="0"/>
        <pt x="136" y="120" on="0"/>
        <pt x="124" y="30" on="1"/>
        <pt x="120" y="0" on="1"/>
        <pt x="35" y="0" on="1"/>
      </contour>
    </TTGlyph>
    <TTGlyph name="hyphen" xMin="61" yMin="263" xMax="291" yMax="328">
      <contour>
        <pt x="61" y="263" on="1"/>
        <pt x="71" y="328" on="1"/>
        <pt x="291" y="328" on="1"/>
        <pt x="281" y="263" on="1"/>
      </contour>
    </TTGlyph>
    <TTGlyph name="i" xMin="40" yMin="0" xMax="232" yMax="695">
      <contour>
        <pt x="40" y="0" on="1"/>
        <pt x="108" y="488" on="1"/>
        <pt x="193" y="488" on="1"/>
        <pt x="125" y="0" on="1"/>
      </contour>
      <contour>
        <pt x="225" y="617" on="1"/>
        <pt x="219" y="575" on="0"/>
        <pt x="167" y="575" on="1"/>
        <pt x="141" y="575" on="0"/>
        <pt x="111" y="601" on="0"/>
        <pt x="114" y="623" on="1"/>
        <pt x="118" y="652" on="1"/>
        <pt x="124" y="695" on="0"/>
        <pt x="176" y="695" on="1"/>
        <pt x="203" y="695" on="0"/>
        <pt x="232" y="669" on="0"/>
        <pt x="229" y="646" on="1"/>
      </contour>
    </TTGlyph>
    <TTGlyph name="iacute" xMin="40" yMin="0" xMax="266" yMax="685">
      <component glyphName="dotlessi" x="0" y="0" flags="0x204"/>
      <component glyphName="acute" x="-25" y="0" flags="0x4"/>
    </TTGlyph>
    <TTGlyph name="icircumflex" xMin="32" yMin="0" xMax="302" yMax="690">
      <component glyphName="dotlessi" x="0" y="0" flags="0x204"/>
      <component glyphName="circumflex" x="-104" y="0" flags="0x4"/>
    </TTGlyph>
    <TTGlyph name="idieresis" xMin="26" yMin="0" xMax="317" yMax="695">
      <component glyphName="dotlessi" x="0" y="0" flags="0x204"/>
      <component glyphName="dieresis" x="-93" y="0" flags="0x4"/>
    </TTGlyph>
    <TTGlyph name="igrave" xMin="40" yMin="0" xMax="238" yMax="685">
      <component glyphName="dotlessi" x="0" y="0" flags="0x204"/>
      <component glyphName="grave" x="-67" y="0" flags="0x4"/>
    </TTGlyph>
    <TTGlyph name="ij" xMin="40" yMin="-197" xMax="472" yMax="695">
      <component glyphName="i" x="0" y="0" flags="0x4"/>
      <component glyphName="j" x="245" y="0" flags="0x4"/>
    </TTGlyph>
    <TTGlyph name="itilde" xMin="38" yMin="0" xMax="312" yMax="685">
      <component glyphName="dotlessi" x="0" y="0" flags="0x204"/>
      <component glyphName="tilde" x="-104" y="0" flags="0x4"/>
    </TTGlyph>
    <TTGlyph name="j" xMin="-119" yMin="-197" xMax="227" yMax="695">
      <contour>
        <pt x="112" y="-51" on="1"/>
        <pt x="101" y="-128" on="0"/>
        <pt x="31" y="-197" on="0"/>
        <pt x="-38" y="-197" on="1"/>
        <pt x="-58" y="-197" on="0"/>
        <pt x="-105" y="-190" on="0"/>
        <pt x="-119" y="-185" on="1"/>
        <pt x="-109" y="-112" on="1"/>
        <pt x="-97" y="-117" on="0"/>
        <pt x="-56" y="-124" on="0"/>
        <pt x="-37" y="-124" on="1"/>
        <pt x="-7" y="-124" on="0"/>
        <pt x="21" y="-96" on="0"/>
        <pt x="26" y="-59" on="1"/>
        <pt x="103" y="488" on="1"/>
        <pt x="188" y="488" on="1"/>
      </contour>
      <contour>
        <pt x="220" y="617" on="1"/>
        <pt x="214" y="575" on="0"/>
        <pt x="162" y="575" on="1"/>
        <pt x="136" y="575" on="0"/>
        <pt x="106" y="601" on="0"/>
        <pt x="109" y="623" on="1"/>
        <pt x="113" y="652" on="1"/>
        <pt x="119" y="695" on="0"/>
        <pt x="171" y="695" on="1"/>
        <pt x="198" y="695" on="0"/>
        <pt x="227" y="669" on="0"/>
        <pt x="224" y="646" on="1"/>
      </contour>
    </TTGlyph>
    <TTGlyph name="jcircumflex" xMin="-119" yMin="-197" xMax="287" yMax="690">
      <contour>
        <pt x="112" y="-51" on="1"/>
        <pt x="101" y="-128" on="0"/>
        <pt x="31" y="-197" on="0"/>
        <pt x="-38" y="-197" on="1"/>
        <pt x="-58" y="-197" on="0"/>
        <pt x="-105" y="-190" on="0"/>
        <pt x="-119" y="-185" on="1"/>
        <pt x="-109" y="-112" on="1"/>
        <pt x="-97" y="-117" on="0"/>
        <pt x="-56" y="-124" on="0"/>
        <pt x="-37" y="-124" on="1"/>
        <pt x="-9" y="-124" on="0"/>
        <pt x="21" y="-98" on="0"/>
        <pt x="26" y="-59" on="1"/>
        <pt x="103" y="488" on="1"/>
        <pt x="188" y="488" on="1"/>
      </contour>
      <contour>
        <pt x="17" y="546" on="1"/>
        <pt x="27" y="618" on="1"/>
        <pt x="167" y="690" on="1"/>
        <pt x="287" y="614" on="1"/>
        <pt x="277" y="546" on="1"/>
        <pt x="156" y="611" on="1"/>
      </contour>
    </TTGlyph>
    <TTGlyph name="k" xMin="35" yMin="0" xMax="424" yMax="683">
      <contour>
        <pt x="127" y="240" on="1"/>
        <pt x="130" y="238" on="1"/>
        <pt x="132" y="239" on="1"/>
        <pt x="145" y="289" on="0"/>
        <pt x="182" y="383" on="0"/>
        <pt x="229" y="456" on="0"/>
        <pt x="288" y="500" on="0"/>
        <pt x="324" y="500" on="1"/>
        <pt x="367" y="500" on="0"/>
        <pt x="424" y="441" on="0"/>
        <pt x="423" y="392" on="1"/>
        <pt x="422" y="334" on="0"/>
        <pt x="349" y="237" on="0"/>
        <pt x="273" y="209" on="1"/>
        <pt x="383" y="0" on="1"/>
        <pt x="289" y="0" on="1"/>
        <pt x="260" y="65" on="0"/>
        <pt x="208" y="172" on="0"/>
        <pt x="179" y="229" on="1"/>
        <pt x="222" y="236" on="0"/>
        <pt x="283" y="268" on="0"/>
        <pt x="322" y="310" on="0"/>
        <pt x="339" y="358" on="0"/>
        <pt x="339" y="381" on="1"/>
        <pt x="339" y="404" on="0"/>
        <pt x="317" y="429" on="0"/>
        <pt x="299" y="429" on="1"/>
        <pt x="272" y="429" on="0"/>
        <pt x="219" y="365" on="0"/>
        <pt x="174" y="266" on="0"/>
        <pt x="140" y="148" on="0"/>
        <pt x="133" y="94" on="1"/>
        <pt x="120" y="0" on="1"/>
        <pt x="35" y="0" on="1"/>
        <pt x="99" y="458" on="1"/>
        <pt x="109" y="528" on="0"/>
        <pt x="117" y="633" on="0"/>
        <pt x="119" y="683" on="1"/>
        <pt x="204" y="683" on="1"/>
        <pt x="203" y="645" on="0"/>
        <pt x="198" y="557" on="0"/>
        <pt x="192" y="514" on="1"/>
        <pt x="188" y="485" on="1"/>
      </contour>
    </TTGlyph>
    <TTGlyph name="kcommaaccent" xMin="35" yMin="-226" xMax="424" yMax="683">
      <contour>
        <pt x="224" y="-122" on="1"/>
        <pt x="222" y="-135" on="0"/>
        <pt x="215" y="-154" on="0"/>
        <pt x="209" y="-167" on="1"/>
        <pt x="181" y="-226" on="1"/>
        <pt x="129" y="-226" on="1"/>
        <pt x="155" y="-155" on="1"/>
        <pt x="130" y="-146" on="0"/>
        <pt x="130" y="-122" on="1"/>
        <pt x="130" y="-120" on="0"/>
        <pt x="131" y="-115" on="0"/>
        <pt x="131" y="-113" on="1"/>
        <pt x="134" y="-93" on="1"/>
        <pt x="137" y="-74" on="0"/>
        <pt x="157" y="-56" on="0"/>
        <pt x="180" y="-56" on="1"/>
        <pt x="228" y="-56" on="0"/>
        <pt x="228" y="-92" on="1"/>
        <pt x="228" y="-99" on="0"/>
        <pt x="227" y="-102" on="1"/>
      </contour>
      <contour>
        <pt x="127" y="240" on="1"/>
        <pt x="130" y="238" on="1"/>
        <pt x="132" y="239" on="1"/>
        <pt x="145" y="289" on="0"/>
        <pt x="182" y="383" on="0"/>
        <pt x="229" y="456" on="0"/>
        <pt x="288" y="500" on="0"/>
        <pt x="324" y="500" on="1"/>
        <pt x="367" y="500" on="0"/>
        <pt x="424" y="441" on="0"/>
        <pt x="423" y="392" on="1"/>
        <pt x="422" y="334" on="0"/>
        <pt x="349" y="237" on="0"/>
        <pt x="273" y="209" on="1"/>
        <pt x="383" y="0" on="1"/>
        <pt x="289" y="0" on="1"/>
        <pt x="260" y="65" on="0"/>
        <pt x="208" y="172" on="0"/>
        <pt x="179" y="229" on="1"/>
        <pt x="222" y="236" on="0"/>
        <pt x="283" y="268" on="0"/>
        <pt x="322" y="310" on="0"/>
        <pt x="339" y="358" on="0"/>
        <pt x="339" y="381" on="1"/>
        <pt x="339" y="404" on="0"/>
        <pt x="317" y="429" on="0"/>
        <pt x="299" y="429" on="1"/>
        <pt x="272" y="429" on="0"/>
        <pt x="219" y="365" on="0"/>
        <pt x="174" y="266" on="0"/>
        <pt x="140" y="148" on="0"/>
        <pt x="133" y="94" on="1"/>
        <pt x="120" y="0" on="1"/>
        <pt x="35" y="0" on="1"/>
        <pt x="99" y="458" on="1"/>
        <pt x="109" y="528" on="0"/>
        <pt x="117" y="633" on="0"/>
        <pt x="119" y="683" on="1"/>
        <pt x="204" y="683" on="1"/>
        <pt x="203" y="645" on="0"/>
        <pt x="198" y="557" on="0"/>
        <pt x="192" y="514" on="1"/>
        <pt x="188" y="485" on="1"/>
      </contour>
    </TTGlyph>
    <TTGlyph name="kgreenlandic" xMin="36" yMin="0" xMax="445" yMax="488">
      <contour>
        <pt x="36" y="0" on="1"/>
        <pt x="105" y="488" on="1"/>
        <pt x="190" y="488" on="1"/>
        <pt x="157" y="257" on="1"/>
        <pt x="214" y="321" on="0"/>
        <pt x="309" y="437" on="0"/>
        <pt x="349" y="488" on="1"/>
        <pt x="445" y="488" on="1"/>
        <pt x="246" y="255" on="1"/>
        <pt x="388" y="0" on="1"/>
        <pt x="286" y="0" on="1"/>
        <pt x="264" y="46" on="0"/>
        <pt x="236" y="105" on="0"/>
        <pt x="210" y="153" on="0"/>
        <pt x="180" y="205" on="0"/>
        <pt x="155" y="244" on="1"/>
        <pt x="121" y="0" on="1"/>
      </contour>
    </TTGlyph>
    <TTGlyph name="l" xMin="35" yMin="0" xMax="204" yMax="683">
      <contour>
        <pt x="99" y="458" on="1"/>
        <pt x="109" y="528" on="0"/>
        <pt x="117" y="633" on="0"/>
        <pt x="119" y="683" on="1"/>
        <pt x="204" y="683" on="1"/>
        <pt x="203" y="645" on="0"/>
        <pt x="196" y="539" on="0"/>
        <pt x="185" y="464" on="1"/>
        <pt x="120" y="0" on="1"/>
        <pt x="35" y="0" on="1"/>
      </contour>
    </TTGlyph>
    <TTGlyph name="ldot" xMin="35" yMin="0" xMax="349" yMax="683">
      <component glyphName="l" x="0" y="0" flags="0x4"/>
      <component glyphName="period" x="212" y="415" flags="0x4"/>
    </TTGlyph>
    <TTGlyph name="less" xMin="76" yMin="99" xMax="469" yMax="494">
      <contour>
        <pt x="76" y="259" on="1"/>
        <pt x="86" y="334" on="1"/>
        <pt x="469" y="494" on="1"/>
        <pt x="457" y="411" on="1"/>
        <pt x="165" y="297" on="1"/>
        <pt x="425" y="182" on="1"/>
        <pt x="413" y="99" on="1"/>
      </contour>
    </TTGlyph>
    <TTGlyph name="logicalnot" xMin="76" yMin="113" xMax="447" yMax="335">
      <contour>
        <pt x="339" y="113" on="1"/>
        <pt x="361" y="265" on="1"/>
        <pt x="76" y="265" on="1"/>
        <pt x="86" y="335" on="1"/>
        <pt x="447" y="335" on="1"/>
        <pt x="415" y="113" on="1"/>
      </contour>
    </TTGlyph>
    <TTGlyph name="lslash" xMin="-9" yMin="0" xMax="277" yMax="683">
      <contour>
        <pt x="84" y="355" on="1"/>
        <pt x="-9" y="328" on="1"/>
        <pt x="0" y="398" on="1"/>
        <pt x="94" y="425" on="1"/>
        <pt x="99" y="458" on="1"/>
        <pt x="109" y="528" on="0"/>
        <pt x="117" y="633" on="0"/>
        <pt x="119" y="683" on="1"/>
        <pt x="204" y="683" on="1"/>
        <pt x="203" y="645" on="0"/>
        <pt x="196" y="539" on="0"/>
        <pt x="185" y="464" on="1"/>
        <pt x="183" y="451" on="1"/>
        <pt x="277" y="478" on="1"/>
        <pt x="267" y="408" on="1"/>
        <pt x="173" y="381" on="1"/>
        <pt x="120" y="0" on="1"/>
        <pt x="35" y="0" on="1"/>
      </contour>
    </TTGlyph>
    <TTGlyph name="m" xMin="35" yMin="0" xMax="685" yMax="500">
      <contour>
        <pt x="35" y="0" on="1"/>
        <pt x="103" y="488" on="1"/>
        <pt x="183" y="488" on="1"/>
        <pt x="172" y="409" on="1"/>
        <pt x="127" y="240" on="1"/>
        <pt x="130" y="238" on="1"/>
        <pt x="133" y="240" on="1"/>
        <pt x="168" y="370" on="0"/>
        <pt x="270" y="500" on="0"/>
        <pt x="327" y="500" on="1"/>
        <pt x="373" y="500" on="0"/>
        <pt x="425" y="449" on="0"/>
        <pt x="427" y="392" on="1"/>
        <pt x="383" y="240" on="1"/>
        <pt x="386" y="238" on="1"/>
        <pt x="389" y="240" on="1"/>
        <pt x="424" y="370" on="0"/>
        <pt x="526" y="500" on="0"/>
        <pt x="583" y="500" on="1"/>
        <pt x="632" y="500" on="0"/>
        <pt x="685" y="445" on="0"/>
        <pt x="685" y="379" on="1"/>
        <pt x="685" y="365" on="0"/>
        <pt x="683" y="334" on="0"/>
        <pt x="680" y="316" on="1"/>
        <pt x="632" y="0" on="1"/>
        <pt x="547" y="0" on="1"/>
        <pt x="596" y="313" on="1"/>
        <pt x="598" y="330" on="0"/>
        <pt x="601" y="355" on="0"/>
        <pt x="601" y="366" on="1"/>
        <pt x="601" y="398" on="0"/>
        <pt x="580" y="421" on="0"/>
        <pt x="561" y="421" on="1"/>
        <pt x="538" y="421" on="0"/>
        <pt x="485" y="369" on="0"/>
        <pt x="435" y="270" on="0"/>
        <pt x="393" y="123" on="0"/>
        <pt x="380" y="29" on="1"/>
        <pt x="376" y="0" on="1"/>
        <pt x="291" y="0" on="1"/>
        <pt x="340" y="313" on="1"/>
        <pt x="342" y="330" on="0"/>
        <pt x="345" y="355" on="0"/>
        <pt x="345" y="366" on="1"/>
        <pt x="345" y="398" on="0"/>
        <pt x="324" y="421" on="0"/>
        <pt x="305" y="421" on="1"/>
        <pt x="280" y="421" on="0"/>
        <pt x="226" y="366" on="0"/>
        <pt x="177" y="265" on="0"/>
        <pt x="136" y="120" on="0"/>
        <pt x="124" y="30" on="1"/>
        <pt x="120" y="0" on="1"/>
      </contour>
    </TTGlyph>
    <TTGlyph name="macron" xMin="130" yMin="606" xMax="355" yMax="681">
      <contour>
        <pt x="130" y="606" on="1"/>
        <pt x="140" y="681" on="1"/>
        <pt x="355" y="681" on="1"/>
        <pt x="345" y="606" on="1"/>
      </contour>
    </TTGlyph>
    <TTGlyph name="mu" xMin="-7" yMin="-185" xMax="451" yMax="488">
      <contour>
        <pt x="189" y="488" on="1"/>
        <pt x="143" y="175" on="1"/>
        <pt x="141" y="161" on="0"/>
        <pt x="139" y="138" on="0"/>
        <pt x="139" y="128" on="1"/>
        <pt x="139" y="92" on="0"/>
        <pt x="164" y="64" on="0"/>
        <pt x="187" y="64" on="1"/>
        <pt x="215" y="64" on="0"/>
        <pt x="265" y="104" on="0"/>
        <pt x="305" y="175" on="0"/>
        <pt x="334" y="274" on="0"/>
        <pt x="343" y="334" on="1"/>
        <pt x="365" y="488" on="1"/>
        <pt x="451" y="488" on="1"/>
        <pt x="382" y="0" on="1"/>
        <pt x="302" y="0" on="1"/>
        <pt x="306" y="28" on="1"/>
        <pt x="352" y="190" on="1"/>
        <pt x="350" y="192" on="1"/>
        <pt x="347" y="191" on="1"/>
        <pt x="311" y="83" on="0"/>
        <pt x="217" y="-12" on="0"/>
        <pt x="163" y="-12" on="1"/>
        <pt x="137" y="-12" on="0"/>
        <pt x="119" y="7" on="1"/>
        <pt x="114" y="-17" on="0"/>
        <pt x="104" y="-70" on="0"/>
        <pt x="93" y="-121" on="0"/>
        <pt x="82" y="-167" on="0"/>
        <pt x="77" y="-185" on="1"/>
        <pt x="-7" y="-185" on="1"/>
        <pt x="7" y="-129" on="0"/>
        <pt x="36" y="19" on="0"/>
        <pt x="47" y="97" on="1"/>
        <pt x="63" y="207" on="1"/>
        <pt x="104" y="488" on="1"/>
      </contour>
    </TTGlyph>
    <TTGlyph name="multiply" xMin="89" yMin="141" xMax="434" yMax="460">
      <contour>
        <pt x="313" y="302" on="1"/>
        <pt x="406" y="194" on="1"/>
        <pt x="344" y="141" on="1"/>
        <pt x="251" y="248" on="1"/>
        <pt x="132" y="143" on="1"/>
        <pt x="89" y="193" on="1"/>
        <pt x="208" y="298" on="1"/>
        <pt x="117" y="406" on="1"/>
        <pt x="177" y="460" on="1"/>
        <pt x="270" y="352" on="1"/>
        <pt x="391" y="458" on="1"/>
        <pt x="434" y="408" on="1"/>
      </contour>
    </TTGlyph>
    <TTGlyph name="n" xMin="35" yMin="0" xMax="434" yMax="500">
      <contour>
        <pt x="35" y="0" on="1"/>
        <pt x="103" y="488" on="1"/>
        <pt x="183" y="488" on="1"/>
        <pt x="172" y="409" on="1"/>
        <pt x="127" y="240" on="1"/>
        <pt x="130" y="238" on="1"/>
        <pt x="133" y="240" on="1"/>
        <pt x="168" y="370" on="0"/>
        <pt x="272" y="500" on="0"/>
        <pt x="332" y="500" on="1"/>
        <pt x="381" y="500" on="0"/>
        <pt x="434" y="445" on="0"/>
        <pt x="434" y="379" on="1"/>
        <pt x="434" y="365" on="0"/>
        <pt x="432" y="334" on="0"/>
        <pt x="429" y="316" on="1"/>
        <pt x="381" y="0" on="1"/>
        <pt x="296" y="0" on="1"/>
        <pt x="346" y="318" on="1"/>
        <pt x="348" y="332" on="0"/>
        <pt x="350" y="354" on="0"/>
        <pt x="350" y="364" on="1"/>
        <pt x="350" y="396" on="0"/>
        <pt x="328" y="421" on="0"/>
        <pt x="309" y="421" on="1"/>
        <pt x="283" y="421" on="0"/>
        <pt x="227" y="366" on="0"/>
        <pt x="177" y="265" on="0"/>
        <pt x="136" y="120" on="0"/>
        <pt x="124" y="30" on="1"/>
        <pt x="120" y="0" on="1"/>
      </contour>
    </TTGlyph>
    <TTGlyph name="nacute" xMin="35" yMin="0" xMax="434" yMax="685">
      <component glyphName="n" x="0" y="0" flags="0x204"/>
      <component glyphName="acute" x="97" y="0" flags="0x4"/>
    </TTGlyph>
    <TTGlyph name="nine" xMin="81" yMin="-12" xMax="465" yMax="612">
      <contour>
        <pt x="434" y="202" on="1"/>
        <pt x="426" y="144" on="0"/>
        <pt x="392" y="63" on="0"/>
        <pt x="338" y="12" on="0"/>
        <pt x="262" y="-12" on="0"/>
        <pt x="212" y="-12" on="1"/>
        <pt x="195" y="-12" on="0"/>
        <pt x="157" y="-7" on="0"/>
        <pt x="121" y="0" on="0"/>
        <pt x="90" y="8" on="0"/>
        <pt x="81" y="11" on="1"/>
        <pt x="91" y="86" on="1"/>
        <pt x="103" y="81" on="0"/>
        <pt x="136" y="72" on="0"/>
        <pt x="171" y="64" on="0"/>
        <pt x="203" y="60" on="0"/>
        <pt x="214" y="60" on="1"/>
        <pt x="243" y="60" on="0"/>
        <pt x="288" y="75" on="0"/>
        <pt x="321" y="108" on="0"/>
        <pt x="342" y="162" on="0"/>
        <pt x="348" y="202" on="1"/>
        <pt x="359" y="278" on="1"/>
        <pt x="278" y="211" on="0"/>
        <pt x="213" y="211" on="1"/>
        <pt x="156" y="211" on="0"/>
        <pt x="88" y="283" on="0"/>
        <pt x="88" y="358" on="1"/>
        <pt x="88" y="378" on="0"/>
        <pt x="91" y="404" on="1"/>
        <pt x="95" y="435" on="1"/>
        <pt x="107" y="525" on="0"/>
        <pt x="203" y="612" on="0"/>
        <pt x="296" y="612" on="1"/>
        <pt x="377" y="612" on="0"/>
        <pt x="465" y="527" on="0"/>
        <pt x="465" y="449" on="1"/>
        <pt x="465" y="429" on="0"/>
        <pt x="462" y="408" on="1"/>
      </contour>
      <contour>
        <pt x="380" y="423" on="1"/>
        <pt x="381" y="429" on="0"/>
        <pt x="382" y="441" on="0"/>
        <pt x="382" y="447" on="1"/>
        <pt x="382" y="493" on="0"/>
        <pt x="333" y="540" on="0"/>
        <pt x="289" y="540" on="1"/>
        <pt x="238" y="540" on="0"/>
        <pt x="188" y="491" on="0"/>
        <pt x="180" y="440" on="1"/>
        <pt x="174" y="401" on="1"/>
        <pt x="172" y="393" on="0"/>
        <pt x="172" y="385" on="1"/>
        <pt x="172" y="371" on="1"/>
        <pt x="172" y="328" on="0"/>
        <pt x="211" y="285" on="0"/>
        <pt x="241" y="285" on="1"/>
        <pt x="270" y="285" on="0"/>
        <pt x="337" y="324" on="0"/>
        <pt x="369" y="350" on="1"/>
      </contour>
    </TTGlyph>
    <TTGlyph name="ntilde" xMin="35" yMin="0" xMax="434" yMax="685">
      <component glyphName="n" x="0" y="0" flags="0x204"/>
      <component glyphName="tilde" x="18" y="0" flags="0x4"/>
    </TTGlyph>
    <TTGlyph name="numbersign" xMin="-6" yMin="0" xMax="531" yMax="613">
      <contour>
        <pt x="400" y="125" on="1"/>
        <pt x="383" y="0" on="1"/>
        <pt x="298" y="0" on="1"/>
        <pt x="315" y="125" on="1"/>
        <pt x="159" y="125" on="1"/>
        <pt x="142" y="0" on="1"/>
        <pt x="57" y="0" on="1"/>
        <pt x="74" y="125" on="1"/>
        <pt x="-6" y="125" on="1"/>
        <pt x="4" y="195" on="1"/>
        <pt x="84" y="195" on="1"/>
        <pt x="115" y="418" on="1"/>
        <pt x="35" y="418" on="1"/>
        <pt x="45" y="488" on="1"/>
        <pt x="125" y="488" on="1"/>
        <pt x="143" y="613" on="1"/>
        <pt x="228" y="613" on="1"/>
        <pt x="210" y="488" on="1"/>
        <pt x="366" y="488" on="1"/>
        <pt x="384" y="613" on="1"/>
        <pt x="469" y="613" on="1"/>
        <pt x="451" y="488" on="1"/>
        <pt x="531" y="488" on="1"/>
        <pt x="521" y="418" on="1"/>
        <pt x="441" y="418" on="1"/>
        <pt x="410" y="195" on="1"/>
        <pt x="490" y="195" on="1"/>
        <pt x="480" y="125" on="1"/>
      </contour>
      <contour>
        <pt x="356" y="418" on="1"/>
        <pt x="200" y="418" on="1"/>
        <pt x="169" y="195" on="1"/>
        <pt x="325" y="195" on="1"/>
      </contour>
    </TTGlyph>
    <TTGlyph name="o" xMin="50" yMin="-12" xMax="429" yMax="500">
      <contour>
        <pt x="342" y="322" on="1"/>
        <pt x="343" y="328" on="0"/>
        <pt x="344" y="340" on="0"/>
        <pt x="344" y="345" on="1"/>
        <pt x="344" y="386" on="0"/>
        <pt x="300" y="429" on="0"/>
        <pt x="262" y="429" on="1"/>
        <pt x="220" y="429" on="0"/>
        <pt x="168" y="381" on="0"/>
        <pt x="160" y="327" on="1"/>
        <pt x="137" y="165" on="1"/>
        <pt x="136" y="159" on="0"/>
        <pt x="135" y="148" on="0"/>
        <pt x="135" y="143" on="1"/>
        <pt x="135" y="102" on="0"/>
        <pt x="180" y="59" on="0"/>
        <pt x="218" y="59" on="1"/>
        <pt x="262" y="59" on="0"/>
        <pt x="311" y="108" on="0"/>
        <pt x="319" y="161" on="1"/>
      </contour>
      <contour>
        <pt x="407" y="176" on="1"/>
        <pt x="395" y="87" on="0"/>
        <pt x="297" y="-12" on="0"/>
        <pt x="215" y="-12" on="1"/>
        <pt x="131" y="-12" on="0"/>
        <pt x="50" y="65" on="0"/>
        <pt x="50" y="134" on="1"/>
        <pt x="50" y="152" on="0"/>
        <pt x="53" y="172" on="1"/>
        <pt x="73" y="316" on="1"/>
        <pt x="85" y="405" on="0"/>
        <pt x="185" y="500" on="0"/>
        <pt x="266" y="500" on="1"/>
        <pt x="348" y="500" on="0"/>
        <pt x="429" y="422" on="0"/>
        <pt x="429" y="353" on="1"/>
        <pt x="429" y="334" on="0"/>
        <pt x="426" y="315" on="1"/>
      </contour>
    </TTGlyph>
    <TTGlyph name="oacute" xMin="50" yMin="-12" xMax="429" yMax="685">
      <component glyphName="o" x="0" y="0" flags="0x204"/>
      <component glyphName="acute" x="92" y="0" flags="0x4"/>
    </TTGlyph>
    <TTGlyph name="ocircumflex" xMin="50" yMin="-12" xMax="429" yMax="690">
      <component glyphName="o" x="0" y="0" flags="0x204"/>
      <component glyphName="circumflex" x="13" y="0" flags="0x4"/>
    </TTGlyph>
    <TTGlyph name="odieresis" xMin="50" yMin="-12" xMax="443" yMax="695">
      <component glyphName="o" x="0" y="0" flags="0x204"/>
      <component glyphName="dieresis" x="33" y="0" flags="0x4"/>
    </TTGlyph>
    <TTGlyph name="oe" xMin="51" yMin="-12" xMax="686" yMax="500">
      <contour>
        <pt x="263" y="500" on="1"/>
        <pt x="316" y="500" on="0"/>
        <pt x="383" y="454" on="0"/>
        <pt x="401" y="422" on="1"/>
        <pt x="428" y="455" on="0"/>
        <pt x="502" y="500" on="0"/>
        <pt x="551" y="500" on="1"/>
        <pt x="615" y="500" on="0"/>
        <pt x="686" y="434" on="0"/>
        <pt x="685" y="380" on="1"/>
        <pt x="685" y="342" on="0"/>
        <pt x="655" y="276" on="0"/>
        <pt x="589" y="222" on="0"/>
        <pt x="483" y="184" on="0"/>
        <pt x="406" y="175" on="1"/>
        <pt x="403" y="155" on="1"/>
        <pt x="402" y="149" on="0"/>
        <pt x="401" y="138" on="0"/>
        <pt x="401" y="133" on="1"/>
        <pt x="401" y="63" on="0"/>
        <pt x="490" y="63" on="1"/>
        <pt x="506" y="63" on="0"/>
        <pt x="546" y="70" on="0"/>
        <pt x="586" y="81" on="0"/>
        <pt x="623" y="95" on="0"/>
        <pt x="637" y="101" on="1"/>
        <pt x="622" y="24" on="1"/>
        <pt x="588" y="8" on="0"/>
        <pt x="507" y="-12" on="0"/>
        <pt x="478" y="-12" on="1"/>
        <pt x="431" y="-12" on="0"/>
        <pt x="370" y="25" on="0"/>
        <pt x="351" y="53" on="1"/>
        <pt x="328" y="25" on="0"/>
        <pt x="260" y="-12" on="0"/>
        <pt x="214" y="-12" on="1"/>
        <pt x="132" y="-12" on="0"/>
        <pt x="51" y="68" on="0"/>
        <pt x="51" y="137" on="1"/>
        <pt x="51" y="154" on="1"/>
        <pt x="51" y="164" on="0"/>
        <pt x="53" y="173" on="1"/>
        <pt x="74" y="322" on="1"/>
        <pt x="86" y="406" on="0"/>
        <pt x="174" y="500" on="0"/>
      </contour>
      <contour>
        <pt x="342" y="322" on="1"/>
        <pt x="343" y="328" on="0"/>
        <pt x="344" y="340" on="0"/>
        <pt x="344" y="345" on="1"/>
        <pt x="344" y="386" on="0"/>
        <pt x="300" y="429" on="0"/>
        <pt x="262" y="429" on="1"/>
        <pt x="220" y="429" on="0"/>
        <pt x="168" y="381" on="0"/>
        <pt x="160" y="327" on="1"/>
        <pt x="137" y="165" on="1"/>
        <pt x="136" y="159" on="0"/>
        <pt x="135" y="148" on="0"/>
        <pt x="135" y="143" on="1"/>
        <pt x="135" y="102" on="0"/>
        <pt x="180" y="59" on="0"/>
        <pt x="218" y="59" on="1"/>
        <pt x="262" y="59" on="0"/>
        <pt x="311" y="108" on="0"/>
        <pt x="319" y="161" on="1"/>
      </contour>
      <contour>
        <pt x="415" y="235" on="1"/>
        <pt x="501" y="249" on="0"/>
        <pt x="600" y="324" on="0"/>
        <pt x="600" y="370" on="1"/>
        <pt x="600" y="396" on="0"/>
        <pt x="566" y="429" on="0"/>
        <pt x="536" y="429" on="1"/>
        <pt x="494" y="429" on="0"/>
        <pt x="432" y="351" on="0"/>
        <pt x="421" y="276" on="1"/>
      </contour>
    </TTGlyph>
    <TTGlyph name="ograve" xMin="50" yMin="-12" xMax="429" yMax="685">
      <component glyphName="o" x="0" y="0" flags="0x204"/>
      <component glyphName="grave" x="50" y="0" flags="0x4"/>
    </TTGlyph>
    <TTGlyph name="one" xMin="76" yMin="0" xMax="403" yMax="601">
      <contour>
        <pt x="76" y="0" on="1"/>
        <pt x="85" y="70" on="1"/>
        <pt x="206" y="70" on="1"/>
        <pt x="269" y="517" on="1"/>
        <pt x="267" y="517" on="1"/>
        <pt x="126" y="462" on="1"/>
        <pt x="120" y="535" on="1"/>
        <pt x="293" y="601" on="1"/>
        <pt x="366" y="601" on="1"/>
        <pt x="291" y="70" on="1"/>
        <pt x="403" y="70" on="1"/>
        <pt x="394" y="0" on="1"/>
      </contour>
    </TTGlyph>
    <TTGlyph name="onehalf" xMin="64" yMin="0" xMax="955" yMax="602">
      <contour>
        <pt x="271" y="0" on="1"/>
        <pt x="660" y="601" on="1"/>
        <pt x="743" y="601" on="1"/>
        <pt x="354" y="0" on="1"/>
      </contour>
      <contour>
        <pt x="806" y="365" on="1"/>
        <pt x="783" y="365" on="0"/>
        <pt x="727" y="353" on="0"/>
        <pt x="706" y="344" on="1"/>
        <pt x="715" y="410" on="1"/>
        <pt x="741" y="418" on="0"/>
        <pt x="800" y="429" on="0"/>
        <pt x="820" y="429" on="1"/>
        <pt x="897" y="429" on="0"/>
        <pt x="955" y="366" on="0"/>
        <pt x="948" y="314" on="1"/>
        <pt x="947" y="306" on="1"/>
        <pt x="942" y="271" on="0"/>
        <pt x="904" y="209" on="0"/>
        <pt x="862" y="170" on="1"/>
        <pt x="748" y="64" on="1"/>
        <pt x="913" y="64" on="1"/>
        <pt x="904" y="0" on="1"/>
        <pt x="648" y="0" on="1"/>
        <pt x="656" y="56" on="1"/>
        <pt x="828" y="230" on="1"/>
        <pt x="844" y="246" on="0"/>
        <pt x="868" y="278" on="0"/>
        <pt x="871" y="304" on="1"/>
        <pt x="872" y="313" on="1"/>
        <pt x="875" y="338" on="0"/>
        <pt x="845" y="365" on="0"/>
      </contour>
      <contour>
        <pt x="64" y="181" on="1"/>
        <pt x="73" y="245" on="1"/>
        <pt x="165" y="245" on="1"/>
        <pt x="206" y="529" on="1"/>
        <pt x="101" y="487" on="1"/>
        <pt x="95" y="554" on="1"/>
        <pt x="230" y="602" on="1"/>
        <pt x="296" y="602" on="1"/>
        <pt x="246" y="245" on="1"/>
        <pt x="325" y="245" on="1"/>
        <pt x="316" y="181" on="1"/>
      </contour>
    </TTGlyph>
    <TTGlyph name="onequarter" xMin="64" yMin="0" xMax="966" yMax="602">
      <contour>
        <pt x="271" y="0" on="1"/>
        <pt x="660" y="601" on="1"/>
        <pt x="743" y="601" on="1"/>
        <pt x="354" y="0" on="1"/>
      </contour>
      <contour>
        <pt x="860" y="421" on="1"/>
        <pt x="729" y="152" on="1"/>
        <pt x="834" y="152" on="1"/>
        <pt x="853" y="286" on="1"/>
        <pt x="929" y="286" on="1"/>
        <pt x="910" y="152" on="1"/>
        <pt x="966" y="152" on="1"/>
        <pt x="958" y="90" on="1"/>
        <pt x="902" y="90" on="1"/>
        <pt x="889" y="0" on="1"/>
        <pt x="812" y="0" on="1"/>
        <pt x="825" y="90" on="1"/>
        <pt x="654" y="90" on="1"/>
        <pt x="639" y="132" on="1"/>
        <pt x="784" y="421" on="1"/>
      </contour>
      <contour>
        <pt x="64" y="181" on="1"/>
        <pt x="73" y="245" on="1"/>
        <pt x="165" y="245" on="1"/>
        <pt x="206" y="529" on="1"/>
        <pt x="101" y="487" on="1"/>
        <pt x="95" y="554" on="1"/>
        <pt x="230" y="602" on="1"/>
        <pt x="296" y="602" on="1"/>
        <pt x="246" y="245" on="1"/>
        <pt x="325" y="245" on="1"/>
        <pt x="316" y="181" on="1"/>
      </contour>
    </TTGlyph>
    <TTGlyph name="onesuperior" xMin="64" yMin="181" xMax="325" yMax="602">
      <contour>
        <pt x="64" y="181" on="1"/>
        <pt x="73" y="245" on="1"/>
        <pt x="165" y="245" on="1"/>
        <pt x="206" y="529" on="1"/>
        <pt x="101" y="487" on="1"/>
        <pt x="95" y="554" on="1"/>
        <pt x="230" y="602" on="1"/>
        <pt x="296" y="602" on="1"/>
        <pt x="246" y="245" on="1"/>
        <pt x="325" y="245" on="1"/>
        <pt x="316" y="181" on="1"/>
      </contour>
    </TTGlyph>
    <TTGlyph name="ordfeminine" xMin="50" yMin="0" xMax="481" yMax="667">
      <contour>
        <pt x="113" y="498" on="1"/>
        <pt x="127" y="583" on="0"/>
        <pt x="210" y="667" on="0"/>
        <pt x="274" y="667" on="1"/>
        <pt x="311" y="667" on="0"/>
        <pt x="374" y="629" on="0"/>
        <pt x="394" y="608" on="1"/>
        <pt x="401" y="655" on="1"/>
        <pt x="481" y="655" on="1"/>
        <pt x="422" y="226" on="1"/>
        <pt x="341" y="226" on="1"/>
        <pt x="349" y="284" on="1"/>
        <pt x="390" y="409" on="1"/>
        <pt x="388" y="411" on="1"/>
        <pt x="385" y="410" on="1"/>
        <pt x="349" y="304" on="0"/>
        <pt x="256" y="214" on="0"/>
        <pt x="202" y="214" on="1"/>
        <pt x="151" y="214" on="0"/>
        <pt x="91" y="285" on="0"/>
        <pt x="91" y="348" on="1"/>
        <pt x="91" y="359" on="0"/>
        <pt x="93" y="381" on="0"/>
        <pt x="95" y="393" on="1"/>
      </contour>
      <contour>
        <pt x="226" y="290" on="1"/>
        <pt x="256" y="290" on="0"/>
        <pt x="307" y="333" on="0"/>
        <pt x="346" y="399" on="0"/>
        <pt x="372" y="477" on="0"/>
        <pt x="377" y="512" on="1"/>
        <pt x="381" y="540" on="1"/>
        <pt x="363" y="563" on="0"/>
        <pt x="312" y="591" on="0"/>
        <pt x="288" y="591" on="1"/>
        <pt x="252" y="591" on="0"/>
        <pt x="207" y="549" on="0"/>
        <pt x="197" y="490" on="1"/>
        <pt x="182" y="404" on="1"/>
        <pt x="180" y="390" on="0"/>
        <pt x="177" y="366" on="0"/>
        <pt x="177" y="355" on="1"/>
        <pt x="177" y="319" on="0"/>
        <pt x="203" y="290" on="0"/>
      </contour>
      <contour>
        <pt x="50" y="0" on="1"/>
        <pt x="60" y="73" on="1"/>
        <pt x="399" y="73" on="1"/>
        <pt x="389" y="0" on="1"/>
      </contour>
    </TTGlyph>
    <TTGlyph name="ordmasculine" xMin="49" yMin="0" xMax="467" yMax="667">
      <contour>
        <pt x="49" y="0" on="1"/>
        <pt x="59" y="73" on="1"/>
        <pt x="401" y="73" on="1"/>
        <pt x="391" y="0" on="1"/>
      </contour>
      <contour>
        <pt x="381" y="491" on="1"/>
        <pt x="382" y="497" on="0"/>
        <pt x="383" y="509" on="0"/>
        <pt x="383" y="514" on="1"/>
        <pt x="383" y="554" on="0"/>
        <pt x="339" y="596" on="0"/>
        <pt x="301" y="596" on="1"/>
        <pt x="214" y="596" on="0"/>
        <pt x="199" y="494" on="1"/>
        <pt x="183" y="392" on="1"/>
        <pt x="182" y="386" on="0"/>
        <pt x="181" y="373" on="0"/>
        <pt x="181" y="368" on="1"/>
        <pt x="181" y="328" on="0"/>
        <pt x="226" y="286" on="0"/>
        <pt x="264" y="286" on="1"/>
        <pt x="307" y="286" on="0"/>
        <pt x="359" y="337" on="0"/>
        <pt x="365" y="388" on="1"/>
      </contour>
      <contour>
        <pt x="451" y="394" on="1"/>
        <pt x="438" y="308" on="0"/>
        <pt x="352" y="215" on="0"/>
        <pt x="261" y="215" on="1"/>
        <pt x="179" y="215" on="0"/>
        <pt x="96" y="294" on="0"/>
        <pt x="96" y="362" on="1"/>
        <pt x="96" y="380" on="0"/>
        <pt x="99" y="400" on="1"/>
        <pt x="113" y="489" on="1"/>
        <pt x="125" y="573" on="0"/>
        <pt x="213" y="667" on="0"/>
        <pt x="305" y="667" on="1"/>
        <pt x="387" y="667" on="0"/>
        <pt x="467" y="588" on="0"/>
        <pt x="467" y="520" on="1"/>
        <pt x="467" y="501" on="0"/>
        <pt x="464" y="482" on="1"/>
      </contour>
    </TTGlyph>
    <TTGlyph name="oslash" xMin="-41" yMin="-51" xMax="521" yMax="538">
      <contour>
        <pt x="-41" y="-51" on="1"/>
        <pt x="60" y="74" on="1"/>
        <pt x="50" y="100" on="0"/>
        <pt x="50" y="134" on="1"/>
        <pt x="50" y="152" on="0"/>
        <pt x="53" y="172" on="1"/>
        <pt x="73" y="316" on="1"/>
        <pt x="85" y="405" on="0"/>
        <pt x="185" y="500" on="0"/>
        <pt x="266" y="500" on="1"/>
        <pt x="336" y="500" on="0"/>
        <pt x="378" y="469" on="1"/>
        <pt x="433" y="538" on="1"/>
        <pt x="521" y="538" on="1"/>
        <pt x="420" y="411" on="1"/>
        <pt x="429" y="385" on="0"/>
        <pt x="429" y="353" on="1"/>
        <pt x="429" y="334" on="0"/>
        <pt x="426" y="315" on="1"/>
        <pt x="407" y="176" on="1"/>
        <pt x="395" y="87" on="0"/>
        <pt x="297" y="-12" on="0"/>
        <pt x="215" y="-12" on="1"/>
        <pt x="178" y="-12" on="0"/>
        <pt x="122" y="4" on="0"/>
        <pt x="102" y="18" on="1"/>
        <pt x="46" y="-51" on="1"/>
      </contour>
      <contour>
        <pt x="137" y="165" on="1"/>
        <pt x="136" y="162" on="0"/>
        <pt x="136" y="157" on="1"/>
        <pt x="329" y="397" on="1"/>
        <pt x="308" y="429" on="0"/>
        <pt x="262" y="429" on="1"/>
        <pt x="220" y="429" on="0"/>
        <pt x="168" y="381" on="0"/>
        <pt x="160" y="327" on="1"/>
      </contour>
      <contour>
        <pt x="342" y="322" on="1"/>
        <pt x="342" y="327" on="1"/>
        <pt x="151" y="89" on="1"/>
        <pt x="172" y="59" on="0"/>
        <pt x="218" y="59" on="1"/>
        <pt x="262" y="59" on="0"/>
        <pt x="311" y="108" on="0"/>
        <pt x="319" y="161" on="1"/>
      </contour>
    </TTGlyph>
    <TTGlyph name="otilde" xMin="50" yMin="-12" xMax="429" yMax="685">
      <component glyphName="o" x="0" y="0" flags="0x204"/>
      <component glyphName="tilde" x="13" y="0" flags="0x4"/>
    </TTGlyph>
    <TTGlyph name="p" xMin="-7" yMin="-185" xMax="434" yMax="500">
      <contour>
        <pt x="399" y="148" on="1"/>
        <pt x="369" y="-12" on="0"/>
        <pt x="242" y="-12" on="1"/>
        <pt x="212" y="-12" on="0"/>
        <pt x="148" y="15" on="0"/>
        <pt x="124" y="38" on="1"/>
        <pt x="113" y="-25" on="0"/>
        <pt x="89" y="-140" on="0"/>
        <pt x="77" y="-185" on="1"/>
        <pt x="-7" y="-185" on="1"/>
        <pt x="7" y="-129" on="0"/>
        <pt x="36" y="19" on="0"/>
        <pt x="47" y="97" on="1"/>
        <pt x="103" y="488" on="1"/>
        <pt x="183" y="488" on="1"/>
        <pt x="175" y="430" on="1"/>
        <pt x="129" y="254" on="1"/>
        <pt x="131" y="252" on="1"/>
        <pt x="134" y="254" on="1"/>
        <pt x="169" y="374" on="0"/>
        <pt x="259" y="500" on="0"/>
        <pt x="321" y="500" on="1"/>
        <pt x="372" y="500" on="0"/>
        <pt x="434" y="432" on="0"/>
        <pt x="434" y="363" on="1"/>
        <pt x="434" y="348" on="0"/>
        <pt x="430" y="315" on="0"/>
        <pt x="427" y="297" on="1"/>
      </contour>
      <contour>
        <pt x="301" y="424" on="1"/>
        <pt x="275" y="424" on="0"/>
        <pt x="224" y="374" on="0"/>
        <pt x="180" y="294" on="0"/>
        <pt x="147" y="194" on="0"/>
        <pt x="140" y="145" on="1"/>
        <pt x="133" y="99" on="1"/>
        <pt x="153" y="82" on="0"/>
        <pt x="201" y="63" on="0"/>
        <pt x="221" y="63" on="1"/>
        <pt x="258" y="63" on="0"/>
        <pt x="305" y="108" on="0"/>
        <pt x="316" y="160" on="1"/>
        <pt x="342" y="292" on="1"/>
        <pt x="348" y="325" on="0"/>
        <pt x="348" y="349" on="1"/>
        <pt x="348" y="389" on="0"/>
        <pt x="321" y="424" on="0"/>
      </contour>
    </TTGlyph>
    <TTGlyph name="paragraph" xMin="39" yMin="-185" xMax="526" yMax="683">
      <contour>
        <pt x="127" y="-185" on="1"/>
        <pt x="197" y="312" on="1"/>
        <pt x="155" y="312" on="1"/>
        <pt x="101" y="312" on="0"/>
        <pt x="39" y="371" on="0"/>
        <pt x="39" y="423" on="1"/>
        <pt x="39" y="429" on="0"/>
        <pt x="40" y="442" on="0"/>
        <pt x="41" y="449" on="1"/>
        <pt x="58" y="570" on="1"/>
        <pt x="66" y="627" on="0"/>
        <pt x="134" y="683" on="0"/>
        <pt x="197" y="683" on="1"/>
        <pt x="335" y="683" on="1"/>
        <pt x="213" y="-185" on="1"/>
      </contour>
      <contour>
        <pt x="526" y="683" on="1"/>
        <pt x="404" y="-185" on="1"/>
        <pt x="318" y="-185" on="1"/>
        <pt x="440" y="683" on="1"/>
      </contour>
      <contour>
        <pt x="126" y="462" on="1"/>
        <pt x="125" y="456" on="0"/>
        <pt x="124" y="444" on="0"/>
        <pt x="124" y="439" on="1"/>
        <pt x="124" y="411" on="0"/>
        <pt x="147" y="388" on="0"/>
        <pt x="170" y="388" on="1"/>
        <pt x="207" y="388" on="1"/>
        <pt x="238" y="610" on="1"/>
        <pt x="197" y="610" on="1"/>
        <pt x="169" y="610" on="0"/>
        <pt x="142" y="583" on="0"/>
        <pt x="137" y="544" on="1"/>
      </contour>
    </TTGlyph>
    <TTGlyph name="parenleft" xMin="125" yMin="-119" xMax="404" yMax="786">
      <contour>
        <pt x="209" y="616" on="1"/>
        <pt x="216" y="664" on="0"/>
        <pt x="234" y="729" on="0"/>
        <pt x="264" y="769" on="0"/>
        <pt x="309" y="786" on="0"/>
        <pt x="342" y="786" on="1"/>
        <pt x="356" y="786" on="0"/>
        <pt x="387" y="783" on="0"/>
        <pt x="404" y="781" on="1"/>
        <pt x="394" y="709" on="1"/>
        <pt x="382" y="711" on="0"/>
        <pt x="361" y="713" on="0"/>
        <pt x="353" y="713" on="1"/>
        <pt x="339" y="713" on="0"/>
        <pt x="321" y="706" on="0"/>
        <pt x="308" y="688" on="0"/>
        <pt x="300" y="658" on="0"/>
        <pt x="297" y="635" on="1"/>
        <pt x="214" y="46" on="1"/>
        <pt x="210" y="23" on="0"/>
        <pt x="210" y="3" on="1"/>
        <pt x="210" y="-26" on="0"/>
        <pt x="243" y="-46" on="0"/>
        <pt x="287" y="-47" on="1"/>
        <pt x="277" y="-119" on="1"/>
        <pt x="234" y="-119" on="0"/>
        <pt x="176" y="-109" on="0"/>
        <pt x="140" y="-85" on="0"/>
        <pt x="125" y="-43" on="0"/>
        <pt x="125" y="-11" on="1"/>
        <pt x="125" y="5" on="0"/>
        <pt x="129" y="43" on="0"/>
        <pt x="132" y="65" on="1"/>
      </contour>
    </TTGlyph>
    <TTGlyph name="parenright" xMin="128" yMin="-118" xMax="407" yMax="787">
      <contour>
        <pt x="323" y="52" on="1"/>
        <pt x="316" y="4" on="0"/>
        <pt x="298" y="-61" on="0"/>
        <pt x="268" y="-101" on="0"/>
        <pt x="223" y="-118" on="0"/>
        <pt x="190" y="-118" on="1"/>
        <pt x="176" y="-118" on="0"/>
        <pt x="145" y="-115" on="0"/>
        <pt x="128" y="-113" on="1"/>
        <pt x="138" y="-41" on="1"/>
        <pt x="150" y="-43" on="0"/>
        <pt x="171" y="-45" on="0"/>
        <pt x="179" y="-45" on="1"/>
        <pt x="193" y="-45" on="0"/>
        <pt x="211" y="-38" on="0"/>
        <pt x="224" y="-20" on="0"/>
        <pt x="232" y="10" on="0"/>
        <pt x="235" y="33" on="1"/>
        <pt x="318" y="622" on="1"/>
        <pt x="322" y="645" on="0"/>
        <pt x="322" y="665" on="1"/>
        <pt x="322" y="694" on="0"/>
        <pt x="289" y="713" on="0"/>
        <pt x="245" y="715" on="1"/>
        <pt x="255" y="787" on="1"/>
        <pt x="298" y="787" on="0"/>
        <pt x="356" y="777" on="0"/>
        <pt x="392" y="753" on="0"/>
        <pt x="407" y="711" on="0"/>
        <pt x="407" y="679" on="1"/>
        <pt x="407" y="663" on="0"/>
        <pt x="403" y="625" on="0"/>
        <pt x="400" y="603" on="1"/>
      </contour>
    </TTGlyph>
    <TTGlyph name="percent" xMin="81" yMin="-12" xMax="845" yMax="613">
      <contour>
        <pt x="399" y="419" on="1"/>
        <pt x="378" y="263" on="0"/>
        <pt x="225" y="263" on="1"/>
        <pt x="156" y="263" on="0"/>
        <pt x="81" y="336" on="0"/>
        <pt x="81" y="398" on="1"/>
        <pt x="81" y="414" on="0"/>
        <pt x="84" y="434" on="1"/>
        <pt x="89" y="464" on="1"/>
        <pt x="102" y="541" on="0"/>
        <pt x="184" y="613" on="0"/>
        <pt x="263" y="613" on="1"/>
        <pt x="333" y="613" on="0"/>
        <pt x="405" y="545" on="0"/>
        <pt x="405" y="482" on="1"/>
        <pt x="405" y="465" on="1"/>
        <pt x="405" y="457" on="0"/>
        <pt x="403" y="449" on="1"/>
      </contour>
      <contour>
        <pt x="839" y="144" on="1"/>
        <pt x="818" y="-12" on="0"/>
        <pt x="665" y="-12" on="1"/>
        <pt x="596" y="-12" on="0"/>
        <pt x="521" y="61" on="0"/>
        <pt x="521" y="123" on="1"/>
        <pt x="521" y="139" on="0"/>
        <pt x="524" y="159" on="1"/>
        <pt x="529" y="189" on="1"/>
        <pt x="542" y="266" on="0"/>
        <pt x="624" y="338" on="0"/>
        <pt x="703" y="338" on="1"/>
        <pt x="773" y="338" on="0"/>
        <pt x="845" y="270" on="0"/>
        <pt x="845" y="207" on="1"/>
        <pt x="845" y="190" on="1"/>
        <pt x="845" y="182" on="0"/>
        <pt x="843" y="174" on="1"/>
      </contour>
      <contour>
        <pt x="303" y="0" on="1"/>
        <pt x="212" y="0" on="1"/>
        <pt x="633" y="613" on="1"/>
        <pt x="724" y="613" on="1"/>
      </contour>
      <contour>
        <pt x="318" y="451" on="1"/>
        <pt x="319" y="457" on="0"/>
        <pt x="320" y="469" on="0"/>
        <pt x="320" y="474" on="1"/>
        <pt x="320" y="508" on="0"/>
        <pt x="287" y="538" on="0"/>
        <pt x="255" y="538" on="1"/>
        <pt x="219" y="538" on="0"/>
        <pt x="179" y="500" on="0"/>
        <pt x="173" y="456" on="1"/>
        <pt x="169" y="426" on="1"/>
        <pt x="168" y="420" on="0"/>
        <pt x="167" y="408" on="0"/>
        <pt x="167" y="403" on="1"/>
        <pt x="167" y="338" on="0"/>
        <pt x="233" y="338" on="1"/>
        <pt x="269" y="338" on="0"/>
        <pt x="308" y="376" on="0"/>
        <pt x="314" y="421" on="1"/>
      </contour>
      <contour>
        <pt x="758" y="176" on="1"/>
        <pt x="759" y="182" on="0"/>
        <pt x="760" y="194" on="0"/>
        <pt x="760" y="199" on="1"/>
        <pt x="760" y="233" on="0"/>
        <pt x="727" y="263" on="0"/>
        <pt x="695" y="263" on="1"/>
        <pt x="659" y="263" on="0"/>
        <pt x="619" y="225" on="0"/>
        <pt x="613" y="181" on="1"/>
        <pt x="609" y="151" on="1"/>
        <pt x="608" y="145" on="0"/>
        <pt x="607" y="133" on="0"/>
        <pt x="607" y="128" on="1"/>
        <pt x="607" y="63" on="0"/>
        <pt x="673" y="63" on="1"/>
        <pt x="709" y="63" on="0"/>
        <pt x="748" y="101" on="0"/>
        <pt x="754" y="146" on="1"/>
      </contour>
    </TTGlyph>
    <TTGlyph name="period" xMin="16" yMin="-12" xMax="137" yMax="108">
      <contour>
        <pt x="130" y="30" on="1"/>
        <pt x="127" y="10" on="0"/>
        <pt x="100" y="-12" on="0"/>
        <pt x="71" y="-12" on="1"/>
        <pt x="43" y="-12" on="0"/>
        <pt x="16" y="16" on="0"/>
        <pt x="19" y="36" on="1"/>
        <pt x="22" y="59" on="1"/>
        <pt x="25" y="85" on="0"/>
        <pt x="52" y="108" on="0"/>
        <pt x="81" y="108" on="1"/>
        <pt x="109" y="108" on="0"/>
        <pt x="137" y="81" on="0"/>
        <pt x="134" y="59" on="1"/>
      </contour>
    </TTGlyph>
    <TTGlyph name="periodcentered" xMin="16" yMin="189" xMax="137" yMax="309">
      <component glyphName="period" x="0" y="201" flags="0x204"/>
    </TTGlyph>
    <TTGlyph name="plus" xMin="79" yMin="113" xMax="445" yMax="488">
      <contour>
        <pt x="295" y="265" on="1"/>
        <pt x="273" y="113" on="1"/>
        <pt x="197" y="113" on="1"/>
        <pt x="219" y="265" on="1"/>
        <pt x="79" y="265" on="1"/>
        <pt x="89" y="336" on="1"/>
        <pt x="229" y="336" on="1"/>
        <pt x="250" y="488" on="1"/>
        <pt x="326" y="488" on="1"/>
        <pt x="305" y="336" on="1"/>
        <pt x="445" y="336" on="1"/>
        <pt x="435" y="265" on="1"/>
      </contour>
    </TTGlyph>
    <TTGlyph name="plusminus" xMin="41" yMin="0" xMax="445" yMax="488">
      <contour>
        <pt x="41" y="0" on="1"/>
        <pt x="50" y="70" on="1"/>
        <pt x="406" y="70" on="1"/>
        <pt x="397" y="0" on="1"/>
      </contour>
      <contour>
        <pt x="295" y="265" on="1"/>
        <pt x="273" y="113" on="1"/>
        <pt x="197" y="113" on="1"/>
        <pt x="219" y="265" on="1"/>
        <pt x="79" y="265" on="1"/>
        <pt x="89" y="336" on="1"/>
        <pt x="229" y="336" on="1"/>
        <pt x="250" y="488" on="1"/>
        <pt x="326" y="488" on="1"/>
        <pt x="305" y="336" on="1"/>
        <pt x="445" y="336" on="1"/>
        <pt x="435" y="265" on="1"/>
      </contour>
    </TTGlyph>
    <TTGlyph name="q" xMin="47" yMin="-185" xMax="446" yMax="500">
      <contour>
        <pt x="77" y="327" on="1"/>
        <pt x="91" y="415" on="0"/>
        <pt x="179" y="500" on="0"/>
        <pt x="239" y="500" on="1"/>
        <pt x="274" y="500" on="0"/>
        <pt x="335" y="467" on="0"/>
        <pt x="359" y="439" on="1"/>
        <pt x="366" y="488" on="1"/>
        <pt x="446" y="488" on="1"/>
        <pt x="351" y="-185" on="1"/>
        <pt x="266" y="-185" on="1"/>
        <pt x="297" y="28" on="1"/>
        <pt x="347" y="190" on="1"/>
        <pt x="345" y="192" on="1"/>
        <pt x="342" y="191" on="1"/>
        <pt x="306" y="83" on="0"/>
        <pt x="212" y="-12" on="0"/>
        <pt x="158" y="-12" on="1"/>
        <pt x="110" y="-12" on="0"/>
        <pt x="47" y="54" on="0"/>
        <pt x="47" y="118" on="1"/>
        <pt x="47" y="129" on="0"/>
        <pt x="49" y="152" on="0"/>
        <pt x="51" y="164" on="1"/>
      </contour>
      <contour>
        <pt x="182" y="64" on="1"/>
        <pt x="212" y="64" on="0"/>
        <pt x="263" y="108" on="0"/>
        <pt x="302" y="174" on="0"/>
        <pt x="328" y="252" on="0"/>
        <pt x="333" y="286" on="1"/>
        <pt x="346" y="373" on="1"/>
        <pt x="326" y="399" on="0"/>
        <pt x="276" y="427" on="0"/>
        <pt x="250" y="427" on="1"/>
        <pt x="217" y="427" on="0"/>
        <pt x="171" y="378" on="0"/>
        <pt x="162" y="322" on="1"/>
        <pt x="138" y="175" on="1"/>
        <pt x="136" y="161" on="0"/>
        <pt x="133" y="137" on="0"/>
        <pt x="133" y="127" on="1"/>
        <pt x="133" y="92" on="0"/>
        <pt x="159" y="64" on="0"/>
      </contour>
    </TTGlyph>
    <TTGlyph name="question" xMin="60" yMin="-12" xMax="377" yMax="695">
      <contour>
        <pt x="197" y="627" on="1"/>
        <pt x="169" y="627" on="0"/>
        <pt x="97" y="610" on="0"/>
        <pt x="70" y="599" on="1"/>
        <pt x="80" y="672" on="1"/>
        <pt x="114" y="683" on="0"/>
        <pt x="185" y="695" on="0"/>
        <pt x="211" y="695" on="1"/>
        <pt x="256" y="695" on="0"/>
        <pt x="319" y="676" on="0"/>
        <pt x="359" y="642" on="0"/>
        <pt x="377" y="596" on="0"/>
        <pt x="377" y="569" on="1"/>
        <pt x="377" y="562" on="0"/>
        <pt x="376" y="549" on="0"/>
        <pt x="375" y="542" on="1"/>
        <pt x="373" y="527" on="1"/>
        <pt x="370" y="504" on="0"/>
        <pt x="356" y="464" on="0"/>
        <pt x="331" y="424" on="0"/>
        <pt x="292" y="382" on="0"/>
        <pt x="265" y="357" on="1"/>
        <pt x="225" y="321" on="1"/>
        <pt x="209" y="307" on="0"/>
        <pt x="190" y="269" on="0"/>
        <pt x="183" y="227" on="1"/>
        <pt x="179" y="200" on="1"/>
        <pt x="103" y="200" on="1"/>
        <pt x="107" y="228" on="1"/>
        <pt x="114" y="275" on="0"/>
        <pt x="143" y="337" on="0"/>
        <pt x="172" y="365" on="1"/>
        <pt x="231" y="422" on="1"/>
        <pt x="248" y="438" on="0"/>
        <pt x="269" y="465" on="0"/>
        <pt x="283" y="490" on="0"/>
        <pt x="289" y="518" on="0"/>
        <pt x="291" y="535" on="1"/>
        <pt x="292" y="545" on="1"/>
        <pt x="294" y="563" on="0"/>
        <pt x="287" y="593" on="0"/>
        <pt x="266" y="615" on="0"/>
        <pt x="227" y="627" on="0"/>
      </contour>
      <contour>
        <pt x="174" y="30" on="1"/>
        <pt x="171" y="10" on="0"/>
        <pt x="144" y="-12" on="0"/>
        <pt x="115" y="-12" on="1"/>
        <pt x="87" y="-12" on="0"/>
        <pt x="60" y="16" on="0"/>
        <pt x="63" y="36" on="1"/>
        <pt x="66" y="59" on="1"/>
        <pt x="69" y="85" on="0"/>
        <pt x="96" y="108" on="0"/>
        <pt x="125" y="108" on="1"/>
        <pt x="153" y="108" on="0"/>
        <pt x="181" y="81" on="0"/>
        <pt x="178" y="59" on="1"/>
      </contour>
    </TTGlyph>
    <TTGlyph name="questiondown" xMin="18" yMin="-197" xMax="335" yMax="510">
      <component glyphName="question" x="395" y="498" scale="-0.999938964844" flags="0x4"/>
    </TTGlyph>
    <TTGlyph name="quotedbl" xMin="95" yMin="429" xMax="355" yMax="683">
      <contour>
        <pt x="130" y="683" on="1"/>
        <pt x="215" y="683" on="1"/>
        <pt x="180" y="429" on="1"/>
        <pt x="95" y="429" on="1"/>
      </contour>
      <contour>
        <pt x="270" y="683" on="1"/>
        <pt x="355" y="683" on="1"/>
        <pt x="320" y="429" on="1"/>
        <pt x="235" y="429" on="1"/>
      </contour>
    </TTGlyph>
    <TTGlyph name="quotedblbase" xMin="50" yMin="-108" xMax="313" yMax="105">
      <component glyphName="quotesinglbase" x="40" y="0" flags="0x4"/>
      <component glyphName="quotesinglbase" x="180" y="0" flags="0x4"/>
    </TTGlyph>
    <TTGlyph name="quotedblleft" xMin="48" yMin="482" xMax="311" yMax="695">
      <component glyphName="quotesinglbase" x="181" y="587" scale="-0.999938964844" flags="0x4"/>
      <component glyphName="quotesinglbase" x="321" y="587" scale="-0.999938964844" flags="0x4"/>
    </TTGlyph>
    <TTGlyph name="quotedblright" xMin="50" yMin="482" xMax="313" yMax="695">
      <component glyphName="quotesinglbase" x="40" y="590" flags="0x4"/>
      <component glyphName="quotesinglbase" x="180" y="590" flags="0x4"/>
    </TTGlyph>
    <TTGlyph name="quoteleft" xMin="88" yMin="483" xMax="211" yMax="696">
      <component glyphName="quotesinglbase" x="221" y="588" scale="-0.999938964844" flags="0x4"/>
    </TTGlyph>
    <TTGlyph name="quoteright" xMin="50" yMin="482" xMax="173" yMax="695">
      <component glyphName="quotesinglbase" x="40" y="590" flags="0x204"/>
    </TTGlyph>
    <TTGlyph name="quotesinglbase" xMin="10" yMin="-108" xMax="133" yMax="105">
      <contour>
        <pt x="126" y="27" on="1"/>
        <pt x="124" y="12" on="0"/>
        <pt x="118" y="-8" on="0"/>
        <pt x="112" y="-20" on="1"/>
        <pt x="69" y="-108" on="1"/>
        <pt x="10" y="-108" on="1"/>
        <pt x="47" y="-9" on="1"/>
        <pt x="33" y="-6" on="0"/>
        <pt x="18" y="15" on="0"/>
        <pt x="18" y="29" on="1"/>
        <pt x="18" y="31" on="0"/>
        <pt x="19" y="35" on="0"/>
        <pt x="19" y="37" on="1"/>
        <pt x="23" y="64" on="1"/>
        <pt x="29" y="105" on="0"/>
        <pt x="80" y="105" on="1"/>
        <pt x="106" y="105" on="0"/>
        <pt x="133" y="79" on="0"/>
        <pt x="130" y="57" on="1"/>
      </contour>
    </TTGlyph>
    <TTGlyph name="quotesingle" xMin="95" yMin="429" xMax="215" yMax="683">
      <contour>
        <pt x="130" y="683" on="1"/>
        <pt x="215" y="683" on="1"/>
        <pt x="180" y="429" on="1"/>
        <pt x="95" y="429" on="1"/>
      </contour>
    </TTGlyph>
    <TTGlyph name="r" xMin="35" yMin="0" xMax="339" yMax="500">
      <contour>
        <pt x="35" y="0" on="1"/>
        <pt x="103" y="488" on="1"/>
        <pt x="183" y="488" on="1"/>
        <pt x="172" y="409" on="1"/>
        <pt x="127" y="240" on="1"/>
        <pt x="130" y="238" on="1"/>
        <pt x="133" y="240" on="1"/>
        <pt x="168" y="370" on="0"/>
        <pt x="268" y="500" on="0"/>
        <pt x="323" y="500" on="1"/>
        <pt x="331" y="500" on="0"/>
        <pt x="339" y="498" on="1"/>
        <pt x="323" y="391" on="1"/>
        <pt x="311" y="394" on="0"/>
        <pt x="297" y="394" on="1"/>
        <pt x="267" y="394" on="0"/>
        <pt x="213" y="342" on="0"/>
        <pt x="169" y="247" on="0"/>
        <pt x="135" y="112" on="0"/>
        <pt x="124" y="30" on="1"/>
        <pt x="120" y="0" on="1"/>
      </contour>
    </TTGlyph>
    <TTGlyph name="rcaron" xMin="35" yMin="0" xMax="360" yMax="690">
      <component glyphName="r" x="0" y="0" flags="0x204"/>
      <component glyphName="caron" x="-56" y="0" flags="0x4"/>
    </TTGlyph>
    <TTGlyph name="rcommaaccent" xMin="14" yMin="-226" xMax="339" yMax="500">
      <contour>
        <pt x="109" y="-122" on="1"/>
        <pt x="107" y="-135" on="0"/>
        <pt x="100" y="-154" on="0"/>
        <pt x="94" y="-167" on="1"/>
        <pt x="66" y="-226" on="1"/>
        <pt x="14" y="-226" on="1"/>
        <pt x="40" y="-155" on="1"/>
        <pt x="15" y="-146" on="0"/>
        <pt x="15" y="-122" on="1"/>
        <pt x="15" y="-120" on="0"/>
        <pt x="16" y="-115" on="0"/>
        <pt x="16" y="-113" on="1"/>
        <pt x="19" y="-93" on="1"/>
        <pt x="22" y="-74" on="0"/>
        <pt x="42" y="-56" on="0"/>
        <pt x="65" y="-56" on="1"/>
        <pt x="113" y="-56" on="0"/>
        <pt x="113" y="-92" on="1"/>
        <pt x="113" y="-99" on="0"/>
        <pt x="112" y="-102" on="1"/>
      </contour>
      <contour>
        <pt x="35" y="0" on="1"/>
        <pt x="103" y="488" on="1"/>
        <pt x="183" y="488" on="1"/>
        <pt x="172" y="409" on="1"/>
        <pt x="127" y="240" on="1"/>
        <pt x="130" y="238" on="1"/>
        <pt x="133" y="240" on="1"/>
        <pt x="168" y="370" on="0"/>
        <pt x="268" y="500" on="0"/>
        <pt x="323" y="500" on="1"/>
        <pt x="331" y="500" on="0"/>
        <pt x="339" y="498" on="1"/>
        <pt x="323" y="391" on="1"/>
        <pt x="311" y="394" on="0"/>
        <pt x="297" y="394" on="1"/>
        <pt x="267" y="394" on="0"/>
        <pt x="213" y="342" on="0"/>
        <pt x="169" y="247" on="0"/>
        <pt x="135" y="112" on="0"/>
        <pt x="124" y="30" on="1"/>
        <pt x="120" y="0" on="1"/>
      </contour>
    </TTGlyph>
    <TTGlyph name="registered" xMin="100" yMin="299" xMax="493" yMax="695">
      <contour>
        <pt x="487" y="468" on="1"/>
        <pt x="481" y="426" on="0"/>
        <pt x="454" y="363" on="0"/>
        <pt x="404" y="320" on="0"/>
        <pt x="330" y="299" on="0"/>
        <pt x="278" y="299" on="1"/>
        <pt x="186" y="299" on="0"/>
        <pt x="100" y="385" on="0"/>
        <pt x="100" y="454" on="1"/>
        <pt x="100" y="472" on="0"/>
        <pt x="103" y="492" on="1"/>
        <pt x="108" y="526" on="1"/>
        <pt x="114" y="568" on="0"/>
        <pt x="139" y="631" on="0"/>
        <pt x="185" y="674" on="0"/>
        <pt x="257" y="695" on="0"/>
        <pt x="310" y="695" on="1"/>
        <pt x="405" y="695" on="0"/>
        <pt x="493" y="614" on="0"/>
        <pt x="493" y="539" on="1"/>
        <pt x="493" y="520" on="1"/>
        <pt x="493" y="511" on="0"/>
        <pt x="491" y="501" on="1"/>
      </contour>
      <contour>
        <pt x="445" y="514" on="1"/>
        <pt x="446" y="521" on="0"/>
        <pt x="447" y="533" on="0"/>
        <pt x="447" y="539" on="1"/>
        <pt x="447" y="591" on="0"/>
        <pt x="378" y="651" on="0"/>
        <pt x="309" y="651" on="1"/>
        <pt x="232" y="651" on="0"/>
        <pt x="165" y="595" on="0"/>
        <pt x="157" y="533" on="1"/>
        <pt x="150" y="481" on="1"/>
        <pt x="149" y="474" on="0"/>
        <pt x="148" y="461" on="0"/>
        <pt x="148" y="454" on="1"/>
        <pt x="148" y="403" on="0"/>
        <pt x="212" y="343" on="0"/>
        <pt x="281" y="343" on="1"/>
        <pt x="358" y="343" on="0"/>
        <pt x="429" y="399" on="0"/>
        <pt x="438" y="461" on="1"/>
      </contour>
      <contour>
        <pt x="207" y="382" on="1"/>
        <pt x="240" y="612" on="1"/>
        <pt x="260" y="614" on="0"/>
        <pt x="298" y="617" on="0"/>
        <pt x="311" y="617" on="1"/>
        <pt x="354" y="617" on="0"/>
        <pt x="395" y="579" on="0"/>
        <pt x="395" y="550" on="1"/>
        <pt x="395" y="542" on="0"/>
        <pt x="394" y="537" on="1"/>
        <pt x="393" y="531" on="1"/>
        <pt x="385" y="488" on="0"/>
        <pt x="339" y="472" on="1"/>
        <pt x="383" y="382" on="1"/>
        <pt x="334" y="382" on="1"/>
        <pt x="325" y="407" on="0"/>
        <pt x="306" y="449" on="0"/>
        <pt x="296" y="466" on="1"/>
        <pt x="278" y="466" on="0"/>
        <pt x="262" y="469" on="1"/>
        <pt x="250" y="382" on="1"/>
      </contour>
      <contour>
        <pt x="308" y="579" on="1"/>
        <pt x="303" y="579" on="0"/>
        <pt x="283" y="578" on="0"/>
        <pt x="277" y="577" on="1"/>
        <pt x="268" y="505" on="1"/>
        <pt x="276" y="504" on="0"/>
        <pt x="296" y="503" on="0"/>
        <pt x="302" y="503" on="1"/>
        <pt x="325" y="503" on="0"/>
        <pt x="346" y="521" on="0"/>
        <pt x="349" y="535" on="1"/>
        <pt x="350" y="540" on="1"/>
        <pt x="350" y="542" on="0"/>
        <pt x="351" y="546" on="0"/>
        <pt x="351" y="548" on="1"/>
        <pt x="351" y="562" on="0"/>
        <pt x="331" y="579" on="0"/>
      </contour>
    </TTGlyph>
    <TTGlyph name="ring" xMin="124" yMin="529" xMax="350" yMax="723">
      <contour>
        <pt x="243" y="723" on="1"/>
        <pt x="290" y="723" on="0"/>
        <pt x="350" y="675" on="0"/>
        <pt x="350" y="634" on="1"/>
        <pt x="350" y="589" on="0"/>
        <pt x="290" y="529" on="0"/>
        <pt x="231" y="529" on="1"/>
        <pt x="186" y="529" on="0"/>
        <pt x="124" y="577" on="0"/>
        <pt x="124" y="619" on="1"/>
        <pt x="124" y="667" on="0"/>
        <pt x="186" y="723" on="0"/>
      </contour>
      <contour>
        <pt x="241" y="672" on="1"/>
        <pt x="211" y="672" on="0"/>
        <pt x="186" y="649" on="0"/>
        <pt x="186" y="623" on="1"/>
        <pt x="186" y="604" on="0"/>
        <pt x="211" y="580" on="0"/>
        <pt x="235" y="580" on="1"/>
        <pt x="265" y="580" on="0"/>
        <pt x="289" y="605" on="0"/>
        <pt x="289" y="632" on="1"/>
        <pt x="289" y="651" on="0"/>
        <pt x="264" y="672" on="0"/>
      </contour>
    </TTGlyph>
    <TTGlyph name="ring.cap" xMin="122" yMin="600" xMax="356" yMax="800">
      <contour>
        <pt x="248" y="800" on="1"/>
        <pt x="296" y="800" on="0"/>
        <pt x="354" y="757" on="0"/>
        <pt x="355" y="715" on="1"/>
        <pt x="356" y="657" on="0"/>
        <pt x="289" y="600" on="0"/>
        <pt x="231" y="600" on="1"/>
        <pt x="183" y="600" on="0"/>
        <pt x="124" y="645" on="0"/>
        <pt x="123" y="688" on="1"/>
        <pt x="122" y="746" on="0"/>
        <pt x="191" y="800" on="0"/>
      </contour>
      <contour>
        <pt x="244" y="745" on="1"/>
        <pt x="189" y="745" on="0"/>
        <pt x="189" y="695" on="1"/>
        <pt x="190" y="678" on="0"/>
        <pt x="210" y="655" on="0"/>
        <pt x="235" y="655" on="1"/>
        <pt x="266" y="655" on="0"/>
        <pt x="291" y="685" on="0"/>
        <pt x="290" y="708" on="1"/>
        <pt x="290" y="724" on="0"/>
        <pt x="268" y="745" on="0"/>
      </contour>
    </TTGlyph>
    <TTGlyph name="s" xMin="16" yMin="-12" xMax="334" yMax="500">
      <contour>
        <pt x="128" y="236" on="1"/>
        <pt x="88" y="255" on="0"/>
        <pt x="50" y="315" on="0"/>
        <pt x="50" y="352" on="1"/>
        <pt x="50" y="366" on="0"/>
        <pt x="53" y="381" on="1"/>
        <pt x="56" y="397" on="1"/>
        <pt x="65" y="447" on="0"/>
        <pt x="141" y="500" on="0"/>
        <pt x="214" y="500" on="1"/>
        <pt x="239" y="500" on="0"/>
        <pt x="302" y="489" on="0"/>
        <pt x="334" y="480" on="1"/>
        <pt x="322" y="403" on="1"/>
        <pt x="302" y="411" on="0"/>
        <pt x="260" y="425" on="0"/>
        <pt x="243" y="429" on="1"/>
        <pt x="235" y="430" on="0"/>
        <pt x="214" y="431" on="0"/>
        <pt x="207" y="431" on="1"/>
        <pt x="175" y="431" on="0"/>
        <pt x="138" y="404" on="0"/>
        <pt x="134" y="380" on="1"/>
        <pt x="133" y="374" on="1"/>
        <pt x="132" y="370" on="0"/>
        <pt x="132" y="362" on="1"/>
        <pt x="132" y="344" on="0"/>
        <pt x="151" y="314" on="0"/>
        <pt x="171" y="305" on="1"/>
        <pt x="253" y="267" on="1"/>
        <pt x="291" y="250" on="0"/>
        <pt x="328" y="191" on="0"/>
        <pt x="328" y="153" on="1"/>
        <pt x="328" y="143" on="1"/>
        <pt x="328" y="138" on="0"/>
        <pt x="327" y="133" on="1"/>
        <pt x="325" y="117" on="1"/>
        <pt x="318" y="60" on="0"/>
        <pt x="236" y="-12" on="0"/>
        <pt x="164" y="-12" on="1"/>
        <pt x="129" y="-12" on="0"/>
        <pt x="48" y="9" on="0"/>
        <pt x="16" y="26" on="1"/>
        <pt x="29" y="103" on="1"/>
        <pt x="49" y="92" on="0"/>
        <pt x="105" y="69" on="0"/>
        <pt x="125" y="63" on="1"/>
        <pt x="149" y="60" on="0"/>
        <pt x="164" y="60" on="1"/>
        <pt x="233" y="60" on="0"/>
        <pt x="243" y="124" on="1"/>
        <pt x="244" y="130" on="1"/>
        <pt x="245" y="134" on="0"/>
        <pt x="245" y="142" on="1"/>
        <pt x="245" y="159" on="0"/>
        <pt x="227" y="190" on="0"/>
        <pt x="208" y="199" on="1"/>
      </contour>
    </TTGlyph>
    <TTGlyph name="section" xMin="14" yMin="-118" xMax="389" yMax="695">
      <contour>
        <pt x="386" y="274" on="1"/>
        <pt x="381" y="228" on="0"/>
        <pt x="314" y="166" on="0"/>
        <pt x="261" y="155" on="1"/>
        <pt x="293" y="134" on="0"/>
        <pt x="320" y="75" on="0"/>
        <pt x="320" y="41" on="1"/>
        <pt x="320" y="30" on="1"/>
        <pt x="320" y="24" on="0"/>
        <pt x="319" y="19" on="1"/>
        <pt x="317" y="2" on="1"/>
        <pt x="311" y="-50" on="0"/>
        <pt x="234" y="-118" on="0"/>
        <pt x="150" y="-118" on="1"/>
        <pt x="126" y="-118" on="0"/>
        <pt x="60" y="-107" on="0"/>
        <pt x="28" y="-98" on="1"/>
        <pt x="40" y="-21" on="1"/>
        <pt x="60" y="-29" on="0"/>
        <pt x="104" y="-43" on="0"/>
        <pt x="121" y="-47" on="1"/>
        <pt x="129" y="-48" on="0"/>
        <pt x="150" y="-49" on="0"/>
        <pt x="157" y="-49" on="1"/>
        <pt x="197" y="-49" on="0"/>
        <pt x="235" y="-15" on="0"/>
        <pt x="238" y="12" on="1"/>
        <pt x="239" y="21" on="1"/>
        <pt x="239" y="25" on="0"/>
        <pt x="240" y="31" on="0"/>
        <pt x="240" y="34" on="1"/>
        <pt x="240" y="79" on="0"/>
        <pt x="200" y="97" on="1"/>
        <pt x="102" y="141" on="1"/>
        <pt x="58" y="161" on="0"/>
        <pt x="14" y="225" on="0"/>
        <pt x="14" y="267" on="1"/>
        <pt x="14" y="272" on="0"/>
        <pt x="15" y="286" on="0"/>
        <pt x="17" y="303" on="1"/>
        <pt x="24" y="348" on="0"/>
        <pt x="90" y="411" on="0"/>
        <pt x="141" y="422" on="1"/>
        <pt x="110" y="442" on="0"/>
        <pt x="82" y="499" on="0"/>
        <pt x="82" y="532" on="1"/>
        <pt x="82" y="542" on="0"/>
        <pt x="84" y="563" on="0"/>
        <pt x="86" y="575" on="1"/>
        <pt x="89" y="601" on="0"/>
        <pt x="110" y="645" on="0"/>
        <pt x="148" y="677" on="0"/>
        <pt x="205" y="695" on="0"/>
        <pt x="244" y="695" on="1"/>
        <pt x="268" y="695" on="0"/>
        <pt x="334" y="684" on="0"/>
        <pt x="366" y="675" on="1"/>
        <pt x="354" y="598" on="1"/>
        <pt x="334" y="606" on="0"/>
        <pt x="290" y="620" on="0"/>
        <pt x="273" y="624" on="1"/>
        <pt x="265" y="625" on="0"/>
        <pt x="244" y="626" on="0"/>
        <pt x="237" y="626" on="1"/>
        <pt x="203" y="626" on="0"/>
        <pt x="168" y="592" on="0"/>
        <pt x="165" y="565" on="1"/>
        <pt x="164" y="556" on="1"/>
        <pt x="164" y="552" on="0"/>
        <pt x="163" y="546" on="0"/>
        <pt x="163" y="543" on="1"/>
        <pt x="163" y="498" on="0"/>
        <pt x="203" y="480" on="1"/>
        <pt x="301" y="436" on="1"/>
        <pt x="389" y="396" on="0"/>
        <pt x="389" y="311" on="1"/>
        <pt x="389" y="306" on="0"/>
        <pt x="388" y="291" on="0"/>
      </contour>
      <contour>
        <pt x="99" y="295" on="1"/>
        <pt x="97" y="287" on="0"/>
        <pt x="97" y="283" on="1"/>
        <pt x="97" y="277" on="1"/>
        <pt x="97" y="231" on="0"/>
        <pt x="145" y="209" on="1"/>
        <pt x="173" y="196" on="1"/>
        <pt x="179" y="196" on="1"/>
        <pt x="225" y="196" on="0"/>
        <pt x="296" y="238" on="0"/>
        <pt x="304" y="282" on="1"/>
        <pt x="306" y="290" on="0"/>
        <pt x="306" y="293" on="1"/>
        <pt x="306" y="300" on="1"/>
        <pt x="306" y="322" on="0"/>
        <pt x="282" y="357" on="0"/>
        <pt x="258" y="368" on="1"/>
        <pt x="230" y="380" on="1"/>
        <pt x="221" y="380" on="1"/>
        <pt x="176" y="380" on="0"/>
        <pt x="106" y="338" on="0"/>
      </contour>
    </TTGlyph>
    <TTGlyph name="semicolon" xMin="-8" yMin="-161" xMax="189" yMax="500">
      <component glyphName="period" x="52" y="392" flags="0x204"/>
      <component glyphName="comma" x="0" y="0" flags="0x4"/>
    </TTGlyph>
    <TTGlyph name="seven" xMin="87" yMin="0" xMax="484" yMax="600">
      <contour>
        <pt x="484" y="600" on="1"/>
        <pt x="476" y="539" on="1"/>
        <pt x="176" y="0" on="1"/>
        <pt x="87" y="0" on="1"/>
        <pt x="384" y="525" on="1"/>
        <pt x="384" y="527" on="1"/>
        <pt x="113" y="527" on="1"/>
        <pt x="123" y="600" on="1"/>
      </contour>
    </TTGlyph>
    <TTGlyph name="six" xMin="60" yMin="-12" xMax="451" yMax="612">
      <contour>
        <pt x="91" y="396" on="1"/>
        <pt x="107" y="509" on="0"/>
        <pt x="213" y="612" on="0"/>
        <pt x="312" y="612" on="1"/>
        <pt x="328" y="612" on="0"/>
        <pt x="368" y="609" on="0"/>
        <pt x="406" y="603" on="0"/>
        <pt x="440" y="597" on="0"/>
        <pt x="451" y="594" on="1"/>
        <pt x="441" y="520" on="1"/>
        <pt x="431" y="523" on="0"/>
        <pt x="397" y="531" on="0"/>
        <pt x="359" y="537" on="0"/>
        <pt x="322" y="542" on="0"/>
        <pt x="310" y="542" on="1"/>
        <pt x="249" y="542" on="0"/>
        <pt x="186" y="473" on="0"/>
        <pt x="176" y="399" on="1"/>
        <pt x="165" y="322" on="1"/>
        <pt x="204" y="359" on="0"/>
        <pt x="275" y="389" on="0"/>
        <pt x="304" y="389" on="1"/>
        <pt x="367" y="389" on="0"/>
        <pt x="437" y="319" on="0"/>
        <pt x="437" y="250" on="1"/>
        <pt x="437" y="229" on="0"/>
        <pt x="434" y="207" on="1"/>
        <pt x="429" y="173" on="1"/>
        <pt x="416" y="82" on="0"/>
        <pt x="321" y="-12" on="0"/>
        <pt x="230" y="-12" on="1"/>
        <pt x="143" y="-12" on="0"/>
        <pt x="60" y="75" on="0"/>
        <pt x="60" y="153" on="1"/>
        <pt x="60" y="174" on="0"/>
        <pt x="63" y="198" on="1"/>
      </contour>
      <contour>
        <pt x="146" y="183" on="1"/>
        <pt x="145" y="177" on="0"/>
        <pt x="144" y="163" on="0"/>
        <pt x="144" y="155" on="1"/>
        <pt x="144" y="110" on="0"/>
        <pt x="189" y="60" on="0"/>
        <pt x="232" y="60" on="1"/>
        <pt x="282" y="60" on="0"/>
        <pt x="334" y="113" on="0"/>
        <pt x="343" y="168" on="1"/>
        <pt x="350" y="210" on="1"/>
        <pt x="352" y="217" on="0"/>
        <pt x="352" y="223" on="1"/>
        <pt x="352" y="236" on="1"/>
        <pt x="352" y="274" on="0"/>
        <pt x="314" y="315" on="0"/>
        <pt x="283" y="315" on="1"/>
        <pt x="254" y="315" on="0"/>
        <pt x="187" y="281" on="0"/>
        <pt x="155" y="250" on="1"/>
      </contour>
    </TTGlyph>
    <TTGlyph name="slash" xMin="115" yMin="0" xMax="405" yMax="683">
      <contour>
        <pt x="115" y="0" on="1"/>
        <pt x="320" y="683" on="1"/>
        <pt x="405" y="683" on="1"/>
        <pt x="200" y="0" on="1"/>
      </contour>
    </TTGlyph>
    <TTGlyph name="sterling" xMin="61" yMin="0" xMax="447" yMax="613">
      <contour>
        <pt x="238" y="375" on="1"/>
        <pt x="333" y="375" on="1"/>
        <pt x="323" y="305" on="1"/>
        <pt x="228" y="305" on="1"/>
        <pt x="214" y="204" on="1"/>
        <pt x="210" y="176" on="0"/>
        <pt x="201" y="136" on="0"/>
        <pt x="187" y="106" on="0"/>
        <pt x="168" y="84" on="0"/>
        <pt x="155" y="74" on="1"/>
        <pt x="418" y="74" on="1"/>
        <pt x="408" y="0" on="1"/>
        <pt x="61" y="0" on="1"/>
        <pt x="69" y="60" on="1"/>
        <pt x="94" y="86" on="0"/>
        <pt x="120" y="142" on="0"/>
        <pt x="125" y="176" on="1"/>
        <pt x="143" y="305" on="1"/>
        <pt x="73" y="305" on="1"/>
        <pt x="83" y="375" on="1"/>
        <pt x="153" y="375" on="1"/>
        <pt x="165" y="460" on="1"/>
        <pt x="176" y="540" on="0"/>
        <pt x="256" y="613" on="0"/>
        <pt x="333" y="613" on="1"/>
        <pt x="345" y="613" on="0"/>
        <pt x="375" y="610" on="0"/>
        <pt x="407" y="605" on="0"/>
        <pt x="436" y="599" on="0"/>
        <pt x="447" y="595" on="1"/>
        <pt x="437" y="523" on="1"/>
        <pt x="416" y="531" on="0"/>
        <pt x="361" y="543" on="0"/>
        <pt x="336" y="543" on="1"/>
        <pt x="296" y="543" on="0"/>
        <pt x="256" y="508" on="0"/>
        <pt x="250" y="465" on="1"/>
      </contour>
    </TTGlyph>
    <TTGlyph name="t" xMin="33" yMin="-12" xMax="328" yMax="618">
      <contour>
        <pt x="104" y="418" on="1"/>
        <pt x="33" y="418" on="1"/>
        <pt x="40" y="468" on="1"/>
        <pt x="120" y="483" on="1"/>
        <pt x="166" y="618" on="1"/>
        <pt x="216" y="618" on="1"/>
        <pt x="198" y="488" on="1"/>
        <pt x="328" y="488" on="1"/>
        <pt x="318" y="418" on="1"/>
        <pt x="188" y="418" on="1"/>
        <pt x="148" y="132" on="1"/>
        <pt x="147" y="127" on="0"/>
        <pt x="147" y="122" on="1"/>
        <pt x="147" y="112" on="1"/>
        <pt x="147" y="85" on="0"/>
        <pt x="172" y="61" on="0"/>
        <pt x="197" y="61" on="1"/>
        <pt x="217" y="61" on="0"/>
        <pt x="270" y="75" on="0"/>
        <pt x="287" y="83" on="1"/>
        <pt x="277" y="10" on="1"/>
        <pt x="260" y="2" on="0"/>
        <pt x="206" y="-12" on="0"/>
        <pt x="185" y="-12" on="1"/>
        <pt x="123" y="-12" on="0"/>
        <pt x="61" y="39" on="0"/>
        <pt x="61" y="99" on="1"/>
        <pt x="61" y="118" on="0"/>
        <pt x="64" y="139" on="1"/>
      </contour>
    </TTGlyph>
</ttFont>
